M48
; DRILL file {KiCad (5.1.5-0-10_14)} date 2019 December 11, Wednesday 23:03:31
; FORMAT={-:-/ absolute / inch / decimal}
; #@! TF.CreationDate,2019-12-11T23:03:31+09:00
; #@! TF.GenerationSoftware,Kicad,Pcbnew,(5.1.5-0-10_14)
FMAT,2
INCH
T1C0.0120
T2C0.0315
T3C0.0394
T4C0.0472
%
G90
G05
T1
X6.066Y-4.7746
X6.255Y-2.6846
X6.3715Y-2.7961
T2
X6.1465Y-3.4391
X6.1465Y-3.5391
X6.1465Y-3.6391
X6.1465Y-3.7391
X6.1465Y-3.8391
X6.1465Y-3.9391
X6.1465Y-4.0391
X6.1465Y-4.1391
X6.1465Y-4.2391
X6.4465Y-3.4391
X6.4465Y-3.5391
X6.4465Y-3.6391
X6.4465Y-3.7391
X6.4465Y-3.8391
X6.4465Y-3.9391
X6.4465Y-4.0391
X6.4465Y-4.1391
X6.4465Y-4.2391
X6.364Y-5.0631
X6.664Y-5.0631
T3
X5.778Y-2.8894
X5.778Y-2.9894
X5.778Y-3.0894
X5.778Y-3.1894
X5.778Y-3.2894
X5.778Y-3.3894
X5.778Y-3.4894
X5.778Y-3.5894
X5.778Y-3.6894
X5.778Y-3.7894
X5.778Y-3.8894
X5.778Y-3.9894
X5.778Y-4.0894
X5.778Y-4.1894
X5.778Y-4.2894
X5.778Y-4.3894
X5.778Y-4.4894
X5.778Y-4.5894
X5.778Y-4.6894
X5.778Y-4.7894
X5.878Y-2.8894
X5.878Y-2.9894
X5.878Y-3.0894
X5.878Y-3.1894
X5.878Y-3.2894
X5.878Y-3.3894
X5.878Y-3.4894
X5.878Y-3.5894
X5.878Y-3.6894
X5.878Y-3.7894
X5.878Y-3.8894
X5.878Y-3.9894
X5.878Y-4.0894
X5.878Y-4.1894
X5.878Y-4.2894
X5.878Y-4.3894
X5.878Y-4.4894
X5.878Y-4.5894
X5.878Y-4.6894
X5.878Y-4.7894
X6.0Y-3.1896
X6.1Y-3.1896
X6.2Y-3.1896
X6.3Y-3.1896
X6.4Y-3.1896
X6.5Y-3.1896
X6.6Y-3.1896
X6.586Y-2.5274
X6.586Y-2.6061
X6.586Y-2.6848
X6.586Y-2.7636
X6.586Y-2.8423
X5.9496Y-4.6378
X6.0496Y-4.6378
X6.1496Y-4.6378
X6.2496Y-4.6378
X6.3496Y-4.6378
X6.4496Y-4.6378
X6.5496Y-4.6378
X6.6496Y-4.6378
X5.999Y-4.4896
X6.099Y-4.4896
X6.199Y-4.4896
X6.299Y-4.4896
X6.399Y-4.4896
X6.499Y-4.4896
X6.599Y-4.4896
X5.948Y-3.0386
X6.048Y-3.0386
X6.148Y-3.0386
X6.248Y-3.0386
X6.348Y-3.0386
X6.448Y-3.0386
X6.548Y-3.0386
X6.648Y-3.0386
T4
X6.9797Y-2.4939
X6.9797Y-2.8758
T0
M30
