G04 #@! TF.GenerationSoftware,KiCad,Pcbnew,(5.1.5-0-10_14)*
G04 #@! TF.CreationDate,2019-12-11T23:03:34+09:00*
G04 #@! TF.ProjectId,RPiWD_Main,52506957-445f-44d6-9169-6e2e6b696361,rev?*
G04 #@! TF.SameCoordinates,Original*
G04 #@! TF.FileFunction,Legend,Top*
G04 #@! TF.FilePolarity,Positive*
%FSLAX46Y46*%
G04 Gerber Fmt 4.6, Leading zero omitted, Abs format (unit mm)*
G04 Created by KiCad (PCBNEW (5.1.5-0-10_14)) date 2019-12-11 23:03:34*
%MOMM*%
%LPD*%
G04 APERTURE LIST*
%ADD10C,0.120000*%
%ADD11C,0.150000*%
G04 APERTURE END LIST*
D10*
X159691548Y-96802700D02*
X160214052Y-96802700D01*
X159691548Y-98222700D02*
X160214052Y-98222700D01*
X168944600Y-114035400D02*
X168944600Y-115365400D01*
X168944600Y-115365400D02*
X167614600Y-115365400D01*
X166344600Y-115365400D02*
X151044600Y-115365400D01*
X151044600Y-112705400D02*
X151044600Y-115365400D01*
X166344600Y-112705400D02*
X151044600Y-112705400D01*
X166344600Y-112705400D02*
X166344600Y-115365400D01*
X153670000Y-82345400D02*
X153670000Y-79685400D01*
X153670000Y-82345400D02*
X168970000Y-82345400D01*
X168970000Y-82345400D02*
X168970000Y-79685400D01*
X153670000Y-79685400D02*
X168970000Y-79685400D01*
X151070000Y-79685400D02*
X152400000Y-79685400D01*
X151070000Y-81015400D02*
X151070000Y-79685400D01*
X158931100Y-109002700D02*
G75*
G02X160931100Y-109002700I1000000J0D01*
G01*
X160931100Y-109002700D02*
X162581100Y-109002700D01*
X162581100Y-109002700D02*
X162581100Y-86022700D01*
X162581100Y-86022700D02*
X157281100Y-86022700D01*
X157281100Y-86022700D02*
X157281100Y-109002700D01*
X157281100Y-109002700D02*
X158931100Y-109002700D01*
X149790000Y-116470200D02*
X149790000Y-119130200D01*
X167630000Y-116470200D02*
X149790000Y-116470200D01*
X167630000Y-119130200D02*
X149790000Y-119130200D01*
X167630000Y-116470200D02*
X167630000Y-119130200D01*
X168900000Y-116470200D02*
X170230000Y-116470200D01*
X170230000Y-116470200D02*
X170230000Y-117800200D01*
X149749200Y-78510000D02*
X149749200Y-77180000D01*
X151079200Y-78510000D02*
X149749200Y-78510000D01*
X152349200Y-78510000D02*
X152349200Y-75850000D01*
X152349200Y-75850000D02*
X170189200Y-75850000D01*
X152349200Y-78510000D02*
X170189200Y-78510000D01*
X170189200Y-78510000D02*
X170189200Y-75850000D01*
D11*
X141504761Y-98357342D02*
X141552380Y-98214485D01*
X141552380Y-97976390D01*
X141504761Y-97881152D01*
X141457142Y-97833533D01*
X141361904Y-97785914D01*
X141266666Y-97785914D01*
X141171428Y-97833533D01*
X141123809Y-97881152D01*
X141076190Y-97976390D01*
X141028571Y-98166866D01*
X140980952Y-98262104D01*
X140933333Y-98309723D01*
X140838095Y-98357342D01*
X140742857Y-98357342D01*
X140647619Y-98309723D01*
X140600000Y-98262104D01*
X140552380Y-98166866D01*
X140552380Y-97928771D01*
X140600000Y-97785914D01*
X140552380Y-97452580D02*
X141552380Y-97214485D01*
X140838095Y-97024009D01*
X141552380Y-96833533D01*
X140552380Y-96595438D01*
X159786133Y-96219842D02*
X159738514Y-96267461D01*
X159595657Y-96315080D01*
X159500419Y-96315080D01*
X159357561Y-96267461D01*
X159262323Y-96172223D01*
X159214704Y-96076985D01*
X159167085Y-95886509D01*
X159167085Y-95743652D01*
X159214704Y-95553176D01*
X159262323Y-95457938D01*
X159357561Y-95362700D01*
X159500419Y-95315080D01*
X159595657Y-95315080D01*
X159738514Y-95362700D01*
X159786133Y-95410319D01*
X160738514Y-96315080D02*
X160167085Y-96315080D01*
X160452800Y-96315080D02*
X160452800Y-95315080D01*
X160357561Y-95457938D01*
X160262323Y-95553176D01*
X160167085Y-95600795D01*
X157567619Y-111958380D02*
X157567619Y-110958380D01*
X157805714Y-110958380D01*
X157948571Y-111006000D01*
X158043809Y-111101238D01*
X158091428Y-111196476D01*
X158139047Y-111386952D01*
X158139047Y-111529809D01*
X158091428Y-111720285D01*
X158043809Y-111815523D01*
X157948571Y-111910761D01*
X157805714Y-111958380D01*
X157567619Y-111958380D01*
X158567619Y-111958380D02*
X158567619Y-111291714D01*
X158567619Y-110958380D02*
X158520000Y-111006000D01*
X158567619Y-111053619D01*
X158615238Y-111006000D01*
X158567619Y-110958380D01*
X158567619Y-111053619D01*
X158996190Y-111910761D02*
X159091428Y-111958380D01*
X159281904Y-111958380D01*
X159377142Y-111910761D01*
X159424761Y-111815523D01*
X159424761Y-111767904D01*
X159377142Y-111672666D01*
X159281904Y-111625047D01*
X159139047Y-111625047D01*
X159043809Y-111577428D01*
X158996190Y-111482190D01*
X158996190Y-111434571D01*
X159043809Y-111339333D01*
X159139047Y-111291714D01*
X159281904Y-111291714D01*
X159377142Y-111339333D01*
X159853333Y-111291714D02*
X159853333Y-112291714D01*
X159853333Y-111339333D02*
X159948571Y-111291714D01*
X160139047Y-111291714D01*
X160234285Y-111339333D01*
X160281904Y-111386952D01*
X160329523Y-111482190D01*
X160329523Y-111767904D01*
X160281904Y-111863142D01*
X160234285Y-111910761D01*
X160139047Y-111958380D01*
X159948571Y-111958380D01*
X159853333Y-111910761D01*
X160900952Y-111958380D02*
X160805714Y-111910761D01*
X160758095Y-111815523D01*
X160758095Y-110958380D01*
X161710476Y-111958380D02*
X161710476Y-111434571D01*
X161662857Y-111339333D01*
X161567619Y-111291714D01*
X161377142Y-111291714D01*
X161281904Y-111339333D01*
X161710476Y-111910761D02*
X161615238Y-111958380D01*
X161377142Y-111958380D01*
X161281904Y-111910761D01*
X161234285Y-111815523D01*
X161234285Y-111720285D01*
X161281904Y-111625047D01*
X161377142Y-111577428D01*
X161615238Y-111577428D01*
X161710476Y-111529809D01*
X162091428Y-111291714D02*
X162329523Y-111958380D01*
X162567619Y-111291714D02*
X162329523Y-111958380D01*
X162234285Y-112196476D01*
X162186666Y-112244095D01*
X162091428Y-112291714D01*
X162472380Y-83113619D02*
X162472380Y-84113619D01*
X162234285Y-84113619D01*
X162091428Y-84066000D01*
X161996190Y-83970761D01*
X161948571Y-83875523D01*
X161900952Y-83685047D01*
X161900952Y-83542190D01*
X161948571Y-83351714D01*
X161996190Y-83256476D01*
X162091428Y-83161238D01*
X162234285Y-83113619D01*
X162472380Y-83113619D01*
X161472380Y-83113619D02*
X161472380Y-83780285D01*
X161472380Y-84113619D02*
X161520000Y-84066000D01*
X161472380Y-84018380D01*
X161424761Y-84066000D01*
X161472380Y-84113619D01*
X161472380Y-84018380D01*
X161043809Y-83161238D02*
X160948571Y-83113619D01*
X160758095Y-83113619D01*
X160662857Y-83161238D01*
X160615238Y-83256476D01*
X160615238Y-83304095D01*
X160662857Y-83399333D01*
X160758095Y-83446952D01*
X160900952Y-83446952D01*
X160996190Y-83494571D01*
X161043809Y-83589809D01*
X161043809Y-83637428D01*
X160996190Y-83732666D01*
X160900952Y-83780285D01*
X160758095Y-83780285D01*
X160662857Y-83732666D01*
X160186666Y-83780285D02*
X160186666Y-82780285D01*
X160186666Y-83732666D02*
X160091428Y-83780285D01*
X159900952Y-83780285D01*
X159805714Y-83732666D01*
X159758095Y-83685047D01*
X159710476Y-83589809D01*
X159710476Y-83304095D01*
X159758095Y-83208857D01*
X159805714Y-83161238D01*
X159900952Y-83113619D01*
X160091428Y-83113619D01*
X160186666Y-83161238D01*
X159139047Y-83113619D02*
X159234285Y-83161238D01*
X159281904Y-83256476D01*
X159281904Y-84113619D01*
X158329523Y-83113619D02*
X158329523Y-83637428D01*
X158377142Y-83732666D01*
X158472380Y-83780285D01*
X158662857Y-83780285D01*
X158758095Y-83732666D01*
X158329523Y-83161238D02*
X158424761Y-83113619D01*
X158662857Y-83113619D01*
X158758095Y-83161238D01*
X158805714Y-83256476D01*
X158805714Y-83351714D01*
X158758095Y-83446952D01*
X158662857Y-83494571D01*
X158424761Y-83494571D01*
X158329523Y-83542190D01*
X157948571Y-83780285D02*
X157710476Y-83113619D01*
X157472380Y-83780285D02*
X157710476Y-83113619D01*
X157805714Y-82875523D01*
X157853333Y-82827904D01*
X157948571Y-82780285D01*
X159128195Y-87284480D02*
X159128195Y-88094004D01*
X159175814Y-88189242D01*
X159223433Y-88236861D01*
X159318671Y-88284480D01*
X159509147Y-88284480D01*
X159604385Y-88236861D01*
X159652004Y-88189242D01*
X159699623Y-88094004D01*
X159699623Y-87284480D01*
X160699623Y-88284480D02*
X160128195Y-88284480D01*
X160413909Y-88284480D02*
X160413909Y-87284480D01*
X160318671Y-87427338D01*
X160223433Y-87522576D01*
X160128195Y-87570195D01*
X157115238Y-120499142D02*
X157067619Y-120546761D01*
X156924761Y-120594380D01*
X156829523Y-120594380D01*
X156686666Y-120546761D01*
X156591428Y-120451523D01*
X156543809Y-120356285D01*
X156496190Y-120165809D01*
X156496190Y-120022952D01*
X156543809Y-119832476D01*
X156591428Y-119737238D01*
X156686666Y-119642000D01*
X156829523Y-119594380D01*
X156924761Y-119594380D01*
X157067619Y-119642000D01*
X157115238Y-119689619D01*
X157686666Y-120594380D02*
X157591428Y-120546761D01*
X157543809Y-120499142D01*
X157496190Y-120403904D01*
X157496190Y-120118190D01*
X157543809Y-120022952D01*
X157591428Y-119975333D01*
X157686666Y-119927714D01*
X157829523Y-119927714D01*
X157924761Y-119975333D01*
X157972380Y-120022952D01*
X158020000Y-120118190D01*
X158020000Y-120403904D01*
X157972380Y-120499142D01*
X157924761Y-120546761D01*
X157829523Y-120594380D01*
X157686666Y-120594380D01*
X158448571Y-119927714D02*
X158448571Y-120594380D01*
X158448571Y-120022952D02*
X158496190Y-119975333D01*
X158591428Y-119927714D01*
X158734285Y-119927714D01*
X158829523Y-119975333D01*
X158877142Y-120070571D01*
X158877142Y-120594380D01*
X159210476Y-119927714D02*
X159591428Y-119927714D01*
X159353333Y-119594380D02*
X159353333Y-120451523D01*
X159400952Y-120546761D01*
X159496190Y-120594380D01*
X159591428Y-120594380D01*
X159924761Y-120594380D02*
X159924761Y-119927714D01*
X159924761Y-120118190D02*
X159972380Y-120022952D01*
X160020000Y-119975333D01*
X160115238Y-119927714D01*
X160210476Y-119927714D01*
X160686666Y-120594380D02*
X160591428Y-120546761D01*
X160543809Y-120499142D01*
X160496190Y-120403904D01*
X160496190Y-120118190D01*
X160543809Y-120022952D01*
X160591428Y-119975333D01*
X160686666Y-119927714D01*
X160829523Y-119927714D01*
X160924761Y-119975333D01*
X160972380Y-120022952D01*
X161020000Y-120118190D01*
X161020000Y-120403904D01*
X160972380Y-120499142D01*
X160924761Y-120546761D01*
X160829523Y-120594380D01*
X160686666Y-120594380D01*
X161591428Y-120594380D02*
X161496190Y-120546761D01*
X161448571Y-120451523D01*
X161448571Y-119594380D01*
X162115238Y-120594380D02*
X162020000Y-120546761D01*
X161972380Y-120451523D01*
X161972380Y-119594380D01*
X162877142Y-120546761D02*
X162781904Y-120594380D01*
X162591428Y-120594380D01*
X162496190Y-120546761D01*
X162448571Y-120451523D01*
X162448571Y-120070571D01*
X162496190Y-119975333D01*
X162591428Y-119927714D01*
X162781904Y-119927714D01*
X162877142Y-119975333D01*
X162924761Y-120070571D01*
X162924761Y-120165809D01*
X162448571Y-120261047D01*
X163353333Y-120594380D02*
X163353333Y-119927714D01*
X163353333Y-120118190D02*
X163400952Y-120022952D01*
X163448571Y-119975333D01*
X163543809Y-119927714D01*
X163639047Y-119927714D01*
X162924761Y-74572857D02*
X162972380Y-74525238D01*
X163115238Y-74477619D01*
X163210476Y-74477619D01*
X163353333Y-74525238D01*
X163448571Y-74620476D01*
X163496190Y-74715714D01*
X163543809Y-74906190D01*
X163543809Y-75049047D01*
X163496190Y-75239523D01*
X163448571Y-75334761D01*
X163353333Y-75430000D01*
X163210476Y-75477619D01*
X163115238Y-75477619D01*
X162972380Y-75430000D01*
X162924761Y-75382380D01*
X162353333Y-74477619D02*
X162448571Y-74525238D01*
X162496190Y-74572857D01*
X162543809Y-74668095D01*
X162543809Y-74953809D01*
X162496190Y-75049047D01*
X162448571Y-75096666D01*
X162353333Y-75144285D01*
X162210476Y-75144285D01*
X162115238Y-75096666D01*
X162067619Y-75049047D01*
X162020000Y-74953809D01*
X162020000Y-74668095D01*
X162067619Y-74572857D01*
X162115238Y-74525238D01*
X162210476Y-74477619D01*
X162353333Y-74477619D01*
X161591428Y-75144285D02*
X161591428Y-74477619D01*
X161591428Y-75049047D02*
X161543809Y-75096666D01*
X161448571Y-75144285D01*
X161305714Y-75144285D01*
X161210476Y-75096666D01*
X161162857Y-75001428D01*
X161162857Y-74477619D01*
X160829523Y-75144285D02*
X160448571Y-75144285D01*
X160686666Y-75477619D02*
X160686666Y-74620476D01*
X160639047Y-74525238D01*
X160543809Y-74477619D01*
X160448571Y-74477619D01*
X160115238Y-74477619D02*
X160115238Y-75144285D01*
X160115238Y-74953809D02*
X160067619Y-75049047D01*
X160020000Y-75096666D01*
X159924761Y-75144285D01*
X159829523Y-75144285D01*
X159353333Y-74477619D02*
X159448571Y-74525238D01*
X159496190Y-74572857D01*
X159543809Y-74668095D01*
X159543809Y-74953809D01*
X159496190Y-75049047D01*
X159448571Y-75096666D01*
X159353333Y-75144285D01*
X159210476Y-75144285D01*
X159115238Y-75096666D01*
X159067619Y-75049047D01*
X159020000Y-74953809D01*
X159020000Y-74668095D01*
X159067619Y-74572857D01*
X159115238Y-74525238D01*
X159210476Y-74477619D01*
X159353333Y-74477619D01*
X158448571Y-74477619D02*
X158543809Y-74525238D01*
X158591428Y-74620476D01*
X158591428Y-75477619D01*
X157924761Y-74477619D02*
X158020000Y-74525238D01*
X158067619Y-74620476D01*
X158067619Y-75477619D01*
X157162857Y-74525238D02*
X157258095Y-74477619D01*
X157448571Y-74477619D01*
X157543809Y-74525238D01*
X157591428Y-74620476D01*
X157591428Y-75001428D01*
X157543809Y-75096666D01*
X157448571Y-75144285D01*
X157258095Y-75144285D01*
X157162857Y-75096666D01*
X157115238Y-75001428D01*
X157115238Y-74906190D01*
X157591428Y-74810952D01*
X156686666Y-74477619D02*
X156686666Y-75144285D01*
X156686666Y-74953809D02*
X156639047Y-75049047D01*
X156591428Y-75096666D01*
X156496190Y-75144285D01*
X156400952Y-75144285D01*
M02*
