G04 #@! TF.GenerationSoftware,KiCad,Pcbnew,(5.1.5-0-10_14)*
G04 #@! TF.CreationDate,2019-12-11T23:03:34+09:00*
G04 #@! TF.ProjectId,RPiWD_Main,52506957-445f-44d6-9169-6e2e6b696361,rev?*
G04 #@! TF.SameCoordinates,Original*
G04 #@! TF.FileFunction,Soldermask,Top*
G04 #@! TF.FilePolarity,Negative*
%FSLAX46Y46*%
G04 Gerber Fmt 4.6, Leading zero omitted, Abs format (unit mm)*
G04 Created by KiCad (PCBNEW (5.1.5-0-10_14)) date 2019-12-11 23:03:34*
%MOMM*%
%LPD*%
G04 APERTURE LIST*
%ADD10C,0.100000*%
G04 APERTURE END LIST*
D10*
G36*
X169513828Y-127784003D02*
G01*
X169668700Y-127848153D01*
X169808081Y-127941285D01*
X169926615Y-128059819D01*
X170019747Y-128199200D01*
X170083897Y-128354072D01*
X170116600Y-128518484D01*
X170116600Y-128686116D01*
X170083897Y-128850528D01*
X170019747Y-129005400D01*
X169926615Y-129144781D01*
X169808081Y-129263315D01*
X169668700Y-129356447D01*
X169513828Y-129420597D01*
X169349416Y-129453300D01*
X169181784Y-129453300D01*
X169017372Y-129420597D01*
X168862500Y-129356447D01*
X168723119Y-129263315D01*
X168604585Y-129144781D01*
X168511453Y-129005400D01*
X168447303Y-128850528D01*
X168414600Y-128686116D01*
X168414600Y-128518484D01*
X168447303Y-128354072D01*
X168511453Y-128199200D01*
X168604585Y-128059819D01*
X168723119Y-127941285D01*
X168862500Y-127848153D01*
X169017372Y-127784003D01*
X169181784Y-127751300D01*
X169349416Y-127751300D01*
X169513828Y-127784003D01*
G37*
G36*
X161893828Y-127784003D02*
G01*
X162048700Y-127848153D01*
X162188081Y-127941285D01*
X162306615Y-128059819D01*
X162399747Y-128199200D01*
X162463897Y-128354072D01*
X162496600Y-128518484D01*
X162496600Y-128686116D01*
X162463897Y-128850528D01*
X162399747Y-129005400D01*
X162306615Y-129144781D01*
X162188081Y-129263315D01*
X162048700Y-129356447D01*
X161893828Y-129420597D01*
X161729416Y-129453300D01*
X161561784Y-129453300D01*
X161397372Y-129420597D01*
X161242500Y-129356447D01*
X161103119Y-129263315D01*
X160984585Y-129144781D01*
X160891453Y-129005400D01*
X160827303Y-128850528D01*
X160794600Y-128686116D01*
X160794600Y-128518484D01*
X160827303Y-128354072D01*
X160891453Y-128199200D01*
X160984585Y-128059819D01*
X161103119Y-127941285D01*
X161242500Y-127848153D01*
X161397372Y-127784003D01*
X161561784Y-127751300D01*
X161729416Y-127751300D01*
X161893828Y-127784003D01*
G37*
G36*
X146873512Y-120754127D02*
G01*
X147022812Y-120783824D01*
X147186784Y-120851744D01*
X147334354Y-120950347D01*
X147459853Y-121075846D01*
X147558456Y-121223416D01*
X147626376Y-121387388D01*
X147661000Y-121561459D01*
X147661000Y-121738941D01*
X147626376Y-121913012D01*
X147558456Y-122076984D01*
X147459853Y-122224554D01*
X147334354Y-122350053D01*
X147186784Y-122448656D01*
X147022812Y-122516576D01*
X146873512Y-122546273D01*
X146848742Y-122551200D01*
X146671258Y-122551200D01*
X146646488Y-122546273D01*
X146497188Y-122516576D01*
X146333216Y-122448656D01*
X146185646Y-122350053D01*
X146060147Y-122224554D01*
X145961544Y-122076984D01*
X145893624Y-121913012D01*
X145859000Y-121738941D01*
X145859000Y-121561459D01*
X145893624Y-121387388D01*
X145961544Y-121223416D01*
X146060147Y-121075846D01*
X146185646Y-120950347D01*
X146333216Y-120851744D01*
X146497188Y-120783824D01*
X146646488Y-120754127D01*
X146671258Y-120749200D01*
X146848742Y-120749200D01*
X146873512Y-120754127D01*
G37*
G36*
X149413512Y-120754127D02*
G01*
X149562812Y-120783824D01*
X149726784Y-120851744D01*
X149874354Y-120950347D01*
X149999853Y-121075846D01*
X150098456Y-121223416D01*
X150166376Y-121387388D01*
X150201000Y-121561459D01*
X150201000Y-121738941D01*
X150166376Y-121913012D01*
X150098456Y-122076984D01*
X149999853Y-122224554D01*
X149874354Y-122350053D01*
X149726784Y-122448656D01*
X149562812Y-122516576D01*
X149413512Y-122546273D01*
X149388742Y-122551200D01*
X149211258Y-122551200D01*
X149186488Y-122546273D01*
X149037188Y-122516576D01*
X148873216Y-122448656D01*
X148725646Y-122350053D01*
X148600147Y-122224554D01*
X148501544Y-122076984D01*
X148433624Y-121913012D01*
X148399000Y-121738941D01*
X148399000Y-121561459D01*
X148433624Y-121387388D01*
X148501544Y-121223416D01*
X148600147Y-121075846D01*
X148725646Y-120950347D01*
X148873216Y-120851744D01*
X149037188Y-120783824D01*
X149186488Y-120754127D01*
X149211258Y-120749200D01*
X149388742Y-120749200D01*
X149413512Y-120754127D01*
G37*
G36*
X149413512Y-118214127D02*
G01*
X149562812Y-118243824D01*
X149726784Y-118311744D01*
X149874354Y-118410347D01*
X149999853Y-118535846D01*
X150098456Y-118683416D01*
X150166376Y-118847388D01*
X150201000Y-119021459D01*
X150201000Y-119198941D01*
X150166376Y-119373012D01*
X150098456Y-119536984D01*
X149999853Y-119684554D01*
X149874354Y-119810053D01*
X149726784Y-119908656D01*
X149562812Y-119976576D01*
X149413512Y-120006273D01*
X149388742Y-120011200D01*
X149211258Y-120011200D01*
X149186488Y-120006273D01*
X149037188Y-119976576D01*
X148873216Y-119908656D01*
X148725646Y-119810053D01*
X148600147Y-119684554D01*
X148501544Y-119536984D01*
X148433624Y-119373012D01*
X148399000Y-119198941D01*
X148399000Y-119021459D01*
X148433624Y-118847388D01*
X148501544Y-118683416D01*
X148600147Y-118535846D01*
X148725646Y-118410347D01*
X148873216Y-118311744D01*
X149037188Y-118243824D01*
X149186488Y-118214127D01*
X149211258Y-118209200D01*
X149388742Y-118209200D01*
X149413512Y-118214127D01*
G37*
G36*
X146873512Y-118214127D02*
G01*
X147022812Y-118243824D01*
X147186784Y-118311744D01*
X147334354Y-118410347D01*
X147459853Y-118535846D01*
X147558456Y-118683416D01*
X147626376Y-118847388D01*
X147661000Y-119021459D01*
X147661000Y-119198941D01*
X147626376Y-119373012D01*
X147558456Y-119536984D01*
X147459853Y-119684554D01*
X147334354Y-119810053D01*
X147186784Y-119908656D01*
X147022812Y-119976576D01*
X146873512Y-120006273D01*
X146848742Y-120011200D01*
X146671258Y-120011200D01*
X146646488Y-120006273D01*
X146497188Y-119976576D01*
X146333216Y-119908656D01*
X146185646Y-119810053D01*
X146060147Y-119684554D01*
X145961544Y-119536984D01*
X145893624Y-119373012D01*
X145859000Y-119198941D01*
X145859000Y-119021459D01*
X145893624Y-118847388D01*
X145961544Y-118683416D01*
X146060147Y-118535846D01*
X146185646Y-118410347D01*
X146333216Y-118311744D01*
X146497188Y-118243824D01*
X146646488Y-118214127D01*
X146671258Y-118209200D01*
X146848742Y-118209200D01*
X146873512Y-118214127D01*
G37*
G36*
X153773512Y-116904127D02*
G01*
X153922812Y-116933824D01*
X154086784Y-117001744D01*
X154234354Y-117100347D01*
X154359853Y-117225846D01*
X154458456Y-117373416D01*
X154526376Y-117537388D01*
X154561000Y-117711459D01*
X154561000Y-117888941D01*
X154526376Y-118063012D01*
X154458456Y-118226984D01*
X154359853Y-118374554D01*
X154234354Y-118500053D01*
X154086784Y-118598656D01*
X153922812Y-118666576D01*
X153773512Y-118696273D01*
X153748742Y-118701200D01*
X153571258Y-118701200D01*
X153546488Y-118696273D01*
X153397188Y-118666576D01*
X153233216Y-118598656D01*
X153085646Y-118500053D01*
X152960147Y-118374554D01*
X152861544Y-118226984D01*
X152793624Y-118063012D01*
X152759000Y-117888941D01*
X152759000Y-117711459D01*
X152793624Y-117537388D01*
X152861544Y-117373416D01*
X152960147Y-117225846D01*
X153085646Y-117100347D01*
X153233216Y-117001744D01*
X153397188Y-116933824D01*
X153546488Y-116904127D01*
X153571258Y-116899200D01*
X153748742Y-116899200D01*
X153773512Y-116904127D01*
G37*
G36*
X151233512Y-116904127D02*
G01*
X151382812Y-116933824D01*
X151546784Y-117001744D01*
X151694354Y-117100347D01*
X151819853Y-117225846D01*
X151918456Y-117373416D01*
X151986376Y-117537388D01*
X152021000Y-117711459D01*
X152021000Y-117888941D01*
X151986376Y-118063012D01*
X151918456Y-118226984D01*
X151819853Y-118374554D01*
X151694354Y-118500053D01*
X151546784Y-118598656D01*
X151382812Y-118666576D01*
X151233512Y-118696273D01*
X151208742Y-118701200D01*
X151031258Y-118701200D01*
X151006488Y-118696273D01*
X150857188Y-118666576D01*
X150693216Y-118598656D01*
X150545646Y-118500053D01*
X150420147Y-118374554D01*
X150321544Y-118226984D01*
X150253624Y-118063012D01*
X150219000Y-117888941D01*
X150219000Y-117711459D01*
X150253624Y-117537388D01*
X150321544Y-117373416D01*
X150420147Y-117225846D01*
X150545646Y-117100347D01*
X150693216Y-117001744D01*
X150857188Y-116933824D01*
X151006488Y-116904127D01*
X151031258Y-116899200D01*
X151208742Y-116899200D01*
X151233512Y-116904127D01*
G37*
G36*
X156313512Y-116904127D02*
G01*
X156462812Y-116933824D01*
X156626784Y-117001744D01*
X156774354Y-117100347D01*
X156899853Y-117225846D01*
X156998456Y-117373416D01*
X157066376Y-117537388D01*
X157101000Y-117711459D01*
X157101000Y-117888941D01*
X157066376Y-118063012D01*
X156998456Y-118226984D01*
X156899853Y-118374554D01*
X156774354Y-118500053D01*
X156626784Y-118598656D01*
X156462812Y-118666576D01*
X156313512Y-118696273D01*
X156288742Y-118701200D01*
X156111258Y-118701200D01*
X156086488Y-118696273D01*
X155937188Y-118666576D01*
X155773216Y-118598656D01*
X155625646Y-118500053D01*
X155500147Y-118374554D01*
X155401544Y-118226984D01*
X155333624Y-118063012D01*
X155299000Y-117888941D01*
X155299000Y-117711459D01*
X155333624Y-117537388D01*
X155401544Y-117373416D01*
X155500147Y-117225846D01*
X155625646Y-117100347D01*
X155773216Y-117001744D01*
X155937188Y-116933824D01*
X156086488Y-116904127D01*
X156111258Y-116899200D01*
X156288742Y-116899200D01*
X156313512Y-116904127D01*
G37*
G36*
X161393512Y-116904127D02*
G01*
X161542812Y-116933824D01*
X161706784Y-117001744D01*
X161854354Y-117100347D01*
X161979853Y-117225846D01*
X162078456Y-117373416D01*
X162146376Y-117537388D01*
X162181000Y-117711459D01*
X162181000Y-117888941D01*
X162146376Y-118063012D01*
X162078456Y-118226984D01*
X161979853Y-118374554D01*
X161854354Y-118500053D01*
X161706784Y-118598656D01*
X161542812Y-118666576D01*
X161393512Y-118696273D01*
X161368742Y-118701200D01*
X161191258Y-118701200D01*
X161166488Y-118696273D01*
X161017188Y-118666576D01*
X160853216Y-118598656D01*
X160705646Y-118500053D01*
X160580147Y-118374554D01*
X160481544Y-118226984D01*
X160413624Y-118063012D01*
X160379000Y-117888941D01*
X160379000Y-117711459D01*
X160413624Y-117537388D01*
X160481544Y-117373416D01*
X160580147Y-117225846D01*
X160705646Y-117100347D01*
X160853216Y-117001744D01*
X161017188Y-116933824D01*
X161166488Y-116904127D01*
X161191258Y-116899200D01*
X161368742Y-116899200D01*
X161393512Y-116904127D01*
G37*
G36*
X169013512Y-116904127D02*
G01*
X169162812Y-116933824D01*
X169326784Y-117001744D01*
X169474354Y-117100347D01*
X169599853Y-117225846D01*
X169698456Y-117373416D01*
X169766376Y-117537388D01*
X169801000Y-117711459D01*
X169801000Y-117888941D01*
X169766376Y-118063012D01*
X169698456Y-118226984D01*
X169599853Y-118374554D01*
X169474354Y-118500053D01*
X169326784Y-118598656D01*
X169162812Y-118666576D01*
X169013512Y-118696273D01*
X168988742Y-118701200D01*
X168811258Y-118701200D01*
X168786488Y-118696273D01*
X168637188Y-118666576D01*
X168473216Y-118598656D01*
X168325646Y-118500053D01*
X168200147Y-118374554D01*
X168101544Y-118226984D01*
X168033624Y-118063012D01*
X167999000Y-117888941D01*
X167999000Y-117711459D01*
X168033624Y-117537388D01*
X168101544Y-117373416D01*
X168200147Y-117225846D01*
X168325646Y-117100347D01*
X168473216Y-117001744D01*
X168637188Y-116933824D01*
X168786488Y-116904127D01*
X168811258Y-116899200D01*
X168988742Y-116899200D01*
X169013512Y-116904127D01*
G37*
G36*
X166473512Y-116904127D02*
G01*
X166622812Y-116933824D01*
X166786784Y-117001744D01*
X166934354Y-117100347D01*
X167059853Y-117225846D01*
X167158456Y-117373416D01*
X167226376Y-117537388D01*
X167261000Y-117711459D01*
X167261000Y-117888941D01*
X167226376Y-118063012D01*
X167158456Y-118226984D01*
X167059853Y-118374554D01*
X166934354Y-118500053D01*
X166786784Y-118598656D01*
X166622812Y-118666576D01*
X166473512Y-118696273D01*
X166448742Y-118701200D01*
X166271258Y-118701200D01*
X166246488Y-118696273D01*
X166097188Y-118666576D01*
X165933216Y-118598656D01*
X165785646Y-118500053D01*
X165660147Y-118374554D01*
X165561544Y-118226984D01*
X165493624Y-118063012D01*
X165459000Y-117888941D01*
X165459000Y-117711459D01*
X165493624Y-117537388D01*
X165561544Y-117373416D01*
X165660147Y-117225846D01*
X165785646Y-117100347D01*
X165933216Y-117001744D01*
X166097188Y-116933824D01*
X166246488Y-116904127D01*
X166271258Y-116899200D01*
X166448742Y-116899200D01*
X166473512Y-116904127D01*
G37*
G36*
X158853512Y-116904127D02*
G01*
X159002812Y-116933824D01*
X159166784Y-117001744D01*
X159314354Y-117100347D01*
X159439853Y-117225846D01*
X159538456Y-117373416D01*
X159606376Y-117537388D01*
X159641000Y-117711459D01*
X159641000Y-117888941D01*
X159606376Y-118063012D01*
X159538456Y-118226984D01*
X159439853Y-118374554D01*
X159314354Y-118500053D01*
X159166784Y-118598656D01*
X159002812Y-118666576D01*
X158853512Y-118696273D01*
X158828742Y-118701200D01*
X158651258Y-118701200D01*
X158626488Y-118696273D01*
X158477188Y-118666576D01*
X158313216Y-118598656D01*
X158165646Y-118500053D01*
X158040147Y-118374554D01*
X157941544Y-118226984D01*
X157873624Y-118063012D01*
X157839000Y-117888941D01*
X157839000Y-117711459D01*
X157873624Y-117537388D01*
X157941544Y-117373416D01*
X158040147Y-117225846D01*
X158165646Y-117100347D01*
X158313216Y-117001744D01*
X158477188Y-116933824D01*
X158626488Y-116904127D01*
X158651258Y-116899200D01*
X158828742Y-116899200D01*
X158853512Y-116904127D01*
G37*
G36*
X163933512Y-116904127D02*
G01*
X164082812Y-116933824D01*
X164246784Y-117001744D01*
X164394354Y-117100347D01*
X164519853Y-117225846D01*
X164618456Y-117373416D01*
X164686376Y-117537388D01*
X164721000Y-117711459D01*
X164721000Y-117888941D01*
X164686376Y-118063012D01*
X164618456Y-118226984D01*
X164519853Y-118374554D01*
X164394354Y-118500053D01*
X164246784Y-118598656D01*
X164082812Y-118666576D01*
X163933512Y-118696273D01*
X163908742Y-118701200D01*
X163731258Y-118701200D01*
X163706488Y-118696273D01*
X163557188Y-118666576D01*
X163393216Y-118598656D01*
X163245646Y-118500053D01*
X163120147Y-118374554D01*
X163021544Y-118226984D01*
X162953624Y-118063012D01*
X162919000Y-117888941D01*
X162919000Y-117711459D01*
X162953624Y-117537388D01*
X163021544Y-117373416D01*
X163120147Y-117225846D01*
X163245646Y-117100347D01*
X163393216Y-117001744D01*
X163557188Y-116933824D01*
X163706488Y-116904127D01*
X163731258Y-116899200D01*
X163908742Y-116899200D01*
X163933512Y-116904127D01*
G37*
G36*
X149413512Y-115674127D02*
G01*
X149562812Y-115703824D01*
X149726784Y-115771744D01*
X149874354Y-115870347D01*
X149999853Y-115995846D01*
X150098456Y-116143416D01*
X150166376Y-116307388D01*
X150201000Y-116481459D01*
X150201000Y-116658941D01*
X150166376Y-116833012D01*
X150098456Y-116996984D01*
X149999853Y-117144554D01*
X149874354Y-117270053D01*
X149726784Y-117368656D01*
X149562812Y-117436576D01*
X149413512Y-117466273D01*
X149388742Y-117471200D01*
X149211258Y-117471200D01*
X149186488Y-117466273D01*
X149037188Y-117436576D01*
X148873216Y-117368656D01*
X148725646Y-117270053D01*
X148600147Y-117144554D01*
X148501544Y-116996984D01*
X148433624Y-116833012D01*
X148399000Y-116658941D01*
X148399000Y-116481459D01*
X148433624Y-116307388D01*
X148501544Y-116143416D01*
X148600147Y-115995846D01*
X148725646Y-115870347D01*
X148873216Y-115771744D01*
X149037188Y-115703824D01*
X149186488Y-115674127D01*
X149211258Y-115669200D01*
X149388742Y-115669200D01*
X149413512Y-115674127D01*
G37*
G36*
X146873512Y-115674127D02*
G01*
X147022812Y-115703824D01*
X147186784Y-115771744D01*
X147334354Y-115870347D01*
X147459853Y-115995846D01*
X147558456Y-116143416D01*
X147626376Y-116307388D01*
X147661000Y-116481459D01*
X147661000Y-116658941D01*
X147626376Y-116833012D01*
X147558456Y-116996984D01*
X147459853Y-117144554D01*
X147334354Y-117270053D01*
X147186784Y-117368656D01*
X147022812Y-117436576D01*
X146873512Y-117466273D01*
X146848742Y-117471200D01*
X146671258Y-117471200D01*
X146646488Y-117466273D01*
X146497188Y-117436576D01*
X146333216Y-117368656D01*
X146185646Y-117270053D01*
X146060147Y-117144554D01*
X145961544Y-116996984D01*
X145893624Y-116833012D01*
X145859000Y-116658941D01*
X145859000Y-116481459D01*
X145893624Y-116307388D01*
X145961544Y-116143416D01*
X146060147Y-115995846D01*
X146185646Y-115870347D01*
X146333216Y-115771744D01*
X146497188Y-115703824D01*
X146646488Y-115674127D01*
X146671258Y-115669200D01*
X146848742Y-115669200D01*
X146873512Y-115674127D01*
G37*
G36*
X167728112Y-113139327D02*
G01*
X167877412Y-113169024D01*
X168041384Y-113236944D01*
X168188954Y-113335547D01*
X168314453Y-113461046D01*
X168413056Y-113608616D01*
X168480976Y-113772588D01*
X168510673Y-113921888D01*
X168514566Y-113941458D01*
X168515600Y-113946659D01*
X168515600Y-114124141D01*
X168480976Y-114298212D01*
X168413056Y-114462184D01*
X168314453Y-114609754D01*
X168188954Y-114735253D01*
X168041384Y-114833856D01*
X167877412Y-114901776D01*
X167729484Y-114931200D01*
X167703342Y-114936400D01*
X167525858Y-114936400D01*
X167499716Y-114931200D01*
X167351788Y-114901776D01*
X167187816Y-114833856D01*
X167040246Y-114735253D01*
X166914747Y-114609754D01*
X166816144Y-114462184D01*
X166748224Y-114298212D01*
X166713600Y-114124141D01*
X166713600Y-113946659D01*
X166714635Y-113941458D01*
X166718527Y-113921888D01*
X166748224Y-113772588D01*
X166816144Y-113608616D01*
X166914747Y-113461046D01*
X167040246Y-113335547D01*
X167187816Y-113236944D01*
X167351788Y-113169024D01*
X167501088Y-113139327D01*
X167525858Y-113134400D01*
X167703342Y-113134400D01*
X167728112Y-113139327D01*
G37*
G36*
X162648112Y-113139327D02*
G01*
X162797412Y-113169024D01*
X162961384Y-113236944D01*
X163108954Y-113335547D01*
X163234453Y-113461046D01*
X163333056Y-113608616D01*
X163400976Y-113772588D01*
X163430673Y-113921888D01*
X163434566Y-113941458D01*
X163435600Y-113946659D01*
X163435600Y-114124141D01*
X163400976Y-114298212D01*
X163333056Y-114462184D01*
X163234453Y-114609754D01*
X163108954Y-114735253D01*
X162961384Y-114833856D01*
X162797412Y-114901776D01*
X162649484Y-114931200D01*
X162623342Y-114936400D01*
X162445858Y-114936400D01*
X162419716Y-114931200D01*
X162271788Y-114901776D01*
X162107816Y-114833856D01*
X161960246Y-114735253D01*
X161834747Y-114609754D01*
X161736144Y-114462184D01*
X161668224Y-114298212D01*
X161633600Y-114124141D01*
X161633600Y-113946659D01*
X161634635Y-113941458D01*
X161638527Y-113921888D01*
X161668224Y-113772588D01*
X161736144Y-113608616D01*
X161834747Y-113461046D01*
X161960246Y-113335547D01*
X162107816Y-113236944D01*
X162271788Y-113169024D01*
X162421088Y-113139327D01*
X162445858Y-113134400D01*
X162623342Y-113134400D01*
X162648112Y-113139327D01*
G37*
G36*
X165188112Y-113139327D02*
G01*
X165337412Y-113169024D01*
X165501384Y-113236944D01*
X165648954Y-113335547D01*
X165774453Y-113461046D01*
X165873056Y-113608616D01*
X165940976Y-113772588D01*
X165970673Y-113921888D01*
X165974566Y-113941458D01*
X165975600Y-113946659D01*
X165975600Y-114124141D01*
X165940976Y-114298212D01*
X165873056Y-114462184D01*
X165774453Y-114609754D01*
X165648954Y-114735253D01*
X165501384Y-114833856D01*
X165337412Y-114901776D01*
X165189484Y-114931200D01*
X165163342Y-114936400D01*
X164985858Y-114936400D01*
X164959716Y-114931200D01*
X164811788Y-114901776D01*
X164647816Y-114833856D01*
X164500246Y-114735253D01*
X164374747Y-114609754D01*
X164276144Y-114462184D01*
X164208224Y-114298212D01*
X164173600Y-114124141D01*
X164173600Y-113946659D01*
X164174635Y-113941458D01*
X164178527Y-113921888D01*
X164208224Y-113772588D01*
X164276144Y-113608616D01*
X164374747Y-113461046D01*
X164500246Y-113335547D01*
X164647816Y-113236944D01*
X164811788Y-113169024D01*
X164961088Y-113139327D01*
X164985858Y-113134400D01*
X165163342Y-113134400D01*
X165188112Y-113139327D01*
G37*
G36*
X160108112Y-113139327D02*
G01*
X160257412Y-113169024D01*
X160421384Y-113236944D01*
X160568954Y-113335547D01*
X160694453Y-113461046D01*
X160793056Y-113608616D01*
X160860976Y-113772588D01*
X160890673Y-113921888D01*
X160894566Y-113941458D01*
X160895600Y-113946659D01*
X160895600Y-114124141D01*
X160860976Y-114298212D01*
X160793056Y-114462184D01*
X160694453Y-114609754D01*
X160568954Y-114735253D01*
X160421384Y-114833856D01*
X160257412Y-114901776D01*
X160109484Y-114931200D01*
X160083342Y-114936400D01*
X159905858Y-114936400D01*
X159879716Y-114931200D01*
X159731788Y-114901776D01*
X159567816Y-114833856D01*
X159420246Y-114735253D01*
X159294747Y-114609754D01*
X159196144Y-114462184D01*
X159128224Y-114298212D01*
X159093600Y-114124141D01*
X159093600Y-113946659D01*
X159094635Y-113941458D01*
X159098527Y-113921888D01*
X159128224Y-113772588D01*
X159196144Y-113608616D01*
X159294747Y-113461046D01*
X159420246Y-113335547D01*
X159567816Y-113236944D01*
X159731788Y-113169024D01*
X159881088Y-113139327D01*
X159905858Y-113134400D01*
X160083342Y-113134400D01*
X160108112Y-113139327D01*
G37*
G36*
X152488112Y-113139327D02*
G01*
X152637412Y-113169024D01*
X152801384Y-113236944D01*
X152948954Y-113335547D01*
X153074453Y-113461046D01*
X153173056Y-113608616D01*
X153240976Y-113772588D01*
X153270673Y-113921888D01*
X153274566Y-113941458D01*
X153275600Y-113946659D01*
X153275600Y-114124141D01*
X153240976Y-114298212D01*
X153173056Y-114462184D01*
X153074453Y-114609754D01*
X152948954Y-114735253D01*
X152801384Y-114833856D01*
X152637412Y-114901776D01*
X152489484Y-114931200D01*
X152463342Y-114936400D01*
X152285858Y-114936400D01*
X152259716Y-114931200D01*
X152111788Y-114901776D01*
X151947816Y-114833856D01*
X151800246Y-114735253D01*
X151674747Y-114609754D01*
X151576144Y-114462184D01*
X151508224Y-114298212D01*
X151473600Y-114124141D01*
X151473600Y-113946659D01*
X151474635Y-113941458D01*
X151478527Y-113921888D01*
X151508224Y-113772588D01*
X151576144Y-113608616D01*
X151674747Y-113461046D01*
X151800246Y-113335547D01*
X151947816Y-113236944D01*
X152111788Y-113169024D01*
X152261088Y-113139327D01*
X152285858Y-113134400D01*
X152463342Y-113134400D01*
X152488112Y-113139327D01*
G37*
G36*
X155028112Y-113139327D02*
G01*
X155177412Y-113169024D01*
X155341384Y-113236944D01*
X155488954Y-113335547D01*
X155614453Y-113461046D01*
X155713056Y-113608616D01*
X155780976Y-113772588D01*
X155810673Y-113921888D01*
X155814566Y-113941458D01*
X155815600Y-113946659D01*
X155815600Y-114124141D01*
X155780976Y-114298212D01*
X155713056Y-114462184D01*
X155614453Y-114609754D01*
X155488954Y-114735253D01*
X155341384Y-114833856D01*
X155177412Y-114901776D01*
X155029484Y-114931200D01*
X155003342Y-114936400D01*
X154825858Y-114936400D01*
X154799716Y-114931200D01*
X154651788Y-114901776D01*
X154487816Y-114833856D01*
X154340246Y-114735253D01*
X154214747Y-114609754D01*
X154116144Y-114462184D01*
X154048224Y-114298212D01*
X154013600Y-114124141D01*
X154013600Y-113946659D01*
X154014635Y-113941458D01*
X154018527Y-113921888D01*
X154048224Y-113772588D01*
X154116144Y-113608616D01*
X154214747Y-113461046D01*
X154340246Y-113335547D01*
X154487816Y-113236944D01*
X154651788Y-113169024D01*
X154801088Y-113139327D01*
X154825858Y-113134400D01*
X155003342Y-113134400D01*
X155028112Y-113139327D01*
G37*
G36*
X157568112Y-113139327D02*
G01*
X157717412Y-113169024D01*
X157881384Y-113236944D01*
X158028954Y-113335547D01*
X158154453Y-113461046D01*
X158253056Y-113608616D01*
X158320976Y-113772588D01*
X158350673Y-113921888D01*
X158354566Y-113941458D01*
X158355600Y-113946659D01*
X158355600Y-114124141D01*
X158320976Y-114298212D01*
X158253056Y-114462184D01*
X158154453Y-114609754D01*
X158028954Y-114735253D01*
X157881384Y-114833856D01*
X157717412Y-114901776D01*
X157569484Y-114931200D01*
X157543342Y-114936400D01*
X157365858Y-114936400D01*
X157339716Y-114931200D01*
X157191788Y-114901776D01*
X157027816Y-114833856D01*
X156880246Y-114735253D01*
X156754747Y-114609754D01*
X156656144Y-114462184D01*
X156588224Y-114298212D01*
X156553600Y-114124141D01*
X156553600Y-113946659D01*
X156554635Y-113941458D01*
X156558527Y-113921888D01*
X156588224Y-113772588D01*
X156656144Y-113608616D01*
X156754747Y-113461046D01*
X156880246Y-113335547D01*
X157027816Y-113236944D01*
X157191788Y-113169024D01*
X157341088Y-113139327D01*
X157365858Y-113134400D01*
X157543342Y-113134400D01*
X157568112Y-113139327D01*
G37*
G36*
X149413512Y-113134127D02*
G01*
X149562812Y-113163824D01*
X149726784Y-113231744D01*
X149874354Y-113330347D01*
X149999853Y-113455846D01*
X150098456Y-113603416D01*
X150166376Y-113767388D01*
X150196073Y-113916688D01*
X150201000Y-113941458D01*
X150201000Y-114118942D01*
X150196073Y-114143712D01*
X150166376Y-114293012D01*
X150098456Y-114456984D01*
X149999853Y-114604554D01*
X149874354Y-114730053D01*
X149726784Y-114828656D01*
X149562812Y-114896576D01*
X149413512Y-114926273D01*
X149388742Y-114931200D01*
X149211258Y-114931200D01*
X149186488Y-114926273D01*
X149037188Y-114896576D01*
X148873216Y-114828656D01*
X148725646Y-114730053D01*
X148600147Y-114604554D01*
X148501544Y-114456984D01*
X148433624Y-114293012D01*
X148403927Y-114143712D01*
X148399000Y-114118942D01*
X148399000Y-113941458D01*
X148403927Y-113916688D01*
X148433624Y-113767388D01*
X148501544Y-113603416D01*
X148600147Y-113455846D01*
X148725646Y-113330347D01*
X148873216Y-113231744D01*
X149037188Y-113163824D01*
X149186488Y-113134127D01*
X149211258Y-113129200D01*
X149388742Y-113129200D01*
X149413512Y-113134127D01*
G37*
G36*
X146873512Y-113134127D02*
G01*
X147022812Y-113163824D01*
X147186784Y-113231744D01*
X147334354Y-113330347D01*
X147459853Y-113455846D01*
X147558456Y-113603416D01*
X147626376Y-113767388D01*
X147656073Y-113916688D01*
X147661000Y-113941458D01*
X147661000Y-114118942D01*
X147656073Y-114143712D01*
X147626376Y-114293012D01*
X147558456Y-114456984D01*
X147459853Y-114604554D01*
X147334354Y-114730053D01*
X147186784Y-114828656D01*
X147022812Y-114896576D01*
X146873512Y-114926273D01*
X146848742Y-114931200D01*
X146671258Y-114931200D01*
X146646488Y-114926273D01*
X146497188Y-114896576D01*
X146333216Y-114828656D01*
X146185646Y-114730053D01*
X146060147Y-114604554D01*
X145961544Y-114456984D01*
X145893624Y-114293012D01*
X145863927Y-114143712D01*
X145859000Y-114118942D01*
X145859000Y-113941458D01*
X145863927Y-113916688D01*
X145893624Y-113767388D01*
X145961544Y-113603416D01*
X146060147Y-113455846D01*
X146185646Y-113330347D01*
X146333216Y-113231744D01*
X146497188Y-113163824D01*
X146646488Y-113134127D01*
X146671258Y-113129200D01*
X146848742Y-113129200D01*
X146873512Y-113134127D01*
G37*
G36*
X149413512Y-110594127D02*
G01*
X149562812Y-110623824D01*
X149726784Y-110691744D01*
X149874354Y-110790347D01*
X149999853Y-110915846D01*
X150098456Y-111063416D01*
X150166376Y-111227388D01*
X150201000Y-111401459D01*
X150201000Y-111578941D01*
X150166376Y-111753012D01*
X150098456Y-111916984D01*
X149999853Y-112064554D01*
X149874354Y-112190053D01*
X149726784Y-112288656D01*
X149562812Y-112356576D01*
X149413512Y-112386273D01*
X149388742Y-112391200D01*
X149211258Y-112391200D01*
X149186488Y-112386273D01*
X149037188Y-112356576D01*
X148873216Y-112288656D01*
X148725646Y-112190053D01*
X148600147Y-112064554D01*
X148501544Y-111916984D01*
X148433624Y-111753012D01*
X148399000Y-111578941D01*
X148399000Y-111401459D01*
X148433624Y-111227388D01*
X148501544Y-111063416D01*
X148600147Y-110915846D01*
X148725646Y-110790347D01*
X148873216Y-110691744D01*
X149037188Y-110623824D01*
X149186488Y-110594127D01*
X149211258Y-110589200D01*
X149388742Y-110589200D01*
X149413512Y-110594127D01*
G37*
G36*
X146873512Y-110594127D02*
G01*
X147022812Y-110623824D01*
X147186784Y-110691744D01*
X147334354Y-110790347D01*
X147459853Y-110915846D01*
X147558456Y-111063416D01*
X147626376Y-111227388D01*
X147661000Y-111401459D01*
X147661000Y-111578941D01*
X147626376Y-111753012D01*
X147558456Y-111916984D01*
X147459853Y-112064554D01*
X147334354Y-112190053D01*
X147186784Y-112288656D01*
X147022812Y-112356576D01*
X146873512Y-112386273D01*
X146848742Y-112391200D01*
X146671258Y-112391200D01*
X146646488Y-112386273D01*
X146497188Y-112356576D01*
X146333216Y-112288656D01*
X146185646Y-112190053D01*
X146060147Y-112064554D01*
X145961544Y-111916984D01*
X145893624Y-111753012D01*
X145859000Y-111578941D01*
X145859000Y-111401459D01*
X145893624Y-111227388D01*
X145961544Y-111063416D01*
X146060147Y-110915846D01*
X146185646Y-110790347D01*
X146333216Y-110691744D01*
X146497188Y-110623824D01*
X146646488Y-110594127D01*
X146671258Y-110589200D01*
X146848742Y-110589200D01*
X146873512Y-110594127D01*
G37*
G36*
X146873512Y-108054127D02*
G01*
X147022812Y-108083824D01*
X147186784Y-108151744D01*
X147334354Y-108250347D01*
X147459853Y-108375846D01*
X147558456Y-108523416D01*
X147626376Y-108687388D01*
X147661000Y-108861459D01*
X147661000Y-109038941D01*
X147626376Y-109213012D01*
X147558456Y-109376984D01*
X147459853Y-109524554D01*
X147334354Y-109650053D01*
X147186784Y-109748656D01*
X147022812Y-109816576D01*
X146873512Y-109846273D01*
X146848742Y-109851200D01*
X146671258Y-109851200D01*
X146646488Y-109846273D01*
X146497188Y-109816576D01*
X146333216Y-109748656D01*
X146185646Y-109650053D01*
X146060147Y-109524554D01*
X145961544Y-109376984D01*
X145893624Y-109213012D01*
X145859000Y-109038941D01*
X145859000Y-108861459D01*
X145893624Y-108687388D01*
X145961544Y-108523416D01*
X146060147Y-108375846D01*
X146185646Y-108250347D01*
X146333216Y-108151744D01*
X146497188Y-108083824D01*
X146646488Y-108054127D01*
X146671258Y-108049200D01*
X146848742Y-108049200D01*
X146873512Y-108054127D01*
G37*
G36*
X149413512Y-108054127D02*
G01*
X149562812Y-108083824D01*
X149726784Y-108151744D01*
X149874354Y-108250347D01*
X149999853Y-108375846D01*
X150098456Y-108523416D01*
X150166376Y-108687388D01*
X150201000Y-108861459D01*
X150201000Y-109038941D01*
X150166376Y-109213012D01*
X150098456Y-109376984D01*
X149999853Y-109524554D01*
X149874354Y-109650053D01*
X149726784Y-109748656D01*
X149562812Y-109816576D01*
X149413512Y-109846273D01*
X149388742Y-109851200D01*
X149211258Y-109851200D01*
X149186488Y-109846273D01*
X149037188Y-109816576D01*
X148873216Y-109748656D01*
X148725646Y-109650053D01*
X148600147Y-109524554D01*
X148501544Y-109376984D01*
X148433624Y-109213012D01*
X148399000Y-109038941D01*
X148399000Y-108861459D01*
X148433624Y-108687388D01*
X148501544Y-108523416D01*
X148600147Y-108375846D01*
X148725646Y-108250347D01*
X148873216Y-108151744D01*
X149037188Y-108083824D01*
X149186488Y-108054127D01*
X149211258Y-108049200D01*
X149388742Y-108049200D01*
X149413512Y-108054127D01*
G37*
G36*
X163989328Y-106854403D02*
G01*
X164144200Y-106918553D01*
X164283581Y-107011685D01*
X164402115Y-107130219D01*
X164495247Y-107269600D01*
X164559397Y-107424472D01*
X164592100Y-107588884D01*
X164592100Y-107756516D01*
X164559397Y-107920928D01*
X164495247Y-108075800D01*
X164402115Y-108215181D01*
X164283581Y-108333715D01*
X164144200Y-108426847D01*
X163989328Y-108490997D01*
X163824916Y-108523700D01*
X163657284Y-108523700D01*
X163492872Y-108490997D01*
X163338000Y-108426847D01*
X163198619Y-108333715D01*
X163080085Y-108215181D01*
X162986953Y-108075800D01*
X162922803Y-107920928D01*
X162890100Y-107756516D01*
X162890100Y-107588884D01*
X162922803Y-107424472D01*
X162986953Y-107269600D01*
X163080085Y-107130219D01*
X163198619Y-107011685D01*
X163338000Y-106918553D01*
X163492872Y-106854403D01*
X163657284Y-106821700D01*
X163824916Y-106821700D01*
X163989328Y-106854403D01*
G37*
G36*
X156369328Y-106854403D02*
G01*
X156524200Y-106918553D01*
X156663581Y-107011685D01*
X156782115Y-107130219D01*
X156875247Y-107269600D01*
X156939397Y-107424472D01*
X156972100Y-107588884D01*
X156972100Y-107756516D01*
X156939397Y-107920928D01*
X156875247Y-108075800D01*
X156782115Y-108215181D01*
X156663581Y-108333715D01*
X156524200Y-108426847D01*
X156369328Y-108490997D01*
X156204916Y-108523700D01*
X156037284Y-108523700D01*
X155872872Y-108490997D01*
X155718000Y-108426847D01*
X155578619Y-108333715D01*
X155460085Y-108215181D01*
X155366953Y-108075800D01*
X155302803Y-107920928D01*
X155270100Y-107756516D01*
X155270100Y-107588884D01*
X155302803Y-107424472D01*
X155366953Y-107269600D01*
X155460085Y-107130219D01*
X155578619Y-107011685D01*
X155718000Y-106918553D01*
X155872872Y-106854403D01*
X156037284Y-106821700D01*
X156204916Y-106821700D01*
X156369328Y-106854403D01*
G37*
G36*
X146873512Y-105514127D02*
G01*
X147022812Y-105543824D01*
X147186784Y-105611744D01*
X147334354Y-105710347D01*
X147459853Y-105835846D01*
X147558456Y-105983416D01*
X147626376Y-106147388D01*
X147661000Y-106321459D01*
X147661000Y-106498941D01*
X147626376Y-106673012D01*
X147558456Y-106836984D01*
X147459853Y-106984554D01*
X147334354Y-107110053D01*
X147186784Y-107208656D01*
X147022812Y-107276576D01*
X146873512Y-107306273D01*
X146848742Y-107311200D01*
X146671258Y-107311200D01*
X146646488Y-107306273D01*
X146497188Y-107276576D01*
X146333216Y-107208656D01*
X146185646Y-107110053D01*
X146060147Y-106984554D01*
X145961544Y-106836984D01*
X145893624Y-106673012D01*
X145859000Y-106498941D01*
X145859000Y-106321459D01*
X145893624Y-106147388D01*
X145961544Y-105983416D01*
X146060147Y-105835846D01*
X146185646Y-105710347D01*
X146333216Y-105611744D01*
X146497188Y-105543824D01*
X146646488Y-105514127D01*
X146671258Y-105509200D01*
X146848742Y-105509200D01*
X146873512Y-105514127D01*
G37*
G36*
X149413512Y-105514127D02*
G01*
X149562812Y-105543824D01*
X149726784Y-105611744D01*
X149874354Y-105710347D01*
X149999853Y-105835846D01*
X150098456Y-105983416D01*
X150166376Y-106147388D01*
X150201000Y-106321459D01*
X150201000Y-106498941D01*
X150166376Y-106673012D01*
X150098456Y-106836984D01*
X149999853Y-106984554D01*
X149874354Y-107110053D01*
X149726784Y-107208656D01*
X149562812Y-107276576D01*
X149413512Y-107306273D01*
X149388742Y-107311200D01*
X149211258Y-107311200D01*
X149186488Y-107306273D01*
X149037188Y-107276576D01*
X148873216Y-107208656D01*
X148725646Y-107110053D01*
X148600147Y-106984554D01*
X148501544Y-106836984D01*
X148433624Y-106673012D01*
X148399000Y-106498941D01*
X148399000Y-106321459D01*
X148433624Y-106147388D01*
X148501544Y-105983416D01*
X148600147Y-105835846D01*
X148725646Y-105710347D01*
X148873216Y-105611744D01*
X149037188Y-105543824D01*
X149186488Y-105514127D01*
X149211258Y-105509200D01*
X149388742Y-105509200D01*
X149413512Y-105514127D01*
G37*
G36*
X163989328Y-104314403D02*
G01*
X164144200Y-104378553D01*
X164283581Y-104471685D01*
X164402115Y-104590219D01*
X164495247Y-104729600D01*
X164559397Y-104884472D01*
X164592100Y-105048884D01*
X164592100Y-105216516D01*
X164559397Y-105380928D01*
X164495247Y-105535800D01*
X164402115Y-105675181D01*
X164283581Y-105793715D01*
X164144200Y-105886847D01*
X163989328Y-105950997D01*
X163824916Y-105983700D01*
X163657284Y-105983700D01*
X163492872Y-105950997D01*
X163338000Y-105886847D01*
X163198619Y-105793715D01*
X163080085Y-105675181D01*
X162986953Y-105535800D01*
X162922803Y-105380928D01*
X162890100Y-105216516D01*
X162890100Y-105048884D01*
X162922803Y-104884472D01*
X162986953Y-104729600D01*
X163080085Y-104590219D01*
X163198619Y-104471685D01*
X163338000Y-104378553D01*
X163492872Y-104314403D01*
X163657284Y-104281700D01*
X163824916Y-104281700D01*
X163989328Y-104314403D01*
G37*
G36*
X156369328Y-104314403D02*
G01*
X156524200Y-104378553D01*
X156663581Y-104471685D01*
X156782115Y-104590219D01*
X156875247Y-104729600D01*
X156939397Y-104884472D01*
X156972100Y-105048884D01*
X156972100Y-105216516D01*
X156939397Y-105380928D01*
X156875247Y-105535800D01*
X156782115Y-105675181D01*
X156663581Y-105793715D01*
X156524200Y-105886847D01*
X156369328Y-105950997D01*
X156204916Y-105983700D01*
X156037284Y-105983700D01*
X155872872Y-105950997D01*
X155718000Y-105886847D01*
X155578619Y-105793715D01*
X155460085Y-105675181D01*
X155366953Y-105535800D01*
X155302803Y-105380928D01*
X155270100Y-105216516D01*
X155270100Y-105048884D01*
X155302803Y-104884472D01*
X155366953Y-104729600D01*
X155460085Y-104590219D01*
X155578619Y-104471685D01*
X155718000Y-104378553D01*
X155872872Y-104314403D01*
X156037284Y-104281700D01*
X156204916Y-104281700D01*
X156369328Y-104314403D01*
G37*
G36*
X146873512Y-102974127D02*
G01*
X147022812Y-103003824D01*
X147186784Y-103071744D01*
X147334354Y-103170347D01*
X147459853Y-103295846D01*
X147558456Y-103443416D01*
X147626376Y-103607388D01*
X147661000Y-103781459D01*
X147661000Y-103958941D01*
X147626376Y-104133012D01*
X147558456Y-104296984D01*
X147459853Y-104444554D01*
X147334354Y-104570053D01*
X147186784Y-104668656D01*
X147022812Y-104736576D01*
X146873512Y-104766273D01*
X146848742Y-104771200D01*
X146671258Y-104771200D01*
X146646488Y-104766273D01*
X146497188Y-104736576D01*
X146333216Y-104668656D01*
X146185646Y-104570053D01*
X146060147Y-104444554D01*
X145961544Y-104296984D01*
X145893624Y-104133012D01*
X145859000Y-103958941D01*
X145859000Y-103781459D01*
X145893624Y-103607388D01*
X145961544Y-103443416D01*
X146060147Y-103295846D01*
X146185646Y-103170347D01*
X146333216Y-103071744D01*
X146497188Y-103003824D01*
X146646488Y-102974127D01*
X146671258Y-102969200D01*
X146848742Y-102969200D01*
X146873512Y-102974127D01*
G37*
G36*
X149413512Y-102974127D02*
G01*
X149562812Y-103003824D01*
X149726784Y-103071744D01*
X149874354Y-103170347D01*
X149999853Y-103295846D01*
X150098456Y-103443416D01*
X150166376Y-103607388D01*
X150201000Y-103781459D01*
X150201000Y-103958941D01*
X150166376Y-104133012D01*
X150098456Y-104296984D01*
X149999853Y-104444554D01*
X149874354Y-104570053D01*
X149726784Y-104668656D01*
X149562812Y-104736576D01*
X149413512Y-104766273D01*
X149388742Y-104771200D01*
X149211258Y-104771200D01*
X149186488Y-104766273D01*
X149037188Y-104736576D01*
X148873216Y-104668656D01*
X148725646Y-104570053D01*
X148600147Y-104444554D01*
X148501544Y-104296984D01*
X148433624Y-104133012D01*
X148399000Y-103958941D01*
X148399000Y-103781459D01*
X148433624Y-103607388D01*
X148501544Y-103443416D01*
X148600147Y-103295846D01*
X148725646Y-103170347D01*
X148873216Y-103071744D01*
X149037188Y-103003824D01*
X149186488Y-102974127D01*
X149211258Y-102969200D01*
X149388742Y-102969200D01*
X149413512Y-102974127D01*
G37*
G36*
X163989328Y-101774403D02*
G01*
X164144200Y-101838553D01*
X164283581Y-101931685D01*
X164402115Y-102050219D01*
X164495247Y-102189600D01*
X164559397Y-102344472D01*
X164592100Y-102508884D01*
X164592100Y-102676516D01*
X164559397Y-102840928D01*
X164495247Y-102995800D01*
X164402115Y-103135181D01*
X164283581Y-103253715D01*
X164144200Y-103346847D01*
X163989328Y-103410997D01*
X163824916Y-103443700D01*
X163657284Y-103443700D01*
X163492872Y-103410997D01*
X163338000Y-103346847D01*
X163198619Y-103253715D01*
X163080085Y-103135181D01*
X162986953Y-102995800D01*
X162922803Y-102840928D01*
X162890100Y-102676516D01*
X162890100Y-102508884D01*
X162922803Y-102344472D01*
X162986953Y-102189600D01*
X163080085Y-102050219D01*
X163198619Y-101931685D01*
X163338000Y-101838553D01*
X163492872Y-101774403D01*
X163657284Y-101741700D01*
X163824916Y-101741700D01*
X163989328Y-101774403D01*
G37*
G36*
X156369328Y-101774403D02*
G01*
X156524200Y-101838553D01*
X156663581Y-101931685D01*
X156782115Y-102050219D01*
X156875247Y-102189600D01*
X156939397Y-102344472D01*
X156972100Y-102508884D01*
X156972100Y-102676516D01*
X156939397Y-102840928D01*
X156875247Y-102995800D01*
X156782115Y-103135181D01*
X156663581Y-103253715D01*
X156524200Y-103346847D01*
X156369328Y-103410997D01*
X156204916Y-103443700D01*
X156037284Y-103443700D01*
X155872872Y-103410997D01*
X155718000Y-103346847D01*
X155578619Y-103253715D01*
X155460085Y-103135181D01*
X155366953Y-102995800D01*
X155302803Y-102840928D01*
X155270100Y-102676516D01*
X155270100Y-102508884D01*
X155302803Y-102344472D01*
X155366953Y-102189600D01*
X155460085Y-102050219D01*
X155578619Y-101931685D01*
X155718000Y-101838553D01*
X155872872Y-101774403D01*
X156037284Y-101741700D01*
X156204916Y-101741700D01*
X156369328Y-101774403D01*
G37*
G36*
X146873512Y-100434127D02*
G01*
X147022812Y-100463824D01*
X147186784Y-100531744D01*
X147334354Y-100630347D01*
X147459853Y-100755846D01*
X147558456Y-100903416D01*
X147626376Y-101067388D01*
X147661000Y-101241459D01*
X147661000Y-101418941D01*
X147626376Y-101593012D01*
X147558456Y-101756984D01*
X147459853Y-101904554D01*
X147334354Y-102030053D01*
X147186784Y-102128656D01*
X147022812Y-102196576D01*
X146873512Y-102226273D01*
X146848742Y-102231200D01*
X146671258Y-102231200D01*
X146646488Y-102226273D01*
X146497188Y-102196576D01*
X146333216Y-102128656D01*
X146185646Y-102030053D01*
X146060147Y-101904554D01*
X145961544Y-101756984D01*
X145893624Y-101593012D01*
X145859000Y-101418941D01*
X145859000Y-101241459D01*
X145893624Y-101067388D01*
X145961544Y-100903416D01*
X146060147Y-100755846D01*
X146185646Y-100630347D01*
X146333216Y-100531744D01*
X146497188Y-100463824D01*
X146646488Y-100434127D01*
X146671258Y-100429200D01*
X146848742Y-100429200D01*
X146873512Y-100434127D01*
G37*
G36*
X149413512Y-100434127D02*
G01*
X149562812Y-100463824D01*
X149726784Y-100531744D01*
X149874354Y-100630347D01*
X149999853Y-100755846D01*
X150098456Y-100903416D01*
X150166376Y-101067388D01*
X150201000Y-101241459D01*
X150201000Y-101418941D01*
X150166376Y-101593012D01*
X150098456Y-101756984D01*
X149999853Y-101904554D01*
X149874354Y-102030053D01*
X149726784Y-102128656D01*
X149562812Y-102196576D01*
X149413512Y-102226273D01*
X149388742Y-102231200D01*
X149211258Y-102231200D01*
X149186488Y-102226273D01*
X149037188Y-102196576D01*
X148873216Y-102128656D01*
X148725646Y-102030053D01*
X148600147Y-101904554D01*
X148501544Y-101756984D01*
X148433624Y-101593012D01*
X148399000Y-101418941D01*
X148399000Y-101241459D01*
X148433624Y-101067388D01*
X148501544Y-100903416D01*
X148600147Y-100755846D01*
X148725646Y-100630347D01*
X148873216Y-100531744D01*
X149037188Y-100463824D01*
X149186488Y-100434127D01*
X149211258Y-100429200D01*
X149388742Y-100429200D01*
X149413512Y-100434127D01*
G37*
G36*
X143751000Y-101551200D02*
G01*
X141649000Y-101551200D01*
X141649000Y-99449200D01*
X143751000Y-99449200D01*
X143751000Y-101551200D01*
G37*
G36*
X163989328Y-99234403D02*
G01*
X164144200Y-99298553D01*
X164283581Y-99391685D01*
X164402115Y-99510219D01*
X164495247Y-99649600D01*
X164559397Y-99804472D01*
X164592100Y-99968884D01*
X164592100Y-100136516D01*
X164559397Y-100300928D01*
X164495247Y-100455800D01*
X164402115Y-100595181D01*
X164283581Y-100713715D01*
X164144200Y-100806847D01*
X163989328Y-100870997D01*
X163824916Y-100903700D01*
X163657284Y-100903700D01*
X163492872Y-100870997D01*
X163338000Y-100806847D01*
X163198619Y-100713715D01*
X163080085Y-100595181D01*
X162986953Y-100455800D01*
X162922803Y-100300928D01*
X162890100Y-100136516D01*
X162890100Y-99968884D01*
X162922803Y-99804472D01*
X162986953Y-99649600D01*
X163080085Y-99510219D01*
X163198619Y-99391685D01*
X163338000Y-99298553D01*
X163492872Y-99234403D01*
X163657284Y-99201700D01*
X163824916Y-99201700D01*
X163989328Y-99234403D01*
G37*
G36*
X156369328Y-99234403D02*
G01*
X156524200Y-99298553D01*
X156663581Y-99391685D01*
X156782115Y-99510219D01*
X156875247Y-99649600D01*
X156939397Y-99804472D01*
X156972100Y-99968884D01*
X156972100Y-100136516D01*
X156939397Y-100300928D01*
X156875247Y-100455800D01*
X156782115Y-100595181D01*
X156663581Y-100713715D01*
X156524200Y-100806847D01*
X156369328Y-100870997D01*
X156204916Y-100903700D01*
X156037284Y-100903700D01*
X155872872Y-100870997D01*
X155718000Y-100806847D01*
X155578619Y-100713715D01*
X155460085Y-100595181D01*
X155366953Y-100455800D01*
X155302803Y-100300928D01*
X155270100Y-100136516D01*
X155270100Y-99968884D01*
X155302803Y-99804472D01*
X155366953Y-99649600D01*
X155460085Y-99510219D01*
X155578619Y-99391685D01*
X155718000Y-99298553D01*
X155872872Y-99234403D01*
X156037284Y-99201700D01*
X156204916Y-99201700D01*
X156369328Y-99234403D01*
G37*
G36*
X149413512Y-97894127D02*
G01*
X149562812Y-97923824D01*
X149726784Y-97991744D01*
X149874354Y-98090347D01*
X149999853Y-98215846D01*
X150098456Y-98363416D01*
X150166376Y-98527388D01*
X150201000Y-98701459D01*
X150201000Y-98878941D01*
X150166376Y-99053012D01*
X150098456Y-99216984D01*
X149999853Y-99364554D01*
X149874354Y-99490053D01*
X149726784Y-99588656D01*
X149562812Y-99656576D01*
X149413512Y-99686273D01*
X149388742Y-99691200D01*
X149211258Y-99691200D01*
X149186488Y-99686273D01*
X149037188Y-99656576D01*
X148873216Y-99588656D01*
X148725646Y-99490053D01*
X148600147Y-99364554D01*
X148501544Y-99216984D01*
X148433624Y-99053012D01*
X148399000Y-98878941D01*
X148399000Y-98701459D01*
X148433624Y-98527388D01*
X148501544Y-98363416D01*
X148600147Y-98215846D01*
X148725646Y-98090347D01*
X148873216Y-97991744D01*
X149037188Y-97923824D01*
X149186488Y-97894127D01*
X149211258Y-97889200D01*
X149388742Y-97889200D01*
X149413512Y-97894127D01*
G37*
G36*
X146873512Y-97894127D02*
G01*
X147022812Y-97923824D01*
X147186784Y-97991744D01*
X147334354Y-98090347D01*
X147459853Y-98215846D01*
X147558456Y-98363416D01*
X147626376Y-98527388D01*
X147661000Y-98701459D01*
X147661000Y-98878941D01*
X147626376Y-99053012D01*
X147558456Y-99216984D01*
X147459853Y-99364554D01*
X147334354Y-99490053D01*
X147186784Y-99588656D01*
X147022812Y-99656576D01*
X146873512Y-99686273D01*
X146848742Y-99691200D01*
X146671258Y-99691200D01*
X146646488Y-99686273D01*
X146497188Y-99656576D01*
X146333216Y-99588656D01*
X146185646Y-99490053D01*
X146060147Y-99364554D01*
X145961544Y-99216984D01*
X145893624Y-99053012D01*
X145859000Y-98878941D01*
X145859000Y-98701459D01*
X145893624Y-98527388D01*
X145961544Y-98363416D01*
X146060147Y-98215846D01*
X146185646Y-98090347D01*
X146333216Y-97991744D01*
X146497188Y-97923824D01*
X146646488Y-97894127D01*
X146671258Y-97889200D01*
X146848742Y-97889200D01*
X146873512Y-97894127D01*
G37*
G36*
X163989328Y-96694403D02*
G01*
X164144200Y-96758553D01*
X164283581Y-96851685D01*
X164402115Y-96970219D01*
X164495247Y-97109600D01*
X164559397Y-97264472D01*
X164592100Y-97428884D01*
X164592100Y-97596516D01*
X164559397Y-97760928D01*
X164495247Y-97915800D01*
X164402115Y-98055181D01*
X164283581Y-98173715D01*
X164144200Y-98266847D01*
X163989328Y-98330997D01*
X163824916Y-98363700D01*
X163657284Y-98363700D01*
X163492872Y-98330997D01*
X163338000Y-98266847D01*
X163198619Y-98173715D01*
X163080085Y-98055181D01*
X162986953Y-97915800D01*
X162922803Y-97760928D01*
X162890100Y-97596516D01*
X162890100Y-97428884D01*
X162922803Y-97264472D01*
X162986953Y-97109600D01*
X163080085Y-96970219D01*
X163198619Y-96851685D01*
X163338000Y-96758553D01*
X163492872Y-96694403D01*
X163657284Y-96661700D01*
X163824916Y-96661700D01*
X163989328Y-96694403D01*
G37*
G36*
X156369328Y-96694403D02*
G01*
X156524200Y-96758553D01*
X156663581Y-96851685D01*
X156782115Y-96970219D01*
X156875247Y-97109600D01*
X156939397Y-97264472D01*
X156972100Y-97428884D01*
X156972100Y-97596516D01*
X156939397Y-97760928D01*
X156875247Y-97915800D01*
X156782115Y-98055181D01*
X156663581Y-98173715D01*
X156524200Y-98266847D01*
X156369328Y-98330997D01*
X156204916Y-98363700D01*
X156037284Y-98363700D01*
X155872872Y-98330997D01*
X155718000Y-98266847D01*
X155578619Y-98173715D01*
X155460085Y-98055181D01*
X155366953Y-97915800D01*
X155302803Y-97760928D01*
X155270100Y-97596516D01*
X155270100Y-97428884D01*
X155302803Y-97264472D01*
X155366953Y-97109600D01*
X155460085Y-96970219D01*
X155578619Y-96851685D01*
X155718000Y-96758553D01*
X155872872Y-96694403D01*
X156037284Y-96661700D01*
X156204916Y-96661700D01*
X156369328Y-96694403D01*
G37*
G36*
X161441474Y-96766165D02*
G01*
X161479167Y-96777599D01*
X161513903Y-96796166D01*
X161544348Y-96821152D01*
X161569334Y-96851597D01*
X161587901Y-96886333D01*
X161599335Y-96924026D01*
X161603800Y-96969361D01*
X161603800Y-98056039D01*
X161599335Y-98101374D01*
X161587901Y-98139067D01*
X161569334Y-98173803D01*
X161544348Y-98204248D01*
X161513903Y-98229234D01*
X161479167Y-98247801D01*
X161441474Y-98259235D01*
X161396139Y-98263700D01*
X160559461Y-98263700D01*
X160514126Y-98259235D01*
X160476433Y-98247801D01*
X160441697Y-98229234D01*
X160411252Y-98204248D01*
X160386266Y-98173803D01*
X160367699Y-98139067D01*
X160356265Y-98101374D01*
X160351800Y-98056039D01*
X160351800Y-96969361D01*
X160356265Y-96924026D01*
X160367699Y-96886333D01*
X160386266Y-96851597D01*
X160411252Y-96821152D01*
X160441697Y-96796166D01*
X160476433Y-96777599D01*
X160514126Y-96766165D01*
X160559461Y-96761700D01*
X161396139Y-96761700D01*
X161441474Y-96766165D01*
G37*
G36*
X159391474Y-96766165D02*
G01*
X159429167Y-96777599D01*
X159463903Y-96796166D01*
X159494348Y-96821152D01*
X159519334Y-96851597D01*
X159537901Y-96886333D01*
X159549335Y-96924026D01*
X159553800Y-96969361D01*
X159553800Y-98056039D01*
X159549335Y-98101374D01*
X159537901Y-98139067D01*
X159519334Y-98173803D01*
X159494348Y-98204248D01*
X159463903Y-98229234D01*
X159429167Y-98247801D01*
X159391474Y-98259235D01*
X159346139Y-98263700D01*
X158509461Y-98263700D01*
X158464126Y-98259235D01*
X158426433Y-98247801D01*
X158391697Y-98229234D01*
X158361252Y-98204248D01*
X158336266Y-98173803D01*
X158317699Y-98139067D01*
X158306265Y-98101374D01*
X158301800Y-98056039D01*
X158301800Y-96969361D01*
X158306265Y-96924026D01*
X158317699Y-96886333D01*
X158336266Y-96851597D01*
X158361252Y-96821152D01*
X158391697Y-96796166D01*
X158426433Y-96777599D01*
X158464126Y-96766165D01*
X158509461Y-96761700D01*
X159346139Y-96761700D01*
X159391474Y-96766165D01*
G37*
G36*
X149413512Y-95354127D02*
G01*
X149562812Y-95383824D01*
X149726784Y-95451744D01*
X149874354Y-95550347D01*
X149999853Y-95675846D01*
X150098456Y-95823416D01*
X150166376Y-95987388D01*
X150201000Y-96161459D01*
X150201000Y-96338941D01*
X150166376Y-96513012D01*
X150098456Y-96676984D01*
X149999853Y-96824554D01*
X149874354Y-96950053D01*
X149726784Y-97048656D01*
X149562812Y-97116576D01*
X149413512Y-97146273D01*
X149388742Y-97151200D01*
X149211258Y-97151200D01*
X149186488Y-97146273D01*
X149037188Y-97116576D01*
X148873216Y-97048656D01*
X148725646Y-96950053D01*
X148600147Y-96824554D01*
X148501544Y-96676984D01*
X148433624Y-96513012D01*
X148399000Y-96338941D01*
X148399000Y-96161459D01*
X148433624Y-95987388D01*
X148501544Y-95823416D01*
X148600147Y-95675846D01*
X148725646Y-95550347D01*
X148873216Y-95451744D01*
X149037188Y-95383824D01*
X149186488Y-95354127D01*
X149211258Y-95349200D01*
X149388742Y-95349200D01*
X149413512Y-95354127D01*
G37*
G36*
X146873512Y-95354127D02*
G01*
X147022812Y-95383824D01*
X147186784Y-95451744D01*
X147334354Y-95550347D01*
X147459853Y-95675846D01*
X147558456Y-95823416D01*
X147626376Y-95987388D01*
X147661000Y-96161459D01*
X147661000Y-96338941D01*
X147626376Y-96513012D01*
X147558456Y-96676984D01*
X147459853Y-96824554D01*
X147334354Y-96950053D01*
X147186784Y-97048656D01*
X147022812Y-97116576D01*
X146873512Y-97146273D01*
X146848742Y-97151200D01*
X146671258Y-97151200D01*
X146646488Y-97146273D01*
X146497188Y-97116576D01*
X146333216Y-97048656D01*
X146185646Y-96950053D01*
X146060147Y-96824554D01*
X145961544Y-96676984D01*
X145893624Y-96513012D01*
X145859000Y-96338941D01*
X145859000Y-96161459D01*
X145893624Y-95987388D01*
X145961544Y-95823416D01*
X146060147Y-95675846D01*
X146185646Y-95550347D01*
X146333216Y-95451744D01*
X146497188Y-95383824D01*
X146646488Y-95354127D01*
X146671258Y-95349200D01*
X146848742Y-95349200D01*
X146873512Y-95354127D01*
G37*
G36*
X156369328Y-94154403D02*
G01*
X156524200Y-94218553D01*
X156663581Y-94311685D01*
X156782115Y-94430219D01*
X156875247Y-94569600D01*
X156939397Y-94724472D01*
X156972100Y-94888884D01*
X156972100Y-95056516D01*
X156939397Y-95220928D01*
X156875247Y-95375800D01*
X156782115Y-95515181D01*
X156663581Y-95633715D01*
X156524200Y-95726847D01*
X156369328Y-95790997D01*
X156204916Y-95823700D01*
X156037284Y-95823700D01*
X155872872Y-95790997D01*
X155718000Y-95726847D01*
X155578619Y-95633715D01*
X155460085Y-95515181D01*
X155366953Y-95375800D01*
X155302803Y-95220928D01*
X155270100Y-95056516D01*
X155270100Y-94888884D01*
X155302803Y-94724472D01*
X155366953Y-94569600D01*
X155460085Y-94430219D01*
X155578619Y-94311685D01*
X155718000Y-94218553D01*
X155872872Y-94154403D01*
X156037284Y-94121700D01*
X156204916Y-94121700D01*
X156369328Y-94154403D01*
G37*
G36*
X163989328Y-94154403D02*
G01*
X164144200Y-94218553D01*
X164283581Y-94311685D01*
X164402115Y-94430219D01*
X164495247Y-94569600D01*
X164559397Y-94724472D01*
X164592100Y-94888884D01*
X164592100Y-95056516D01*
X164559397Y-95220928D01*
X164495247Y-95375800D01*
X164402115Y-95515181D01*
X164283581Y-95633715D01*
X164144200Y-95726847D01*
X163989328Y-95790997D01*
X163824916Y-95823700D01*
X163657284Y-95823700D01*
X163492872Y-95790997D01*
X163338000Y-95726847D01*
X163198619Y-95633715D01*
X163080085Y-95515181D01*
X162986953Y-95375800D01*
X162922803Y-95220928D01*
X162890100Y-95056516D01*
X162890100Y-94888884D01*
X162922803Y-94724472D01*
X162986953Y-94569600D01*
X163080085Y-94430219D01*
X163198619Y-94311685D01*
X163338000Y-94218553D01*
X163492872Y-94154403D01*
X163657284Y-94121700D01*
X163824916Y-94121700D01*
X163989328Y-94154403D01*
G37*
G36*
X143751000Y-95551200D02*
G01*
X141649000Y-95551200D01*
X141649000Y-93449200D01*
X143751000Y-93449200D01*
X143751000Y-95551200D01*
G37*
G36*
X146873512Y-92814127D02*
G01*
X147022812Y-92843824D01*
X147186784Y-92911744D01*
X147334354Y-93010347D01*
X147459853Y-93135846D01*
X147558456Y-93283416D01*
X147626376Y-93447388D01*
X147661000Y-93621459D01*
X147661000Y-93798941D01*
X147626376Y-93973012D01*
X147558456Y-94136984D01*
X147459853Y-94284554D01*
X147334354Y-94410053D01*
X147186784Y-94508656D01*
X147022812Y-94576576D01*
X146873512Y-94606273D01*
X146848742Y-94611200D01*
X146671258Y-94611200D01*
X146646488Y-94606273D01*
X146497188Y-94576576D01*
X146333216Y-94508656D01*
X146185646Y-94410053D01*
X146060147Y-94284554D01*
X145961544Y-94136984D01*
X145893624Y-93973012D01*
X145859000Y-93798941D01*
X145859000Y-93621459D01*
X145893624Y-93447388D01*
X145961544Y-93283416D01*
X146060147Y-93135846D01*
X146185646Y-93010347D01*
X146333216Y-92911744D01*
X146497188Y-92843824D01*
X146646488Y-92814127D01*
X146671258Y-92809200D01*
X146848742Y-92809200D01*
X146873512Y-92814127D01*
G37*
G36*
X149413512Y-92814127D02*
G01*
X149562812Y-92843824D01*
X149726784Y-92911744D01*
X149874354Y-93010347D01*
X149999853Y-93135846D01*
X150098456Y-93283416D01*
X150166376Y-93447388D01*
X150201000Y-93621459D01*
X150201000Y-93798941D01*
X150166376Y-93973012D01*
X150098456Y-94136984D01*
X149999853Y-94284554D01*
X149874354Y-94410053D01*
X149726784Y-94508656D01*
X149562812Y-94576576D01*
X149413512Y-94606273D01*
X149388742Y-94611200D01*
X149211258Y-94611200D01*
X149186488Y-94606273D01*
X149037188Y-94576576D01*
X148873216Y-94508656D01*
X148725646Y-94410053D01*
X148600147Y-94284554D01*
X148501544Y-94136984D01*
X148433624Y-93973012D01*
X148399000Y-93798941D01*
X148399000Y-93621459D01*
X148433624Y-93447388D01*
X148501544Y-93283416D01*
X148600147Y-93135846D01*
X148725646Y-93010347D01*
X148873216Y-92911744D01*
X149037188Y-92843824D01*
X149186488Y-92814127D01*
X149211258Y-92809200D01*
X149388742Y-92809200D01*
X149413512Y-92814127D01*
G37*
G36*
X163989328Y-91614403D02*
G01*
X164144200Y-91678553D01*
X164283581Y-91771685D01*
X164402115Y-91890219D01*
X164495247Y-92029600D01*
X164559397Y-92184472D01*
X164592100Y-92348884D01*
X164592100Y-92516516D01*
X164559397Y-92680928D01*
X164495247Y-92835800D01*
X164402115Y-92975181D01*
X164283581Y-93093715D01*
X164144200Y-93186847D01*
X163989328Y-93250997D01*
X163824916Y-93283700D01*
X163657284Y-93283700D01*
X163492872Y-93250997D01*
X163338000Y-93186847D01*
X163198619Y-93093715D01*
X163080085Y-92975181D01*
X162986953Y-92835800D01*
X162922803Y-92680928D01*
X162890100Y-92516516D01*
X162890100Y-92348884D01*
X162922803Y-92184472D01*
X162986953Y-92029600D01*
X163080085Y-91890219D01*
X163198619Y-91771685D01*
X163338000Y-91678553D01*
X163492872Y-91614403D01*
X163657284Y-91581700D01*
X163824916Y-91581700D01*
X163989328Y-91614403D01*
G37*
G36*
X156369328Y-91614403D02*
G01*
X156524200Y-91678553D01*
X156663581Y-91771685D01*
X156782115Y-91890219D01*
X156875247Y-92029600D01*
X156939397Y-92184472D01*
X156972100Y-92348884D01*
X156972100Y-92516516D01*
X156939397Y-92680928D01*
X156875247Y-92835800D01*
X156782115Y-92975181D01*
X156663581Y-93093715D01*
X156524200Y-93186847D01*
X156369328Y-93250997D01*
X156204916Y-93283700D01*
X156037284Y-93283700D01*
X155872872Y-93250997D01*
X155718000Y-93186847D01*
X155578619Y-93093715D01*
X155460085Y-92975181D01*
X155366953Y-92835800D01*
X155302803Y-92680928D01*
X155270100Y-92516516D01*
X155270100Y-92348884D01*
X155302803Y-92184472D01*
X155366953Y-92029600D01*
X155460085Y-91890219D01*
X155578619Y-91771685D01*
X155718000Y-91678553D01*
X155872872Y-91614403D01*
X156037284Y-91581700D01*
X156204916Y-91581700D01*
X156369328Y-91614403D01*
G37*
G36*
X149413512Y-90274127D02*
G01*
X149562812Y-90303824D01*
X149726784Y-90371744D01*
X149874354Y-90470347D01*
X149999853Y-90595846D01*
X150098456Y-90743416D01*
X150166376Y-90907388D01*
X150201000Y-91081459D01*
X150201000Y-91258941D01*
X150166376Y-91433012D01*
X150098456Y-91596984D01*
X149999853Y-91744554D01*
X149874354Y-91870053D01*
X149726784Y-91968656D01*
X149562812Y-92036576D01*
X149413512Y-92066273D01*
X149388742Y-92071200D01*
X149211258Y-92071200D01*
X149186488Y-92066273D01*
X149037188Y-92036576D01*
X148873216Y-91968656D01*
X148725646Y-91870053D01*
X148600147Y-91744554D01*
X148501544Y-91596984D01*
X148433624Y-91433012D01*
X148399000Y-91258941D01*
X148399000Y-91081459D01*
X148433624Y-90907388D01*
X148501544Y-90743416D01*
X148600147Y-90595846D01*
X148725646Y-90470347D01*
X148873216Y-90371744D01*
X149037188Y-90303824D01*
X149186488Y-90274127D01*
X149211258Y-90269200D01*
X149388742Y-90269200D01*
X149413512Y-90274127D01*
G37*
G36*
X146873512Y-90274127D02*
G01*
X147022812Y-90303824D01*
X147186784Y-90371744D01*
X147334354Y-90470347D01*
X147459853Y-90595846D01*
X147558456Y-90743416D01*
X147626376Y-90907388D01*
X147661000Y-91081459D01*
X147661000Y-91258941D01*
X147626376Y-91433012D01*
X147558456Y-91596984D01*
X147459853Y-91744554D01*
X147334354Y-91870053D01*
X147186784Y-91968656D01*
X147022812Y-92036576D01*
X146873512Y-92066273D01*
X146848742Y-92071200D01*
X146671258Y-92071200D01*
X146646488Y-92066273D01*
X146497188Y-92036576D01*
X146333216Y-91968656D01*
X146185646Y-91870053D01*
X146060147Y-91744554D01*
X145961544Y-91596984D01*
X145893624Y-91433012D01*
X145859000Y-91258941D01*
X145859000Y-91081459D01*
X145893624Y-90907388D01*
X145961544Y-90743416D01*
X146060147Y-90595846D01*
X146185646Y-90470347D01*
X146333216Y-90371744D01*
X146497188Y-90303824D01*
X146646488Y-90274127D01*
X146671258Y-90269200D01*
X146848742Y-90269200D01*
X146873512Y-90274127D01*
G37*
G36*
X163989328Y-89074403D02*
G01*
X164144200Y-89138553D01*
X164283581Y-89231685D01*
X164402115Y-89350219D01*
X164495247Y-89489600D01*
X164559397Y-89644472D01*
X164592100Y-89808884D01*
X164592100Y-89976516D01*
X164559397Y-90140928D01*
X164495247Y-90295800D01*
X164402115Y-90435181D01*
X164283581Y-90553715D01*
X164144200Y-90646847D01*
X163989328Y-90710997D01*
X163824916Y-90743700D01*
X163657284Y-90743700D01*
X163492872Y-90710997D01*
X163338000Y-90646847D01*
X163198619Y-90553715D01*
X163080085Y-90435181D01*
X162986953Y-90295800D01*
X162922803Y-90140928D01*
X162890100Y-89976516D01*
X162890100Y-89808884D01*
X162922803Y-89644472D01*
X162986953Y-89489600D01*
X163080085Y-89350219D01*
X163198619Y-89231685D01*
X163338000Y-89138553D01*
X163492872Y-89074403D01*
X163657284Y-89041700D01*
X163824916Y-89041700D01*
X163989328Y-89074403D01*
G37*
G36*
X156369328Y-89074403D02*
G01*
X156524200Y-89138553D01*
X156663581Y-89231685D01*
X156782115Y-89350219D01*
X156875247Y-89489600D01*
X156939397Y-89644472D01*
X156972100Y-89808884D01*
X156972100Y-89976516D01*
X156939397Y-90140928D01*
X156875247Y-90295800D01*
X156782115Y-90435181D01*
X156663581Y-90553715D01*
X156524200Y-90646847D01*
X156369328Y-90710997D01*
X156204916Y-90743700D01*
X156037284Y-90743700D01*
X155872872Y-90710997D01*
X155718000Y-90646847D01*
X155578619Y-90553715D01*
X155460085Y-90435181D01*
X155366953Y-90295800D01*
X155302803Y-90140928D01*
X155270100Y-89976516D01*
X155270100Y-89808884D01*
X155302803Y-89644472D01*
X155366953Y-89489600D01*
X155460085Y-89350219D01*
X155578619Y-89231685D01*
X155718000Y-89138553D01*
X155872872Y-89074403D01*
X156037284Y-89041700D01*
X156204916Y-89041700D01*
X156369328Y-89074403D01*
G37*
G36*
X149413512Y-87734127D02*
G01*
X149562812Y-87763824D01*
X149726784Y-87831744D01*
X149874354Y-87930347D01*
X149999853Y-88055846D01*
X150098456Y-88203416D01*
X150166376Y-88367388D01*
X150201000Y-88541459D01*
X150201000Y-88718941D01*
X150166376Y-88893012D01*
X150098456Y-89056984D01*
X149999853Y-89204554D01*
X149874354Y-89330053D01*
X149726784Y-89428656D01*
X149562812Y-89496576D01*
X149413512Y-89526273D01*
X149388742Y-89531200D01*
X149211258Y-89531200D01*
X149186488Y-89526273D01*
X149037188Y-89496576D01*
X148873216Y-89428656D01*
X148725646Y-89330053D01*
X148600147Y-89204554D01*
X148501544Y-89056984D01*
X148433624Y-88893012D01*
X148399000Y-88718941D01*
X148399000Y-88541459D01*
X148433624Y-88367388D01*
X148501544Y-88203416D01*
X148600147Y-88055846D01*
X148725646Y-87930347D01*
X148873216Y-87831744D01*
X149037188Y-87763824D01*
X149186488Y-87734127D01*
X149211258Y-87729200D01*
X149388742Y-87729200D01*
X149413512Y-87734127D01*
G37*
G36*
X146873512Y-87734127D02*
G01*
X147022812Y-87763824D01*
X147186784Y-87831744D01*
X147334354Y-87930347D01*
X147459853Y-88055846D01*
X147558456Y-88203416D01*
X147626376Y-88367388D01*
X147661000Y-88541459D01*
X147661000Y-88718941D01*
X147626376Y-88893012D01*
X147558456Y-89056984D01*
X147459853Y-89204554D01*
X147334354Y-89330053D01*
X147186784Y-89428656D01*
X147022812Y-89496576D01*
X146873512Y-89526273D01*
X146848742Y-89531200D01*
X146671258Y-89531200D01*
X146646488Y-89526273D01*
X146497188Y-89496576D01*
X146333216Y-89428656D01*
X146185646Y-89330053D01*
X146060147Y-89204554D01*
X145961544Y-89056984D01*
X145893624Y-88893012D01*
X145859000Y-88718941D01*
X145859000Y-88541459D01*
X145893624Y-88367388D01*
X145961544Y-88203416D01*
X146060147Y-88055846D01*
X146185646Y-87930347D01*
X146333216Y-87831744D01*
X146497188Y-87763824D01*
X146646488Y-87734127D01*
X146671258Y-87729200D01*
X146848742Y-87729200D01*
X146873512Y-87734127D01*
G37*
G36*
X163989328Y-86534403D02*
G01*
X164144200Y-86598553D01*
X164283581Y-86691685D01*
X164402115Y-86810219D01*
X164495247Y-86949600D01*
X164559397Y-87104472D01*
X164592100Y-87268884D01*
X164592100Y-87436516D01*
X164559397Y-87600928D01*
X164495247Y-87755800D01*
X164402115Y-87895181D01*
X164283581Y-88013715D01*
X164144200Y-88106847D01*
X163989328Y-88170997D01*
X163824916Y-88203700D01*
X163657284Y-88203700D01*
X163492872Y-88170997D01*
X163338000Y-88106847D01*
X163198619Y-88013715D01*
X163080085Y-87895181D01*
X162986953Y-87755800D01*
X162922803Y-87600928D01*
X162890100Y-87436516D01*
X162890100Y-87268884D01*
X162922803Y-87104472D01*
X162986953Y-86949600D01*
X163080085Y-86810219D01*
X163198619Y-86691685D01*
X163338000Y-86598553D01*
X163492872Y-86534403D01*
X163657284Y-86501700D01*
X163824916Y-86501700D01*
X163989328Y-86534403D01*
G37*
G36*
X156369328Y-86534403D02*
G01*
X156524200Y-86598553D01*
X156663581Y-86691685D01*
X156782115Y-86810219D01*
X156875247Y-86949600D01*
X156939397Y-87104472D01*
X156972100Y-87268884D01*
X156972100Y-87436516D01*
X156939397Y-87600928D01*
X156875247Y-87755800D01*
X156782115Y-87895181D01*
X156663581Y-88013715D01*
X156524200Y-88106847D01*
X156369328Y-88170997D01*
X156204916Y-88203700D01*
X156037284Y-88203700D01*
X155872872Y-88170997D01*
X155718000Y-88106847D01*
X155578619Y-88013715D01*
X155460085Y-87895181D01*
X155366953Y-87755800D01*
X155302803Y-87600928D01*
X155270100Y-87436516D01*
X155270100Y-87268884D01*
X155302803Y-87104472D01*
X155366953Y-86949600D01*
X155460085Y-86810219D01*
X155578619Y-86691685D01*
X155718000Y-86598553D01*
X155872872Y-86534403D01*
X156037284Y-86501700D01*
X156204916Y-86501700D01*
X156369328Y-86534403D01*
G37*
G36*
X149413512Y-85194127D02*
G01*
X149562812Y-85223824D01*
X149726784Y-85291744D01*
X149874354Y-85390347D01*
X149999853Y-85515846D01*
X150098456Y-85663416D01*
X150166376Y-85827388D01*
X150201000Y-86001459D01*
X150201000Y-86178941D01*
X150166376Y-86353012D01*
X150098456Y-86516984D01*
X149999853Y-86664554D01*
X149874354Y-86790053D01*
X149726784Y-86888656D01*
X149562812Y-86956576D01*
X149413512Y-86986273D01*
X149388742Y-86991200D01*
X149211258Y-86991200D01*
X149186488Y-86986273D01*
X149037188Y-86956576D01*
X148873216Y-86888656D01*
X148725646Y-86790053D01*
X148600147Y-86664554D01*
X148501544Y-86516984D01*
X148433624Y-86353012D01*
X148399000Y-86178941D01*
X148399000Y-86001459D01*
X148433624Y-85827388D01*
X148501544Y-85663416D01*
X148600147Y-85515846D01*
X148725646Y-85390347D01*
X148873216Y-85291744D01*
X149037188Y-85223824D01*
X149186488Y-85194127D01*
X149211258Y-85189200D01*
X149388742Y-85189200D01*
X149413512Y-85194127D01*
G37*
G36*
X146873512Y-85194127D02*
G01*
X147022812Y-85223824D01*
X147186784Y-85291744D01*
X147334354Y-85390347D01*
X147459853Y-85515846D01*
X147558456Y-85663416D01*
X147626376Y-85827388D01*
X147661000Y-86001459D01*
X147661000Y-86178941D01*
X147626376Y-86353012D01*
X147558456Y-86516984D01*
X147459853Y-86664554D01*
X147334354Y-86790053D01*
X147186784Y-86888656D01*
X147022812Y-86956576D01*
X146873512Y-86986273D01*
X146848742Y-86991200D01*
X146671258Y-86991200D01*
X146646488Y-86986273D01*
X146497188Y-86956576D01*
X146333216Y-86888656D01*
X146185646Y-86790053D01*
X146060147Y-86664554D01*
X145961544Y-86516984D01*
X145893624Y-86353012D01*
X145859000Y-86178941D01*
X145859000Y-86001459D01*
X145893624Y-85827388D01*
X145961544Y-85663416D01*
X146060147Y-85515846D01*
X146185646Y-85390347D01*
X146333216Y-85291744D01*
X146497188Y-85223824D01*
X146646488Y-85194127D01*
X146671258Y-85189200D01*
X146848742Y-85189200D01*
X146873512Y-85194127D01*
G37*
G36*
X149413512Y-82654127D02*
G01*
X149562812Y-82683824D01*
X149726784Y-82751744D01*
X149874354Y-82850347D01*
X149999853Y-82975846D01*
X150098456Y-83123416D01*
X150166376Y-83287388D01*
X150201000Y-83461459D01*
X150201000Y-83638941D01*
X150166376Y-83813012D01*
X150098456Y-83976984D01*
X149999853Y-84124554D01*
X149874354Y-84250053D01*
X149726784Y-84348656D01*
X149562812Y-84416576D01*
X149413512Y-84446273D01*
X149388742Y-84451200D01*
X149211258Y-84451200D01*
X149186488Y-84446273D01*
X149037188Y-84416576D01*
X148873216Y-84348656D01*
X148725646Y-84250053D01*
X148600147Y-84124554D01*
X148501544Y-83976984D01*
X148433624Y-83813012D01*
X148399000Y-83638941D01*
X148399000Y-83461459D01*
X148433624Y-83287388D01*
X148501544Y-83123416D01*
X148600147Y-82975846D01*
X148725646Y-82850347D01*
X148873216Y-82751744D01*
X149037188Y-82683824D01*
X149186488Y-82654127D01*
X149211258Y-82649200D01*
X149388742Y-82649200D01*
X149413512Y-82654127D01*
G37*
G36*
X146873512Y-82654127D02*
G01*
X147022812Y-82683824D01*
X147186784Y-82751744D01*
X147334354Y-82850347D01*
X147459853Y-82975846D01*
X147558456Y-83123416D01*
X147626376Y-83287388D01*
X147661000Y-83461459D01*
X147661000Y-83638941D01*
X147626376Y-83813012D01*
X147558456Y-83976984D01*
X147459853Y-84124554D01*
X147334354Y-84250053D01*
X147186784Y-84348656D01*
X147022812Y-84416576D01*
X146873512Y-84446273D01*
X146848742Y-84451200D01*
X146671258Y-84451200D01*
X146646488Y-84446273D01*
X146497188Y-84416576D01*
X146333216Y-84348656D01*
X146185646Y-84250053D01*
X146060147Y-84124554D01*
X145961544Y-83976984D01*
X145893624Y-83813012D01*
X145859000Y-83638941D01*
X145859000Y-83461459D01*
X145893624Y-83287388D01*
X145961544Y-83123416D01*
X146060147Y-82975846D01*
X146185646Y-82850347D01*
X146333216Y-82751744D01*
X146497188Y-82683824D01*
X146646488Y-82654127D01*
X146671258Y-82649200D01*
X146848742Y-82649200D01*
X146873512Y-82654127D01*
G37*
G36*
X162673512Y-80119327D02*
G01*
X162822812Y-80149024D01*
X162986784Y-80216944D01*
X163134354Y-80315547D01*
X163259853Y-80441046D01*
X163358456Y-80588616D01*
X163426376Y-80752588D01*
X163456073Y-80901888D01*
X163459966Y-80921458D01*
X163461000Y-80926659D01*
X163461000Y-81104141D01*
X163426376Y-81278212D01*
X163358456Y-81442184D01*
X163259853Y-81589754D01*
X163134354Y-81715253D01*
X162986784Y-81813856D01*
X162822812Y-81881776D01*
X162674884Y-81911200D01*
X162648742Y-81916400D01*
X162471258Y-81916400D01*
X162445116Y-81911200D01*
X162297188Y-81881776D01*
X162133216Y-81813856D01*
X161985646Y-81715253D01*
X161860147Y-81589754D01*
X161761544Y-81442184D01*
X161693624Y-81278212D01*
X161659000Y-81104141D01*
X161659000Y-80926659D01*
X161660035Y-80921458D01*
X161663927Y-80901888D01*
X161693624Y-80752588D01*
X161761544Y-80588616D01*
X161860147Y-80441046D01*
X161985646Y-80315547D01*
X162133216Y-80216944D01*
X162297188Y-80149024D01*
X162446488Y-80119327D01*
X162471258Y-80114400D01*
X162648742Y-80114400D01*
X162673512Y-80119327D01*
G37*
G36*
X167753512Y-80119327D02*
G01*
X167902812Y-80149024D01*
X168066784Y-80216944D01*
X168214354Y-80315547D01*
X168339853Y-80441046D01*
X168438456Y-80588616D01*
X168506376Y-80752588D01*
X168536073Y-80901888D01*
X168539966Y-80921458D01*
X168541000Y-80926659D01*
X168541000Y-81104141D01*
X168506376Y-81278212D01*
X168438456Y-81442184D01*
X168339853Y-81589754D01*
X168214354Y-81715253D01*
X168066784Y-81813856D01*
X167902812Y-81881776D01*
X167754884Y-81911200D01*
X167728742Y-81916400D01*
X167551258Y-81916400D01*
X167525116Y-81911200D01*
X167377188Y-81881776D01*
X167213216Y-81813856D01*
X167065646Y-81715253D01*
X166940147Y-81589754D01*
X166841544Y-81442184D01*
X166773624Y-81278212D01*
X166739000Y-81104141D01*
X166739000Y-80926659D01*
X166740035Y-80921458D01*
X166743927Y-80901888D01*
X166773624Y-80752588D01*
X166841544Y-80588616D01*
X166940147Y-80441046D01*
X167065646Y-80315547D01*
X167213216Y-80216944D01*
X167377188Y-80149024D01*
X167526488Y-80119327D01*
X167551258Y-80114400D01*
X167728742Y-80114400D01*
X167753512Y-80119327D01*
G37*
G36*
X165213512Y-80119327D02*
G01*
X165362812Y-80149024D01*
X165526784Y-80216944D01*
X165674354Y-80315547D01*
X165799853Y-80441046D01*
X165898456Y-80588616D01*
X165966376Y-80752588D01*
X165996073Y-80901888D01*
X165999966Y-80921458D01*
X166001000Y-80926659D01*
X166001000Y-81104141D01*
X165966376Y-81278212D01*
X165898456Y-81442184D01*
X165799853Y-81589754D01*
X165674354Y-81715253D01*
X165526784Y-81813856D01*
X165362812Y-81881776D01*
X165214884Y-81911200D01*
X165188742Y-81916400D01*
X165011258Y-81916400D01*
X164985116Y-81911200D01*
X164837188Y-81881776D01*
X164673216Y-81813856D01*
X164525646Y-81715253D01*
X164400147Y-81589754D01*
X164301544Y-81442184D01*
X164233624Y-81278212D01*
X164199000Y-81104141D01*
X164199000Y-80926659D01*
X164200035Y-80921458D01*
X164203927Y-80901888D01*
X164233624Y-80752588D01*
X164301544Y-80588616D01*
X164400147Y-80441046D01*
X164525646Y-80315547D01*
X164673216Y-80216944D01*
X164837188Y-80149024D01*
X164986488Y-80119327D01*
X165011258Y-80114400D01*
X165188742Y-80114400D01*
X165213512Y-80119327D01*
G37*
G36*
X160133512Y-80119327D02*
G01*
X160282812Y-80149024D01*
X160446784Y-80216944D01*
X160594354Y-80315547D01*
X160719853Y-80441046D01*
X160818456Y-80588616D01*
X160886376Y-80752588D01*
X160916073Y-80901888D01*
X160919966Y-80921458D01*
X160921000Y-80926659D01*
X160921000Y-81104141D01*
X160886376Y-81278212D01*
X160818456Y-81442184D01*
X160719853Y-81589754D01*
X160594354Y-81715253D01*
X160446784Y-81813856D01*
X160282812Y-81881776D01*
X160134884Y-81911200D01*
X160108742Y-81916400D01*
X159931258Y-81916400D01*
X159905116Y-81911200D01*
X159757188Y-81881776D01*
X159593216Y-81813856D01*
X159445646Y-81715253D01*
X159320147Y-81589754D01*
X159221544Y-81442184D01*
X159153624Y-81278212D01*
X159119000Y-81104141D01*
X159119000Y-80926659D01*
X159120035Y-80921458D01*
X159123927Y-80901888D01*
X159153624Y-80752588D01*
X159221544Y-80588616D01*
X159320147Y-80441046D01*
X159445646Y-80315547D01*
X159593216Y-80216944D01*
X159757188Y-80149024D01*
X159906488Y-80119327D01*
X159931258Y-80114400D01*
X160108742Y-80114400D01*
X160133512Y-80119327D01*
G37*
G36*
X157593512Y-80119327D02*
G01*
X157742812Y-80149024D01*
X157906784Y-80216944D01*
X158054354Y-80315547D01*
X158179853Y-80441046D01*
X158278456Y-80588616D01*
X158346376Y-80752588D01*
X158376073Y-80901888D01*
X158379966Y-80921458D01*
X158381000Y-80926659D01*
X158381000Y-81104141D01*
X158346376Y-81278212D01*
X158278456Y-81442184D01*
X158179853Y-81589754D01*
X158054354Y-81715253D01*
X157906784Y-81813856D01*
X157742812Y-81881776D01*
X157594884Y-81911200D01*
X157568742Y-81916400D01*
X157391258Y-81916400D01*
X157365116Y-81911200D01*
X157217188Y-81881776D01*
X157053216Y-81813856D01*
X156905646Y-81715253D01*
X156780147Y-81589754D01*
X156681544Y-81442184D01*
X156613624Y-81278212D01*
X156579000Y-81104141D01*
X156579000Y-80926659D01*
X156580035Y-80921458D01*
X156583927Y-80901888D01*
X156613624Y-80752588D01*
X156681544Y-80588616D01*
X156780147Y-80441046D01*
X156905646Y-80315547D01*
X157053216Y-80216944D01*
X157217188Y-80149024D01*
X157366488Y-80119327D01*
X157391258Y-80114400D01*
X157568742Y-80114400D01*
X157593512Y-80119327D01*
G37*
G36*
X155053512Y-80119327D02*
G01*
X155202812Y-80149024D01*
X155366784Y-80216944D01*
X155514354Y-80315547D01*
X155639853Y-80441046D01*
X155738456Y-80588616D01*
X155806376Y-80752588D01*
X155836073Y-80901888D01*
X155839966Y-80921458D01*
X155841000Y-80926659D01*
X155841000Y-81104141D01*
X155806376Y-81278212D01*
X155738456Y-81442184D01*
X155639853Y-81589754D01*
X155514354Y-81715253D01*
X155366784Y-81813856D01*
X155202812Y-81881776D01*
X155054884Y-81911200D01*
X155028742Y-81916400D01*
X154851258Y-81916400D01*
X154825116Y-81911200D01*
X154677188Y-81881776D01*
X154513216Y-81813856D01*
X154365646Y-81715253D01*
X154240147Y-81589754D01*
X154141544Y-81442184D01*
X154073624Y-81278212D01*
X154039000Y-81104141D01*
X154039000Y-80926659D01*
X154040035Y-80921458D01*
X154043927Y-80901888D01*
X154073624Y-80752588D01*
X154141544Y-80588616D01*
X154240147Y-80441046D01*
X154365646Y-80315547D01*
X154513216Y-80216944D01*
X154677188Y-80149024D01*
X154826488Y-80119327D01*
X154851258Y-80114400D01*
X155028742Y-80114400D01*
X155053512Y-80119327D01*
G37*
G36*
X152513512Y-80119327D02*
G01*
X152662812Y-80149024D01*
X152826784Y-80216944D01*
X152974354Y-80315547D01*
X153099853Y-80441046D01*
X153198456Y-80588616D01*
X153266376Y-80752588D01*
X153296073Y-80901888D01*
X153299966Y-80921458D01*
X153301000Y-80926659D01*
X153301000Y-81104141D01*
X153266376Y-81278212D01*
X153198456Y-81442184D01*
X153099853Y-81589754D01*
X152974354Y-81715253D01*
X152826784Y-81813856D01*
X152662812Y-81881776D01*
X152514884Y-81911200D01*
X152488742Y-81916400D01*
X152311258Y-81916400D01*
X152285116Y-81911200D01*
X152137188Y-81881776D01*
X151973216Y-81813856D01*
X151825646Y-81715253D01*
X151700147Y-81589754D01*
X151601544Y-81442184D01*
X151533624Y-81278212D01*
X151499000Y-81104141D01*
X151499000Y-80926659D01*
X151500035Y-80921458D01*
X151503927Y-80901888D01*
X151533624Y-80752588D01*
X151601544Y-80588616D01*
X151700147Y-80441046D01*
X151825646Y-80315547D01*
X151973216Y-80216944D01*
X152137188Y-80149024D01*
X152286488Y-80119327D01*
X152311258Y-80114400D01*
X152488742Y-80114400D01*
X152513512Y-80119327D01*
G37*
G36*
X149413512Y-80114127D02*
G01*
X149562812Y-80143824D01*
X149726784Y-80211744D01*
X149874354Y-80310347D01*
X149999853Y-80435846D01*
X150098456Y-80583416D01*
X150166376Y-80747388D01*
X150196073Y-80896688D01*
X150201000Y-80921458D01*
X150201000Y-81098942D01*
X150196073Y-81123712D01*
X150166376Y-81273012D01*
X150098456Y-81436984D01*
X149999853Y-81584554D01*
X149874354Y-81710053D01*
X149726784Y-81808656D01*
X149562812Y-81876576D01*
X149413512Y-81906273D01*
X149388742Y-81911200D01*
X149211258Y-81911200D01*
X149186488Y-81906273D01*
X149037188Y-81876576D01*
X148873216Y-81808656D01*
X148725646Y-81710053D01*
X148600147Y-81584554D01*
X148501544Y-81436984D01*
X148433624Y-81273012D01*
X148403927Y-81123712D01*
X148399000Y-81098942D01*
X148399000Y-80921458D01*
X148403927Y-80896688D01*
X148433624Y-80747388D01*
X148501544Y-80583416D01*
X148600147Y-80435846D01*
X148725646Y-80310347D01*
X148873216Y-80211744D01*
X149037188Y-80143824D01*
X149186488Y-80114127D01*
X149211258Y-80109200D01*
X149388742Y-80109200D01*
X149413512Y-80114127D01*
G37*
G36*
X146873512Y-80114127D02*
G01*
X147022812Y-80143824D01*
X147186784Y-80211744D01*
X147334354Y-80310347D01*
X147459853Y-80435846D01*
X147558456Y-80583416D01*
X147626376Y-80747388D01*
X147656073Y-80896688D01*
X147661000Y-80921458D01*
X147661000Y-81098942D01*
X147656073Y-81123712D01*
X147626376Y-81273012D01*
X147558456Y-81436984D01*
X147459853Y-81584554D01*
X147334354Y-81710053D01*
X147186784Y-81808656D01*
X147022812Y-81876576D01*
X146873512Y-81906273D01*
X146848742Y-81911200D01*
X146671258Y-81911200D01*
X146646488Y-81906273D01*
X146497188Y-81876576D01*
X146333216Y-81808656D01*
X146185646Y-81710053D01*
X146060147Y-81584554D01*
X145961544Y-81436984D01*
X145893624Y-81273012D01*
X145863927Y-81123712D01*
X145859000Y-81098942D01*
X145859000Y-80921458D01*
X145863927Y-80896688D01*
X145893624Y-80747388D01*
X145961544Y-80583416D01*
X146060147Y-80435846D01*
X146185646Y-80310347D01*
X146333216Y-80211744D01*
X146497188Y-80143824D01*
X146646488Y-80114127D01*
X146671258Y-80109200D01*
X146848742Y-80109200D01*
X146873512Y-80114127D01*
G37*
G36*
X149413512Y-77574127D02*
G01*
X149562812Y-77603824D01*
X149726784Y-77671744D01*
X149874354Y-77770347D01*
X149999853Y-77895846D01*
X150098456Y-78043416D01*
X150166376Y-78207388D01*
X150201000Y-78381459D01*
X150201000Y-78558941D01*
X150166376Y-78733012D01*
X150098456Y-78896984D01*
X149999853Y-79044554D01*
X149874354Y-79170053D01*
X149726784Y-79268656D01*
X149562812Y-79336576D01*
X149413512Y-79366273D01*
X149388742Y-79371200D01*
X149211258Y-79371200D01*
X149186488Y-79366273D01*
X149037188Y-79336576D01*
X148873216Y-79268656D01*
X148725646Y-79170053D01*
X148600147Y-79044554D01*
X148501544Y-78896984D01*
X148433624Y-78733012D01*
X148399000Y-78558941D01*
X148399000Y-78381459D01*
X148433624Y-78207388D01*
X148501544Y-78043416D01*
X148600147Y-77895846D01*
X148725646Y-77770347D01*
X148873216Y-77671744D01*
X149037188Y-77603824D01*
X149186488Y-77574127D01*
X149211258Y-77569200D01*
X149388742Y-77569200D01*
X149413512Y-77574127D01*
G37*
G36*
X146873512Y-77574127D02*
G01*
X147022812Y-77603824D01*
X147186784Y-77671744D01*
X147334354Y-77770347D01*
X147459853Y-77895846D01*
X147558456Y-78043416D01*
X147626376Y-78207388D01*
X147661000Y-78381459D01*
X147661000Y-78558941D01*
X147626376Y-78733012D01*
X147558456Y-78896984D01*
X147459853Y-79044554D01*
X147334354Y-79170053D01*
X147186784Y-79268656D01*
X147022812Y-79336576D01*
X146873512Y-79366273D01*
X146848742Y-79371200D01*
X146671258Y-79371200D01*
X146646488Y-79366273D01*
X146497188Y-79336576D01*
X146333216Y-79268656D01*
X146185646Y-79170053D01*
X146060147Y-79044554D01*
X145961544Y-78896984D01*
X145893624Y-78733012D01*
X145859000Y-78558941D01*
X145859000Y-78381459D01*
X145893624Y-78207388D01*
X145961544Y-78043416D01*
X146060147Y-77895846D01*
X146185646Y-77770347D01*
X146333216Y-77671744D01*
X146497188Y-77603824D01*
X146646488Y-77574127D01*
X146671258Y-77569200D01*
X146848742Y-77569200D01*
X146873512Y-77574127D01*
G37*
G36*
X166432712Y-76283927D02*
G01*
X166582012Y-76313624D01*
X166745984Y-76381544D01*
X166893554Y-76480147D01*
X167019053Y-76605646D01*
X167117656Y-76753216D01*
X167185576Y-76917188D01*
X167220200Y-77091259D01*
X167220200Y-77268741D01*
X167185576Y-77442812D01*
X167117656Y-77606784D01*
X167019053Y-77754354D01*
X166893554Y-77879853D01*
X166745984Y-77978456D01*
X166582012Y-78046376D01*
X166432712Y-78076073D01*
X166407942Y-78081000D01*
X166230458Y-78081000D01*
X166205688Y-78076073D01*
X166056388Y-78046376D01*
X165892416Y-77978456D01*
X165744846Y-77879853D01*
X165619347Y-77754354D01*
X165520744Y-77606784D01*
X165452824Y-77442812D01*
X165418200Y-77268741D01*
X165418200Y-77091259D01*
X165452824Y-76917188D01*
X165520744Y-76753216D01*
X165619347Y-76605646D01*
X165744846Y-76480147D01*
X165892416Y-76381544D01*
X166056388Y-76313624D01*
X166205688Y-76283927D01*
X166230458Y-76279000D01*
X166407942Y-76279000D01*
X166432712Y-76283927D01*
G37*
G36*
X151192712Y-76283927D02*
G01*
X151342012Y-76313624D01*
X151505984Y-76381544D01*
X151653554Y-76480147D01*
X151779053Y-76605646D01*
X151877656Y-76753216D01*
X151945576Y-76917188D01*
X151980200Y-77091259D01*
X151980200Y-77268741D01*
X151945576Y-77442812D01*
X151877656Y-77606784D01*
X151779053Y-77754354D01*
X151653554Y-77879853D01*
X151505984Y-77978456D01*
X151342012Y-78046376D01*
X151192712Y-78076073D01*
X151167942Y-78081000D01*
X150990458Y-78081000D01*
X150965688Y-78076073D01*
X150816388Y-78046376D01*
X150652416Y-77978456D01*
X150504846Y-77879853D01*
X150379347Y-77754354D01*
X150280744Y-77606784D01*
X150212824Y-77442812D01*
X150178200Y-77268741D01*
X150178200Y-77091259D01*
X150212824Y-76917188D01*
X150280744Y-76753216D01*
X150379347Y-76605646D01*
X150504846Y-76480147D01*
X150652416Y-76381544D01*
X150816388Y-76313624D01*
X150965688Y-76283927D01*
X150990458Y-76279000D01*
X151167942Y-76279000D01*
X151192712Y-76283927D01*
G37*
G36*
X153732712Y-76283927D02*
G01*
X153882012Y-76313624D01*
X154045984Y-76381544D01*
X154193554Y-76480147D01*
X154319053Y-76605646D01*
X154417656Y-76753216D01*
X154485576Y-76917188D01*
X154520200Y-77091259D01*
X154520200Y-77268741D01*
X154485576Y-77442812D01*
X154417656Y-77606784D01*
X154319053Y-77754354D01*
X154193554Y-77879853D01*
X154045984Y-77978456D01*
X153882012Y-78046376D01*
X153732712Y-78076073D01*
X153707942Y-78081000D01*
X153530458Y-78081000D01*
X153505688Y-78076073D01*
X153356388Y-78046376D01*
X153192416Y-77978456D01*
X153044846Y-77879853D01*
X152919347Y-77754354D01*
X152820744Y-77606784D01*
X152752824Y-77442812D01*
X152718200Y-77268741D01*
X152718200Y-77091259D01*
X152752824Y-76917188D01*
X152820744Y-76753216D01*
X152919347Y-76605646D01*
X153044846Y-76480147D01*
X153192416Y-76381544D01*
X153356388Y-76313624D01*
X153505688Y-76283927D01*
X153530458Y-76279000D01*
X153707942Y-76279000D01*
X153732712Y-76283927D01*
G37*
G36*
X156272712Y-76283927D02*
G01*
X156422012Y-76313624D01*
X156585984Y-76381544D01*
X156733554Y-76480147D01*
X156859053Y-76605646D01*
X156957656Y-76753216D01*
X157025576Y-76917188D01*
X157060200Y-77091259D01*
X157060200Y-77268741D01*
X157025576Y-77442812D01*
X156957656Y-77606784D01*
X156859053Y-77754354D01*
X156733554Y-77879853D01*
X156585984Y-77978456D01*
X156422012Y-78046376D01*
X156272712Y-78076073D01*
X156247942Y-78081000D01*
X156070458Y-78081000D01*
X156045688Y-78076073D01*
X155896388Y-78046376D01*
X155732416Y-77978456D01*
X155584846Y-77879853D01*
X155459347Y-77754354D01*
X155360744Y-77606784D01*
X155292824Y-77442812D01*
X155258200Y-77268741D01*
X155258200Y-77091259D01*
X155292824Y-76917188D01*
X155360744Y-76753216D01*
X155459347Y-76605646D01*
X155584846Y-76480147D01*
X155732416Y-76381544D01*
X155896388Y-76313624D01*
X156045688Y-76283927D01*
X156070458Y-76279000D01*
X156247942Y-76279000D01*
X156272712Y-76283927D01*
G37*
G36*
X158812712Y-76283927D02*
G01*
X158962012Y-76313624D01*
X159125984Y-76381544D01*
X159273554Y-76480147D01*
X159399053Y-76605646D01*
X159497656Y-76753216D01*
X159565576Y-76917188D01*
X159600200Y-77091259D01*
X159600200Y-77268741D01*
X159565576Y-77442812D01*
X159497656Y-77606784D01*
X159399053Y-77754354D01*
X159273554Y-77879853D01*
X159125984Y-77978456D01*
X158962012Y-78046376D01*
X158812712Y-78076073D01*
X158787942Y-78081000D01*
X158610458Y-78081000D01*
X158585688Y-78076073D01*
X158436388Y-78046376D01*
X158272416Y-77978456D01*
X158124846Y-77879853D01*
X157999347Y-77754354D01*
X157900744Y-77606784D01*
X157832824Y-77442812D01*
X157798200Y-77268741D01*
X157798200Y-77091259D01*
X157832824Y-76917188D01*
X157900744Y-76753216D01*
X157999347Y-76605646D01*
X158124846Y-76480147D01*
X158272416Y-76381544D01*
X158436388Y-76313624D01*
X158585688Y-76283927D01*
X158610458Y-76279000D01*
X158787942Y-76279000D01*
X158812712Y-76283927D01*
G37*
G36*
X161352712Y-76283927D02*
G01*
X161502012Y-76313624D01*
X161665984Y-76381544D01*
X161813554Y-76480147D01*
X161939053Y-76605646D01*
X162037656Y-76753216D01*
X162105576Y-76917188D01*
X162140200Y-77091259D01*
X162140200Y-77268741D01*
X162105576Y-77442812D01*
X162037656Y-77606784D01*
X161939053Y-77754354D01*
X161813554Y-77879853D01*
X161665984Y-77978456D01*
X161502012Y-78046376D01*
X161352712Y-78076073D01*
X161327942Y-78081000D01*
X161150458Y-78081000D01*
X161125688Y-78076073D01*
X160976388Y-78046376D01*
X160812416Y-77978456D01*
X160664846Y-77879853D01*
X160539347Y-77754354D01*
X160440744Y-77606784D01*
X160372824Y-77442812D01*
X160338200Y-77268741D01*
X160338200Y-77091259D01*
X160372824Y-76917188D01*
X160440744Y-76753216D01*
X160539347Y-76605646D01*
X160664846Y-76480147D01*
X160812416Y-76381544D01*
X160976388Y-76313624D01*
X161125688Y-76283927D01*
X161150458Y-76279000D01*
X161327942Y-76279000D01*
X161352712Y-76283927D01*
G37*
G36*
X163892712Y-76283927D02*
G01*
X164042012Y-76313624D01*
X164205984Y-76381544D01*
X164353554Y-76480147D01*
X164479053Y-76605646D01*
X164577656Y-76753216D01*
X164645576Y-76917188D01*
X164680200Y-77091259D01*
X164680200Y-77268741D01*
X164645576Y-77442812D01*
X164577656Y-77606784D01*
X164479053Y-77754354D01*
X164353554Y-77879853D01*
X164205984Y-77978456D01*
X164042012Y-78046376D01*
X163892712Y-78076073D01*
X163867942Y-78081000D01*
X163690458Y-78081000D01*
X163665688Y-78076073D01*
X163516388Y-78046376D01*
X163352416Y-77978456D01*
X163204846Y-77879853D01*
X163079347Y-77754354D01*
X162980744Y-77606784D01*
X162912824Y-77442812D01*
X162878200Y-77268741D01*
X162878200Y-77091259D01*
X162912824Y-76917188D01*
X162980744Y-76753216D01*
X163079347Y-76605646D01*
X163204846Y-76480147D01*
X163352416Y-76381544D01*
X163516388Y-76313624D01*
X163665688Y-76283927D01*
X163690458Y-76279000D01*
X163867942Y-76279000D01*
X163892712Y-76283927D01*
G37*
G36*
X168972712Y-76283927D02*
G01*
X169122012Y-76313624D01*
X169285984Y-76381544D01*
X169433554Y-76480147D01*
X169559053Y-76605646D01*
X169657656Y-76753216D01*
X169725576Y-76917188D01*
X169760200Y-77091259D01*
X169760200Y-77268741D01*
X169725576Y-77442812D01*
X169657656Y-77606784D01*
X169559053Y-77754354D01*
X169433554Y-77879853D01*
X169285984Y-77978456D01*
X169122012Y-78046376D01*
X168972712Y-78076073D01*
X168947942Y-78081000D01*
X168770458Y-78081000D01*
X168745688Y-78076073D01*
X168596388Y-78046376D01*
X168432416Y-77978456D01*
X168284846Y-77879853D01*
X168159347Y-77754354D01*
X168060744Y-77606784D01*
X167992824Y-77442812D01*
X167958200Y-77268741D01*
X167958200Y-77091259D01*
X167992824Y-76917188D01*
X168060744Y-76753216D01*
X168159347Y-76605646D01*
X168284846Y-76480147D01*
X168432416Y-76381544D01*
X168596388Y-76313624D01*
X168745688Y-76283927D01*
X168770458Y-76279000D01*
X168947942Y-76279000D01*
X168972712Y-76283927D01*
G37*
G36*
X146873512Y-75034127D02*
G01*
X147022812Y-75063824D01*
X147186784Y-75131744D01*
X147334354Y-75230347D01*
X147459853Y-75355846D01*
X147558456Y-75503416D01*
X147626376Y-75667388D01*
X147661000Y-75841459D01*
X147661000Y-76018941D01*
X147626376Y-76193012D01*
X147558456Y-76356984D01*
X147459853Y-76504554D01*
X147334354Y-76630053D01*
X147186784Y-76728656D01*
X147022812Y-76796576D01*
X146873512Y-76826273D01*
X146848742Y-76831200D01*
X146671258Y-76831200D01*
X146646488Y-76826273D01*
X146497188Y-76796576D01*
X146333216Y-76728656D01*
X146185646Y-76630053D01*
X146060147Y-76504554D01*
X145961544Y-76356984D01*
X145893624Y-76193012D01*
X145859000Y-76018941D01*
X145859000Y-75841459D01*
X145893624Y-75667388D01*
X145961544Y-75503416D01*
X146060147Y-75355846D01*
X146185646Y-75230347D01*
X146333216Y-75131744D01*
X146497188Y-75063824D01*
X146646488Y-75034127D01*
X146671258Y-75029200D01*
X146848742Y-75029200D01*
X146873512Y-75034127D01*
G37*
G36*
X149413512Y-75034127D02*
G01*
X149562812Y-75063824D01*
X149726784Y-75131744D01*
X149874354Y-75230347D01*
X149999853Y-75355846D01*
X150098456Y-75503416D01*
X150166376Y-75667388D01*
X150201000Y-75841459D01*
X150201000Y-76018941D01*
X150166376Y-76193012D01*
X150098456Y-76356984D01*
X149999853Y-76504554D01*
X149874354Y-76630053D01*
X149726784Y-76728656D01*
X149562812Y-76796576D01*
X149413512Y-76826273D01*
X149388742Y-76831200D01*
X149211258Y-76831200D01*
X149186488Y-76826273D01*
X149037188Y-76796576D01*
X148873216Y-76728656D01*
X148725646Y-76630053D01*
X148600147Y-76504554D01*
X148501544Y-76356984D01*
X148433624Y-76193012D01*
X148399000Y-76018941D01*
X148399000Y-75841459D01*
X148433624Y-75667388D01*
X148501544Y-75503416D01*
X148600147Y-75355846D01*
X148725646Y-75230347D01*
X148873216Y-75131744D01*
X149037188Y-75063824D01*
X149186488Y-75034127D01*
X149211258Y-75029200D01*
X149388742Y-75029200D01*
X149413512Y-75034127D01*
G37*
G36*
X146873512Y-72494127D02*
G01*
X147022812Y-72523824D01*
X147186784Y-72591744D01*
X147334354Y-72690347D01*
X147459853Y-72815846D01*
X147558456Y-72963416D01*
X147626376Y-73127388D01*
X147661000Y-73301459D01*
X147661000Y-73478941D01*
X147626376Y-73653012D01*
X147558456Y-73816984D01*
X147459853Y-73964554D01*
X147334354Y-74090053D01*
X147186784Y-74188656D01*
X147022812Y-74256576D01*
X146873512Y-74286273D01*
X146848742Y-74291200D01*
X146671258Y-74291200D01*
X146646488Y-74286273D01*
X146497188Y-74256576D01*
X146333216Y-74188656D01*
X146185646Y-74090053D01*
X146060147Y-73964554D01*
X145961544Y-73816984D01*
X145893624Y-73653012D01*
X145859000Y-73478941D01*
X145859000Y-73301459D01*
X145893624Y-73127388D01*
X145961544Y-72963416D01*
X146060147Y-72815846D01*
X146185646Y-72690347D01*
X146333216Y-72591744D01*
X146497188Y-72523824D01*
X146646488Y-72494127D01*
X146671258Y-72489200D01*
X146848742Y-72489200D01*
X146873512Y-72494127D01*
G37*
G36*
X149413512Y-72494127D02*
G01*
X149562812Y-72523824D01*
X149726784Y-72591744D01*
X149874354Y-72690347D01*
X149999853Y-72815846D01*
X150098456Y-72963416D01*
X150166376Y-73127388D01*
X150201000Y-73301459D01*
X150201000Y-73478941D01*
X150166376Y-73653012D01*
X150098456Y-73816984D01*
X149999853Y-73964554D01*
X149874354Y-74090053D01*
X149726784Y-74188656D01*
X149562812Y-74256576D01*
X149413512Y-74286273D01*
X149388742Y-74291200D01*
X149211258Y-74291200D01*
X149186488Y-74286273D01*
X149037188Y-74256576D01*
X148873216Y-74188656D01*
X148725646Y-74090053D01*
X148600147Y-73964554D01*
X148501544Y-73816984D01*
X148433624Y-73653012D01*
X148399000Y-73478941D01*
X148399000Y-73301459D01*
X148433624Y-73127388D01*
X148501544Y-72963416D01*
X148600147Y-72815846D01*
X148725646Y-72690347D01*
X148873216Y-72591744D01*
X149037188Y-72523824D01*
X149186488Y-72494127D01*
X149211258Y-72489200D01*
X149388742Y-72489200D01*
X149413512Y-72494127D01*
G37*
G36*
X177532628Y-72226703D02*
G01*
X177687500Y-72290853D01*
X177826881Y-72383985D01*
X177945415Y-72502519D01*
X178038547Y-72641900D01*
X178102697Y-72796772D01*
X178135400Y-72961184D01*
X178135400Y-73128816D01*
X178102697Y-73293228D01*
X178038547Y-73448100D01*
X177945415Y-73587481D01*
X177826881Y-73706015D01*
X177687500Y-73799147D01*
X177532628Y-73863297D01*
X177368216Y-73896000D01*
X177200584Y-73896000D01*
X177036172Y-73863297D01*
X176881300Y-73799147D01*
X176741919Y-73706015D01*
X176623385Y-73587481D01*
X176530253Y-73448100D01*
X176466103Y-73293228D01*
X176433400Y-73128816D01*
X176433400Y-72961184D01*
X176466103Y-72796772D01*
X176530253Y-72641900D01*
X176623385Y-72502519D01*
X176741919Y-72383985D01*
X176881300Y-72290853D01*
X177036172Y-72226703D01*
X177200584Y-72194000D01*
X177368216Y-72194000D01*
X177532628Y-72226703D01*
G37*
G36*
X167532628Y-71376703D02*
G01*
X167687500Y-71440853D01*
X167826881Y-71533985D01*
X167945415Y-71652519D01*
X168038547Y-71791900D01*
X168102697Y-71946772D01*
X168135400Y-72111184D01*
X168135400Y-72278816D01*
X168102697Y-72443228D01*
X168038547Y-72598100D01*
X167945415Y-72737481D01*
X167826881Y-72856015D01*
X167687500Y-72949147D01*
X167532628Y-73013297D01*
X167368216Y-73046000D01*
X167200584Y-73046000D01*
X167036172Y-73013297D01*
X166881300Y-72949147D01*
X166741919Y-72856015D01*
X166623385Y-72737481D01*
X166530253Y-72598100D01*
X166466103Y-72443228D01*
X166433400Y-72278816D01*
X166433400Y-72111184D01*
X166466103Y-71946772D01*
X166530253Y-71791900D01*
X166623385Y-71652519D01*
X166741919Y-71533985D01*
X166881300Y-71440853D01*
X167036172Y-71376703D01*
X167200584Y-71344000D01*
X167368216Y-71344000D01*
X167532628Y-71376703D01*
G37*
G36*
X167532628Y-69376703D02*
G01*
X167687500Y-69440853D01*
X167826881Y-69533985D01*
X167945415Y-69652519D01*
X168038547Y-69791900D01*
X168102697Y-69946772D01*
X168135400Y-70111184D01*
X168135400Y-70278816D01*
X168102697Y-70443228D01*
X168038547Y-70598100D01*
X167945415Y-70737481D01*
X167826881Y-70856015D01*
X167687500Y-70949147D01*
X167532628Y-71013297D01*
X167368216Y-71046000D01*
X167200584Y-71046000D01*
X167036172Y-71013297D01*
X166881300Y-70949147D01*
X166741919Y-70856015D01*
X166623385Y-70737481D01*
X166530253Y-70598100D01*
X166466103Y-70443228D01*
X166433400Y-70278816D01*
X166433400Y-70111184D01*
X166466103Y-69946772D01*
X166530253Y-69791900D01*
X166623385Y-69652519D01*
X166741919Y-69533985D01*
X166881300Y-69440853D01*
X167036172Y-69376703D01*
X167200584Y-69344000D01*
X167368216Y-69344000D01*
X167532628Y-69376703D01*
G37*
G36*
X167532628Y-67376703D02*
G01*
X167687500Y-67440853D01*
X167826881Y-67533985D01*
X167945415Y-67652519D01*
X168038547Y-67791900D01*
X168102697Y-67946772D01*
X168135400Y-68111184D01*
X168135400Y-68278816D01*
X168102697Y-68443228D01*
X168038547Y-68598100D01*
X167945415Y-68737481D01*
X167826881Y-68856015D01*
X167687500Y-68949147D01*
X167532628Y-69013297D01*
X167368216Y-69046000D01*
X167200584Y-69046000D01*
X167036172Y-69013297D01*
X166881300Y-68949147D01*
X166741919Y-68856015D01*
X166623385Y-68737481D01*
X166530253Y-68598100D01*
X166466103Y-68443228D01*
X166433400Y-68278816D01*
X166433400Y-68111184D01*
X166466103Y-67946772D01*
X166530253Y-67791900D01*
X166623385Y-67652519D01*
X166741919Y-67533985D01*
X166881300Y-67440853D01*
X167036172Y-67376703D01*
X167200584Y-67344000D01*
X167368216Y-67344000D01*
X167532628Y-67376703D01*
G37*
G36*
X167532628Y-65376703D02*
G01*
X167687500Y-65440853D01*
X167826881Y-65533985D01*
X167945415Y-65652519D01*
X168038547Y-65791900D01*
X168102697Y-65946772D01*
X168135400Y-66111184D01*
X168135400Y-66278816D01*
X168102697Y-66443228D01*
X168038547Y-66598100D01*
X167945415Y-66737481D01*
X167826881Y-66856015D01*
X167687500Y-66949147D01*
X167532628Y-67013297D01*
X167368216Y-67046000D01*
X167200584Y-67046000D01*
X167036172Y-67013297D01*
X166881300Y-66949147D01*
X166741919Y-66856015D01*
X166623385Y-66737481D01*
X166530253Y-66598100D01*
X166466103Y-66443228D01*
X166433400Y-66278816D01*
X166433400Y-66111184D01*
X166466103Y-65946772D01*
X166530253Y-65791900D01*
X166623385Y-65652519D01*
X166741919Y-65533985D01*
X166881300Y-65440853D01*
X167036172Y-65376703D01*
X167200584Y-65344000D01*
X167368216Y-65344000D01*
X167532628Y-65376703D01*
G37*
G36*
X167532628Y-63376703D02*
G01*
X167687500Y-63440853D01*
X167826881Y-63533985D01*
X167945415Y-63652519D01*
X168038547Y-63791900D01*
X168102697Y-63946772D01*
X168135400Y-64111184D01*
X168135400Y-64278816D01*
X168102697Y-64443228D01*
X168038547Y-64598100D01*
X167945415Y-64737481D01*
X167826881Y-64856015D01*
X167687500Y-64949147D01*
X167532628Y-65013297D01*
X167368216Y-65046000D01*
X167200584Y-65046000D01*
X167036172Y-65013297D01*
X166881300Y-64949147D01*
X166741919Y-64856015D01*
X166623385Y-64737481D01*
X166530253Y-64598100D01*
X166466103Y-64443228D01*
X166433400Y-64278816D01*
X166433400Y-64111184D01*
X166466103Y-63946772D01*
X166530253Y-63791900D01*
X166623385Y-63652519D01*
X166741919Y-63533985D01*
X166881300Y-63440853D01*
X167036172Y-63376703D01*
X167200584Y-63344000D01*
X167368216Y-63344000D01*
X167532628Y-63376703D01*
G37*
G36*
X177532628Y-62526703D02*
G01*
X177687500Y-62590853D01*
X177826881Y-62683985D01*
X177945415Y-62802519D01*
X178038547Y-62941900D01*
X178102697Y-63096772D01*
X178135400Y-63261184D01*
X178135400Y-63428816D01*
X178102697Y-63593228D01*
X178038547Y-63748100D01*
X177945415Y-63887481D01*
X177826881Y-64006015D01*
X177687500Y-64099147D01*
X177532628Y-64163297D01*
X177368216Y-64196000D01*
X177200584Y-64196000D01*
X177036172Y-64163297D01*
X176881300Y-64099147D01*
X176741919Y-64006015D01*
X176623385Y-63887481D01*
X176530253Y-63748100D01*
X176466103Y-63593228D01*
X176433400Y-63428816D01*
X176433400Y-63261184D01*
X176466103Y-63096772D01*
X176530253Y-62941900D01*
X176623385Y-62802519D01*
X176741919Y-62683985D01*
X176881300Y-62590853D01*
X177036172Y-62526703D01*
X177200584Y-62494000D01*
X177368216Y-62494000D01*
X177532628Y-62526703D01*
G37*
M02*
