G04 #@! TF.GenerationSoftware,KiCad,Pcbnew,(5.1.5-0-10_14)*
G04 #@! TF.CreationDate,2019-12-11T23:03:34+09:00*
G04 #@! TF.ProjectId,RPiWD_Main,52506957-445f-44d6-9169-6e2e6b696361,rev?*
G04 #@! TF.SameCoordinates,Original*
G04 #@! TF.FileFunction,Copper,L1,Top*
G04 #@! TF.FilePolarity,Positive*
%FSLAX46Y46*%
G04 Gerber Fmt 4.6, Leading zero omitted, Abs format (unit mm)*
G04 Created by KiCad (PCBNEW (5.1.5-0-10_14)) date 2019-12-11 23:03:34*
%MOMM*%
%LPD*%
G04 APERTURE LIST*
%ADD10C,1.600000*%
%ADD11R,2.000000X2.000000*%
%ADD12C,0.100000*%
%ADD13O,1.700000X1.700000*%
%ADD14C,1.700000*%
%ADD15O,1.600000X1.600000*%
%ADD16C,0.609600*%
%ADD17C,0.762000*%
%ADD18C,0.254000*%
G04 APERTURE END LIST*
D10*
X169265600Y-128602300D03*
X161645600Y-128602300D03*
D11*
X142700000Y-100500200D03*
X142700000Y-94500200D03*
G04 #@! TA.AperFunction,SMDPad,CuDef*
D12*
G36*
X159277305Y-96813904D02*
G01*
X159301573Y-96817504D01*
X159325372Y-96823465D01*
X159348471Y-96831730D01*
X159370650Y-96842220D01*
X159391693Y-96854832D01*
X159411399Y-96869447D01*
X159429577Y-96885923D01*
X159446053Y-96904101D01*
X159460668Y-96923807D01*
X159473280Y-96944850D01*
X159483770Y-96967029D01*
X159492035Y-96990128D01*
X159497996Y-97013927D01*
X159501596Y-97038195D01*
X159502800Y-97062699D01*
X159502800Y-97962701D01*
X159501596Y-97987205D01*
X159497996Y-98011473D01*
X159492035Y-98035272D01*
X159483770Y-98058371D01*
X159473280Y-98080550D01*
X159460668Y-98101593D01*
X159446053Y-98121299D01*
X159429577Y-98139477D01*
X159411399Y-98155953D01*
X159391693Y-98170568D01*
X159370650Y-98183180D01*
X159348471Y-98193670D01*
X159325372Y-98201935D01*
X159301573Y-98207896D01*
X159277305Y-98211496D01*
X159252801Y-98212700D01*
X158602799Y-98212700D01*
X158578295Y-98211496D01*
X158554027Y-98207896D01*
X158530228Y-98201935D01*
X158507129Y-98193670D01*
X158484950Y-98183180D01*
X158463907Y-98170568D01*
X158444201Y-98155953D01*
X158426023Y-98139477D01*
X158409547Y-98121299D01*
X158394932Y-98101593D01*
X158382320Y-98080550D01*
X158371830Y-98058371D01*
X158363565Y-98035272D01*
X158357604Y-98011473D01*
X158354004Y-97987205D01*
X158352800Y-97962701D01*
X158352800Y-97062699D01*
X158354004Y-97038195D01*
X158357604Y-97013927D01*
X158363565Y-96990128D01*
X158371830Y-96967029D01*
X158382320Y-96944850D01*
X158394932Y-96923807D01*
X158409547Y-96904101D01*
X158426023Y-96885923D01*
X158444201Y-96869447D01*
X158463907Y-96854832D01*
X158484950Y-96842220D01*
X158507129Y-96831730D01*
X158530228Y-96823465D01*
X158554027Y-96817504D01*
X158578295Y-96813904D01*
X158602799Y-96812700D01*
X159252801Y-96812700D01*
X159277305Y-96813904D01*
G37*
G04 #@! TD.AperFunction*
G04 #@! TA.AperFunction,SMDPad,CuDef*
G36*
X161327305Y-96813904D02*
G01*
X161351573Y-96817504D01*
X161375372Y-96823465D01*
X161398471Y-96831730D01*
X161420650Y-96842220D01*
X161441693Y-96854832D01*
X161461399Y-96869447D01*
X161479577Y-96885923D01*
X161496053Y-96904101D01*
X161510668Y-96923807D01*
X161523280Y-96944850D01*
X161533770Y-96967029D01*
X161542035Y-96990128D01*
X161547996Y-97013927D01*
X161551596Y-97038195D01*
X161552800Y-97062699D01*
X161552800Y-97962701D01*
X161551596Y-97987205D01*
X161547996Y-98011473D01*
X161542035Y-98035272D01*
X161533770Y-98058371D01*
X161523280Y-98080550D01*
X161510668Y-98101593D01*
X161496053Y-98121299D01*
X161479577Y-98139477D01*
X161461399Y-98155953D01*
X161441693Y-98170568D01*
X161420650Y-98183180D01*
X161398471Y-98193670D01*
X161375372Y-98201935D01*
X161351573Y-98207896D01*
X161327305Y-98211496D01*
X161302801Y-98212700D01*
X160652799Y-98212700D01*
X160628295Y-98211496D01*
X160604027Y-98207896D01*
X160580228Y-98201935D01*
X160557129Y-98193670D01*
X160534950Y-98183180D01*
X160513907Y-98170568D01*
X160494201Y-98155953D01*
X160476023Y-98139477D01*
X160459547Y-98121299D01*
X160444932Y-98101593D01*
X160432320Y-98080550D01*
X160421830Y-98058371D01*
X160413565Y-98035272D01*
X160407604Y-98011473D01*
X160404004Y-97987205D01*
X160402800Y-97962701D01*
X160402800Y-97062699D01*
X160404004Y-97038195D01*
X160407604Y-97013927D01*
X160413565Y-96990128D01*
X160421830Y-96967029D01*
X160432320Y-96944850D01*
X160444932Y-96923807D01*
X160459547Y-96904101D01*
X160476023Y-96885923D01*
X160494201Y-96869447D01*
X160513907Y-96854832D01*
X160534950Y-96842220D01*
X160557129Y-96831730D01*
X160580228Y-96823465D01*
X160604027Y-96817504D01*
X160628295Y-96813904D01*
X160652799Y-96812700D01*
X161302801Y-96812700D01*
X161327305Y-96813904D01*
G37*
G04 #@! TD.AperFunction*
D13*
X149300000Y-121650200D03*
X146760000Y-121650200D03*
X149300000Y-119110200D03*
X146760000Y-119110200D03*
X149300000Y-116570200D03*
X146760000Y-116570200D03*
X149300000Y-114030200D03*
X146760000Y-114030200D03*
X149300000Y-111490200D03*
X146760000Y-111490200D03*
X149300000Y-108950200D03*
X146760000Y-108950200D03*
X149300000Y-106410200D03*
X146760000Y-106410200D03*
X149300000Y-103870200D03*
X146760000Y-103870200D03*
X149300000Y-101330200D03*
X146760000Y-101330200D03*
X149300000Y-98790200D03*
X146760000Y-98790200D03*
X149300000Y-96250200D03*
X146760000Y-96250200D03*
X149300000Y-93710200D03*
X146760000Y-93710200D03*
X149300000Y-91170200D03*
X146760000Y-91170200D03*
X149300000Y-88630200D03*
X146760000Y-88630200D03*
X149300000Y-86090200D03*
X146760000Y-86090200D03*
X149300000Y-83550200D03*
X146760000Y-83550200D03*
X149300000Y-81010200D03*
X146760000Y-81010200D03*
X149300000Y-78470200D03*
X146760000Y-78470200D03*
X149300000Y-75930200D03*
X146760000Y-75930200D03*
X149300000Y-73390200D03*
X146760000Y-73390200D03*
X152374600Y-114035400D03*
X154914600Y-114035400D03*
X157454600Y-114035400D03*
X159994600Y-114035400D03*
X162534600Y-114035400D03*
X165074600Y-114035400D03*
D14*
X167614600Y-114035400D03*
X152400000Y-81015400D03*
D13*
X154940000Y-81015400D03*
X157480000Y-81015400D03*
X160020000Y-81015400D03*
X162560000Y-81015400D03*
X165100000Y-81015400D03*
X167640000Y-81015400D03*
D10*
X167284400Y-72195000D03*
X167284400Y-70195000D03*
X167284400Y-68195000D03*
X167284400Y-66195000D03*
X167284400Y-64195000D03*
X177284400Y-73045000D03*
X177284400Y-63345000D03*
X163741100Y-107672700D03*
D15*
X156121100Y-87352700D03*
X163741100Y-105132700D03*
X156121100Y-89892700D03*
X163741100Y-102592700D03*
X156121100Y-92432700D03*
X163741100Y-100052700D03*
X156121100Y-94972700D03*
X163741100Y-97512700D03*
X156121100Y-97512700D03*
X163741100Y-94972700D03*
X156121100Y-100052700D03*
X163741100Y-92432700D03*
X156121100Y-102592700D03*
X163741100Y-89892700D03*
X156121100Y-105132700D03*
X163741100Y-87352700D03*
X156121100Y-107672700D03*
D14*
X168900000Y-117800200D03*
D13*
X166360000Y-117800200D03*
X163820000Y-117800200D03*
X161280000Y-117800200D03*
X158740000Y-117800200D03*
X156200000Y-117800200D03*
X153660000Y-117800200D03*
X151120000Y-117800200D03*
X168859200Y-77180000D03*
X166319200Y-77180000D03*
X163779200Y-77180000D03*
X161239200Y-77180000D03*
X158699200Y-77180000D03*
X156159200Y-77180000D03*
X153619200Y-77180000D03*
D14*
X151079200Y-77180000D03*
D16*
X154076400Y-121274400D03*
X161836100Y-71020500D03*
X158877000Y-68188400D03*
D17*
X151120000Y-119830200D02*
X149300000Y-121650200D01*
X151120000Y-117800200D02*
X151120000Y-119830200D01*
X168009201Y-78029999D02*
X168859200Y-77180000D01*
X157632597Y-78665001D02*
X167374199Y-78665001D01*
X167374199Y-78665001D02*
X168009201Y-78029999D01*
X155282198Y-81015400D02*
X157632597Y-78665001D01*
X154940000Y-81015400D02*
X155282198Y-81015400D01*
X155321101Y-98312699D02*
X156121100Y-97512700D01*
X154686099Y-98947701D02*
X155321101Y-98312699D01*
X154686099Y-104641745D02*
X154686099Y-98947701D01*
X150889599Y-108438245D02*
X154686099Y-104641745D01*
X150889599Y-114748201D02*
X150889599Y-108438245D01*
X151120000Y-114978602D02*
X150889599Y-114748201D01*
X151120000Y-117800200D02*
X151120000Y-114978602D01*
X156121100Y-97512700D02*
X158927800Y-97512700D01*
D18*
X145910001Y-115720201D02*
X146760000Y-116570200D01*
X144512989Y-114323189D02*
X145910001Y-115720201D01*
X144512989Y-97567189D02*
X144512989Y-114323189D01*
X142700000Y-95754200D02*
X144512989Y-97567189D01*
X142700000Y-94500200D02*
X142700000Y-95754200D01*
D17*
X160977800Y-97512700D02*
X163741100Y-97512700D01*
D18*
X152310201Y-76400401D02*
X150149999Y-74240199D01*
X152310201Y-79723520D02*
X152310201Y-76400401D01*
X152400000Y-79813319D02*
X152310201Y-79723520D01*
X150149999Y-74240199D02*
X149300000Y-73390200D01*
X152400000Y-81015400D02*
X152400000Y-79813319D01*
X150502081Y-73390200D02*
X149300000Y-73390200D01*
X164957830Y-73390200D02*
X150502081Y-73390200D01*
X166153030Y-72195000D02*
X164957830Y-73390200D01*
X167284400Y-72195000D02*
X166153030Y-72195000D01*
X146169119Y-117879199D02*
X148068999Y-117879199D01*
X148068999Y-117879199D02*
X148450001Y-118260201D01*
X142700000Y-114410080D02*
X146169119Y-117879199D01*
X148450001Y-118260201D02*
X149300000Y-119110200D01*
X142700000Y-100500200D02*
X142700000Y-114410080D01*
X148450001Y-113180201D02*
X149300000Y-114030200D01*
X148068999Y-112799199D02*
X148450001Y-113180201D01*
X148709119Y-102639199D02*
X148068999Y-103279319D01*
X149812567Y-102639199D02*
X148709119Y-102639199D01*
X151714200Y-100737566D02*
X149812567Y-102639199D01*
X155133369Y-85155681D02*
X151714200Y-88574850D01*
X148068999Y-103279319D02*
X148068999Y-112799199D01*
X158419719Y-85155681D02*
X155133369Y-85155681D01*
X151714200Y-88574850D02*
X151714200Y-100737566D01*
X162560000Y-81015400D02*
X158419719Y-85155681D01*
X162560099Y-88711699D02*
X162560099Y-86813735D01*
X163741100Y-89892700D02*
X162560099Y-88711699D01*
X162560099Y-86813735D02*
X163202135Y-86171699D01*
X167247682Y-121274400D02*
X154076400Y-121274400D01*
X170131001Y-118391081D02*
X167247682Y-121274400D01*
X170131001Y-91994719D02*
X170131001Y-118391081D01*
X164307981Y-86171699D02*
X170131001Y-91994719D01*
X163202135Y-86171699D02*
X164307981Y-86171699D01*
X155554219Y-86171699D02*
X153466800Y-88259118D01*
X162483701Y-86171699D02*
X155554219Y-86171699D01*
X167640000Y-81015400D02*
X162483701Y-86171699D01*
X153466800Y-104783400D02*
X149300000Y-108950200D01*
X153466800Y-88259118D02*
X153466800Y-104783400D01*
D17*
X145910001Y-108100201D02*
X146760000Y-108950200D01*
X145274999Y-107465199D02*
X145910001Y-108100201D01*
X145274999Y-72677399D02*
X145274999Y-107465199D01*
X146047199Y-71905199D02*
X145274999Y-72677399D01*
X150012801Y-71905199D02*
X146047199Y-71905199D01*
X150144112Y-72036510D02*
X150012801Y-71905199D01*
X162256945Y-72036510D02*
X150144112Y-72036510D01*
X162852110Y-71441345D02*
X162256945Y-72036510D01*
X162852110Y-68340790D02*
X162852110Y-71441345D01*
X166197901Y-64994999D02*
X162852110Y-68340790D01*
X166484401Y-64994999D02*
X166197901Y-64994999D01*
X167284400Y-64195000D02*
X166484401Y-64994999D01*
D18*
X160451711Y-85663689D02*
X155343794Y-85663690D01*
X155343794Y-85663690D02*
X152933400Y-88074084D01*
X165100000Y-81015400D02*
X160451711Y-85663689D01*
X152933400Y-100236800D02*
X149300000Y-103870200D01*
X152933400Y-88074084D02*
X152933400Y-100236800D01*
X154922944Y-84647672D02*
X151206190Y-88364426D01*
X156387729Y-84647671D02*
X154922944Y-84647672D01*
X160020000Y-81015400D02*
X156387729Y-84647671D01*
X151206190Y-96884010D02*
X149300000Y-98790200D01*
X151206190Y-88364426D02*
X151206190Y-96884010D01*
X150149999Y-92860201D02*
X149300000Y-93710200D01*
X150698180Y-88154002D02*
X150698180Y-92312020D01*
X157480000Y-81372182D02*
X150698180Y-88154002D01*
X150698180Y-92312020D02*
X150149999Y-92860201D01*
X157480000Y-81015400D02*
X157480000Y-81372182D01*
X168900000Y-92511600D02*
X163741100Y-87352700D01*
X168900000Y-117800200D02*
X168900000Y-92511600D01*
X164541099Y-93232699D02*
X163741100Y-92432700D01*
X166446130Y-95137730D02*
X164541099Y-93232699D01*
X166446130Y-108870854D02*
X166446130Y-95137730D01*
X166360000Y-108956984D02*
X166446130Y-108870854D01*
X166360000Y-117800200D02*
X166360000Y-108956984D01*
X164541099Y-95772699D02*
X163741100Y-94972700D01*
X165938120Y-97169720D02*
X164541099Y-95772699D01*
X165938120Y-108660430D02*
X165938120Y-97169720D01*
X163820000Y-110778550D02*
X165938120Y-108660430D01*
X163820000Y-117800200D02*
X163820000Y-110778550D01*
X164541099Y-100852699D02*
X163741100Y-100052700D01*
X165430110Y-101741710D02*
X164541099Y-100852699D01*
X165430110Y-108450006D02*
X165430110Y-101741710D01*
X161280000Y-112600116D02*
X165430110Y-108450006D01*
X161280000Y-117800200D02*
X161280000Y-112600116D01*
X164922101Y-106313701D02*
X164541099Y-105932699D01*
X164922101Y-108239581D02*
X164922101Y-106313701D01*
X163354417Y-108853701D02*
X164307981Y-108853701D01*
X158740000Y-113468118D02*
X163354417Y-108853701D01*
X164541099Y-105932699D02*
X163741100Y-105132700D01*
X164307981Y-108853701D02*
X164922101Y-108239581D01*
X158740000Y-117800200D02*
X158740000Y-113468118D01*
X162609730Y-107672700D02*
X163741100Y-107672700D01*
X161995418Y-107672700D02*
X162609730Y-107672700D01*
X156200000Y-113468118D02*
X161995418Y-107672700D01*
X156200000Y-117800200D02*
X156200000Y-113468118D01*
D17*
X175849399Y-70636197D02*
X175849399Y-122018501D01*
X167973201Y-62759999D02*
X175849399Y-70636197D01*
X175849399Y-122018501D02*
X169265600Y-128602300D01*
X166595599Y-62759999D02*
X167973201Y-62759999D01*
X161836100Y-67519498D02*
X166595599Y-62759999D01*
X161836100Y-71020500D02*
X161836100Y-67519498D01*
X162445599Y-129402299D02*
X161645600Y-128602300D01*
X163080601Y-130037301D02*
X162445599Y-129402299D01*
X178719401Y-121272301D02*
X169954401Y-130037301D01*
X168394046Y-61743989D02*
X178719401Y-72069344D01*
X178719401Y-72069344D02*
X178719401Y-121272301D01*
X165321411Y-61743989D02*
X168394046Y-61743989D01*
X169954401Y-130037301D02*
X163080601Y-130037301D01*
X158877000Y-68188400D02*
X165321411Y-61743989D01*
D18*
G36*
X177453893Y-60707670D02*
G01*
X177890498Y-60839489D01*
X178293185Y-61053600D01*
X178646612Y-61341848D01*
X178937327Y-61693261D01*
X179154242Y-62094439D01*
X179289106Y-62530113D01*
X179340000Y-63014344D01*
X179340000Y-71253102D01*
X171290563Y-63203665D01*
X175849400Y-63203665D01*
X175849400Y-63486335D01*
X175904547Y-63763574D01*
X176012720Y-64024727D01*
X176169763Y-64259759D01*
X176369641Y-64459637D01*
X176604673Y-64616680D01*
X176865826Y-64724853D01*
X177143065Y-64780000D01*
X177425735Y-64780000D01*
X177702974Y-64724853D01*
X177964127Y-64616680D01*
X178199159Y-64459637D01*
X178399037Y-64259759D01*
X178556080Y-64024727D01*
X178664253Y-63763574D01*
X178719400Y-63486335D01*
X178719400Y-63203665D01*
X178664253Y-62926426D01*
X178556080Y-62665273D01*
X178399037Y-62430241D01*
X178199159Y-62230363D01*
X177964127Y-62073320D01*
X177702974Y-61965147D01*
X177425735Y-61910000D01*
X177143065Y-61910000D01*
X176865826Y-61965147D01*
X176604673Y-62073320D01*
X176369641Y-62230363D01*
X176169763Y-62430241D01*
X176012720Y-62665273D01*
X175904547Y-62926426D01*
X175849400Y-63203665D01*
X171290563Y-63203665D01*
X169147758Y-61060861D01*
X169115942Y-61022093D01*
X168961236Y-60895129D01*
X168784733Y-60800787D01*
X168593217Y-60742691D01*
X168443948Y-60727989D01*
X168394046Y-60723074D01*
X168344144Y-60727989D01*
X165371304Y-60727989D01*
X165321410Y-60723075D01*
X165271516Y-60727989D01*
X165271509Y-60727989D01*
X165141588Y-60740785D01*
X165122239Y-60742691D01*
X165081890Y-60754931D01*
X164930724Y-60800787D01*
X164754221Y-60895129D01*
X164599515Y-61022093D01*
X164567703Y-61060856D01*
X158123294Y-67505266D01*
X158028141Y-67621211D01*
X157933799Y-67797713D01*
X157875702Y-67989230D01*
X157856085Y-68188400D01*
X157875702Y-68387570D01*
X157933799Y-68579087D01*
X158028141Y-68755589D01*
X158155105Y-68910295D01*
X158309811Y-69037259D01*
X158486313Y-69131601D01*
X158677830Y-69189698D01*
X158877000Y-69209315D01*
X159076170Y-69189698D01*
X159267687Y-69131601D01*
X159444189Y-69037259D01*
X159560134Y-68942106D01*
X160820101Y-67682139D01*
X160820100Y-71020510D01*
X150512959Y-71020510D01*
X150403488Y-70961997D01*
X150211972Y-70903901D01*
X150062703Y-70889199D01*
X150012801Y-70884284D01*
X149962899Y-70889199D01*
X146097101Y-70889199D01*
X146047199Y-70884284D01*
X145997297Y-70889199D01*
X145848028Y-70903901D01*
X145656512Y-70961997D01*
X145480009Y-71056339D01*
X145325303Y-71183303D01*
X145293491Y-71222066D01*
X144591871Y-71923687D01*
X144553103Y-71955503D01*
X144426139Y-72110209D01*
X144331797Y-72286713D01*
X144284496Y-72442643D01*
X144273701Y-72478229D01*
X144254084Y-72677399D01*
X144258999Y-72727301D01*
X144259000Y-93198955D01*
X144230537Y-93145706D01*
X144151185Y-93049015D01*
X144054494Y-92969663D01*
X143944180Y-92910698D01*
X143824482Y-92874388D01*
X143700000Y-92862128D01*
X142985750Y-92865200D01*
X142827000Y-93023950D01*
X142827000Y-94373200D01*
X142847000Y-94373200D01*
X142847000Y-94627200D01*
X142827000Y-94627200D01*
X142827000Y-95976450D01*
X142985750Y-96135200D01*
X143700000Y-96138272D01*
X143824482Y-96126012D01*
X143944180Y-96089702D01*
X144054494Y-96030737D01*
X144151185Y-95951385D01*
X144230537Y-95854694D01*
X144259000Y-95801445D01*
X144259000Y-99198955D01*
X144230537Y-99145706D01*
X144151185Y-99049015D01*
X144054494Y-98969663D01*
X143944180Y-98910698D01*
X143824482Y-98874388D01*
X143700000Y-98862128D01*
X141700000Y-98862128D01*
X141575518Y-98874388D01*
X141455820Y-98910698D01*
X141345506Y-98969663D01*
X141248815Y-99049015D01*
X141169463Y-99145706D01*
X141110498Y-99256020D01*
X141074188Y-99375718D01*
X141061928Y-99500200D01*
X141061928Y-101500200D01*
X141074188Y-101624682D01*
X141110498Y-101744380D01*
X141169463Y-101854694D01*
X141248815Y-101951385D01*
X141345506Y-102030737D01*
X141455820Y-102089702D01*
X141575518Y-102126012D01*
X141700000Y-102138272D01*
X141938000Y-102138272D01*
X141938001Y-114372647D01*
X141934314Y-114410080D01*
X141949027Y-114559458D01*
X141992599Y-114703095D01*
X142063355Y-114835472D01*
X142103339Y-114884192D01*
X142158579Y-114951502D01*
X142187649Y-114975359D01*
X145514132Y-118301843D01*
X145444010Y-118406789D01*
X145332068Y-118677042D01*
X145275000Y-118963940D01*
X145275000Y-119256460D01*
X145332068Y-119543358D01*
X145444010Y-119813611D01*
X145606525Y-120056832D01*
X145813368Y-120263675D01*
X145987760Y-120380200D01*
X145813368Y-120496725D01*
X145606525Y-120703568D01*
X145444010Y-120946789D01*
X145332068Y-121217042D01*
X145275000Y-121503940D01*
X145275000Y-121796460D01*
X145332068Y-122083358D01*
X145444010Y-122353611D01*
X145606525Y-122596832D01*
X145813368Y-122803675D01*
X146056589Y-122966190D01*
X146326842Y-123078132D01*
X146613740Y-123135200D01*
X146906260Y-123135200D01*
X147193158Y-123078132D01*
X147463411Y-122966190D01*
X147706632Y-122803675D01*
X147913475Y-122596832D01*
X148030000Y-122422440D01*
X148146525Y-122596832D01*
X148353368Y-122803675D01*
X148596589Y-122966190D01*
X148866842Y-123078132D01*
X149153740Y-123135200D01*
X149446260Y-123135200D01*
X149733158Y-123078132D01*
X150003411Y-122966190D01*
X150246632Y-122803675D01*
X150453475Y-122596832D01*
X150615990Y-122353611D01*
X150727932Y-122083358D01*
X150785000Y-121796460D01*
X150785000Y-121602040D01*
X151803133Y-120583908D01*
X151841896Y-120552096D01*
X151968860Y-120397390D01*
X152063202Y-120220887D01*
X152121298Y-120029371D01*
X152136000Y-119880102D01*
X152140915Y-119830200D01*
X152136000Y-119780298D01*
X152136000Y-118884307D01*
X152273475Y-118746832D01*
X152395195Y-118564666D01*
X152464822Y-118681555D01*
X152659731Y-118897788D01*
X152893080Y-119071841D01*
X153155901Y-119197025D01*
X153303110Y-119241676D01*
X153533000Y-119120355D01*
X153533000Y-117927200D01*
X153513000Y-117927200D01*
X153513000Y-117673200D01*
X153533000Y-117673200D01*
X153533000Y-116480045D01*
X153303110Y-116358724D01*
X153155901Y-116403375D01*
X152893080Y-116528559D01*
X152659731Y-116702612D01*
X152464822Y-116918845D01*
X152395195Y-117035734D01*
X152273475Y-116853568D01*
X152136000Y-116716093D01*
X152136000Y-115502032D01*
X152228340Y-115520400D01*
X152520860Y-115520400D01*
X152807758Y-115463332D01*
X153078011Y-115351390D01*
X153321232Y-115188875D01*
X153528075Y-114982032D01*
X153644600Y-114807640D01*
X153761125Y-114982032D01*
X153967968Y-115188875D01*
X154211189Y-115351390D01*
X154481442Y-115463332D01*
X154768340Y-115520400D01*
X155060860Y-115520400D01*
X155347758Y-115463332D01*
X155438001Y-115425952D01*
X155438000Y-116523358D01*
X155253368Y-116646725D01*
X155046525Y-116853568D01*
X154924805Y-117035734D01*
X154855178Y-116918845D01*
X154660269Y-116702612D01*
X154426920Y-116528559D01*
X154164099Y-116403375D01*
X154016890Y-116358724D01*
X153787000Y-116480045D01*
X153787000Y-117673200D01*
X153807000Y-117673200D01*
X153807000Y-117927200D01*
X153787000Y-117927200D01*
X153787000Y-119120355D01*
X154016890Y-119241676D01*
X154164099Y-119197025D01*
X154426920Y-119071841D01*
X154660269Y-118897788D01*
X154855178Y-118681555D01*
X154924805Y-118564666D01*
X155046525Y-118746832D01*
X155253368Y-118953675D01*
X155496589Y-119116190D01*
X155766842Y-119228132D01*
X156053740Y-119285200D01*
X156346260Y-119285200D01*
X156633158Y-119228132D01*
X156903411Y-119116190D01*
X157146632Y-118953675D01*
X157353475Y-118746832D01*
X157470000Y-118572440D01*
X157586525Y-118746832D01*
X157793368Y-118953675D01*
X158036589Y-119116190D01*
X158306842Y-119228132D01*
X158593740Y-119285200D01*
X158886260Y-119285200D01*
X159173158Y-119228132D01*
X159443411Y-119116190D01*
X159686632Y-118953675D01*
X159893475Y-118746832D01*
X160010000Y-118572440D01*
X160126525Y-118746832D01*
X160333368Y-118953675D01*
X160576589Y-119116190D01*
X160846842Y-119228132D01*
X161133740Y-119285200D01*
X161426260Y-119285200D01*
X161713158Y-119228132D01*
X161983411Y-119116190D01*
X162226632Y-118953675D01*
X162433475Y-118746832D01*
X162550000Y-118572440D01*
X162666525Y-118746832D01*
X162873368Y-118953675D01*
X163116589Y-119116190D01*
X163386842Y-119228132D01*
X163673740Y-119285200D01*
X163966260Y-119285200D01*
X164253158Y-119228132D01*
X164523411Y-119116190D01*
X164766632Y-118953675D01*
X164973475Y-118746832D01*
X165090000Y-118572440D01*
X165206525Y-118746832D01*
X165413368Y-118953675D01*
X165656589Y-119116190D01*
X165926842Y-119228132D01*
X166213740Y-119285200D01*
X166506260Y-119285200D01*
X166793158Y-119228132D01*
X167063411Y-119116190D01*
X167306632Y-118953675D01*
X167513475Y-118746832D01*
X167630000Y-118572440D01*
X167746525Y-118746832D01*
X167953368Y-118953675D01*
X168196589Y-119116190D01*
X168289696Y-119154756D01*
X166932052Y-120512400D01*
X154627581Y-120512400D01*
X154521562Y-120441560D01*
X154350529Y-120370716D01*
X154168962Y-120334600D01*
X153983838Y-120334600D01*
X153802271Y-120370716D01*
X153631238Y-120441560D01*
X153477313Y-120544410D01*
X153346410Y-120675313D01*
X153243560Y-120829238D01*
X153172716Y-121000271D01*
X153136600Y-121181838D01*
X153136600Y-121366962D01*
X153172716Y-121548529D01*
X153243560Y-121719562D01*
X153346410Y-121873487D01*
X153477313Y-122004390D01*
X153631238Y-122107240D01*
X153802271Y-122178084D01*
X153983838Y-122214200D01*
X154168962Y-122214200D01*
X154350529Y-122178084D01*
X154521562Y-122107240D01*
X154627581Y-122036400D01*
X167210259Y-122036400D01*
X167247682Y-122040086D01*
X167285105Y-122036400D01*
X167285108Y-122036400D01*
X167397060Y-122025374D01*
X167540697Y-121981802D01*
X167673074Y-121911045D01*
X167789104Y-121815822D01*
X167812966Y-121786746D01*
X170643353Y-118956360D01*
X170672423Y-118932503D01*
X170709768Y-118886998D01*
X170767646Y-118816474D01*
X170806703Y-118743402D01*
X170838403Y-118684096D01*
X170881975Y-118540459D01*
X170893001Y-118428507D01*
X170893001Y-118428504D01*
X170896687Y-118391081D01*
X170893001Y-118353658D01*
X170893001Y-92032142D01*
X170896687Y-91994719D01*
X170886041Y-91886628D01*
X170881975Y-91845341D01*
X170838403Y-91701704D01*
X170767647Y-91569328D01*
X170767646Y-91569326D01*
X170696280Y-91482367D01*
X170672423Y-91453297D01*
X170643354Y-91429441D01*
X164873265Y-85659353D01*
X164849403Y-85630277D01*
X164733373Y-85535054D01*
X164600996Y-85464297D01*
X164457359Y-85420725D01*
X164345407Y-85409699D01*
X164345404Y-85409699D01*
X164325310Y-85407720D01*
X167275952Y-82457079D01*
X167493740Y-82500400D01*
X167786260Y-82500400D01*
X168073158Y-82443332D01*
X168343411Y-82331390D01*
X168586632Y-82168875D01*
X168793475Y-81962032D01*
X168955990Y-81718811D01*
X169067932Y-81448558D01*
X169125000Y-81161660D01*
X169125000Y-80869140D01*
X169067932Y-80582242D01*
X168955990Y-80311989D01*
X168793475Y-80068768D01*
X168586632Y-79861925D01*
X168343411Y-79699410D01*
X168073158Y-79587468D01*
X167876765Y-79548403D01*
X167941389Y-79513861D01*
X168096095Y-79386897D01*
X168127912Y-79348128D01*
X168811040Y-78665000D01*
X169005460Y-78665000D01*
X169292358Y-78607932D01*
X169562611Y-78495990D01*
X169805832Y-78333475D01*
X170012675Y-78126632D01*
X170175190Y-77883411D01*
X170287132Y-77613158D01*
X170344200Y-77326260D01*
X170344200Y-77033740D01*
X170287132Y-76746842D01*
X170175190Y-76476589D01*
X170012675Y-76233368D01*
X169805832Y-76026525D01*
X169562611Y-75864010D01*
X169292358Y-75752068D01*
X169005460Y-75695000D01*
X168712940Y-75695000D01*
X168426042Y-75752068D01*
X168155789Y-75864010D01*
X167912568Y-76026525D01*
X167705725Y-76233368D01*
X167584005Y-76415534D01*
X167514378Y-76298645D01*
X167319469Y-76082412D01*
X167086120Y-75908359D01*
X166823299Y-75783175D01*
X166676090Y-75738524D01*
X166446200Y-75859845D01*
X166446200Y-77053000D01*
X166466200Y-77053000D01*
X166466200Y-77307000D01*
X166446200Y-77307000D01*
X166446200Y-77327000D01*
X166192200Y-77327000D01*
X166192200Y-77307000D01*
X166172200Y-77307000D01*
X166172200Y-77053000D01*
X166192200Y-77053000D01*
X166192200Y-75859845D01*
X165962310Y-75738524D01*
X165815101Y-75783175D01*
X165552280Y-75908359D01*
X165318931Y-76082412D01*
X165124022Y-76298645D01*
X165054395Y-76415534D01*
X164932675Y-76233368D01*
X164725832Y-76026525D01*
X164482611Y-75864010D01*
X164212358Y-75752068D01*
X163925460Y-75695000D01*
X163632940Y-75695000D01*
X163346042Y-75752068D01*
X163075789Y-75864010D01*
X162832568Y-76026525D01*
X162625725Y-76233368D01*
X162509200Y-76407760D01*
X162392675Y-76233368D01*
X162185832Y-76026525D01*
X161942611Y-75864010D01*
X161672358Y-75752068D01*
X161385460Y-75695000D01*
X161092940Y-75695000D01*
X160806042Y-75752068D01*
X160535789Y-75864010D01*
X160292568Y-76026525D01*
X160085725Y-76233368D01*
X159969200Y-76407760D01*
X159852675Y-76233368D01*
X159645832Y-76026525D01*
X159402611Y-75864010D01*
X159132358Y-75752068D01*
X158845460Y-75695000D01*
X158552940Y-75695000D01*
X158266042Y-75752068D01*
X157995789Y-75864010D01*
X157752568Y-76026525D01*
X157545725Y-76233368D01*
X157429200Y-76407760D01*
X157312675Y-76233368D01*
X157105832Y-76026525D01*
X156862611Y-75864010D01*
X156592358Y-75752068D01*
X156305460Y-75695000D01*
X156012940Y-75695000D01*
X155726042Y-75752068D01*
X155455789Y-75864010D01*
X155212568Y-76026525D01*
X155005725Y-76233368D01*
X154889200Y-76407760D01*
X154772675Y-76233368D01*
X154565832Y-76026525D01*
X154322611Y-75864010D01*
X154052358Y-75752068D01*
X153765460Y-75695000D01*
X153472940Y-75695000D01*
X153186042Y-75752068D01*
X152915789Y-75864010D01*
X152672568Y-76026525D01*
X152465725Y-76233368D01*
X152349200Y-76407760D01*
X152232675Y-76233368D01*
X152025832Y-76026525D01*
X151782611Y-75864010D01*
X151512358Y-75752068D01*
X151225460Y-75695000D01*
X150932940Y-75695000D01*
X150773613Y-75726692D01*
X150727932Y-75497042D01*
X150615990Y-75226789D01*
X150453475Y-74983568D01*
X150246632Y-74776725D01*
X150064466Y-74655005D01*
X150181355Y-74585378D01*
X150397588Y-74390469D01*
X150571641Y-74157120D01*
X150696825Y-73894299D01*
X150741476Y-73747090D01*
X150620155Y-73517200D01*
X149427000Y-73517200D01*
X149427000Y-73537200D01*
X149173000Y-73537200D01*
X149173000Y-73517200D01*
X149153000Y-73517200D01*
X149153000Y-73263200D01*
X149173000Y-73263200D01*
X149173000Y-73243200D01*
X149427000Y-73243200D01*
X149427000Y-73263200D01*
X150620155Y-73263200D01*
X150659997Y-73187702D01*
X166471303Y-73187702D01*
X166542886Y-73431671D01*
X166798396Y-73552571D01*
X167072584Y-73621300D01*
X167354912Y-73635217D01*
X167634530Y-73593787D01*
X167900692Y-73498603D01*
X168025914Y-73431671D01*
X168097497Y-73187702D01*
X167284400Y-72374605D01*
X166471303Y-73187702D01*
X150659997Y-73187702D01*
X150731343Y-73052510D01*
X162207043Y-73052510D01*
X162256945Y-73057425D01*
X162306847Y-73052510D01*
X162456116Y-73037808D01*
X162647632Y-72979712D01*
X162824135Y-72885370D01*
X162978841Y-72758406D01*
X163010658Y-72719637D01*
X163535237Y-72195058D01*
X163574006Y-72163241D01*
X163700970Y-72008535D01*
X163795312Y-71832032D01*
X163853408Y-71640516D01*
X163868110Y-71491247D01*
X163868110Y-71491240D01*
X163873024Y-71441346D01*
X163868110Y-71391452D01*
X163868110Y-68761630D01*
X165937240Y-66692501D01*
X166012720Y-66874727D01*
X166169763Y-67109759D01*
X166255004Y-67195000D01*
X166169763Y-67280241D01*
X166012720Y-67515273D01*
X165904547Y-67776426D01*
X165849400Y-68053665D01*
X165849400Y-68336335D01*
X165904547Y-68613574D01*
X166012720Y-68874727D01*
X166169763Y-69109759D01*
X166255004Y-69195000D01*
X166169763Y-69280241D01*
X166012720Y-69515273D01*
X165904547Y-69776426D01*
X165849400Y-70053665D01*
X165849400Y-70336335D01*
X165904547Y-70613574D01*
X166012720Y-70874727D01*
X166169763Y-71109759D01*
X166250529Y-71190525D01*
X166175423Y-71265630D01*
X166291696Y-71381903D01*
X166047729Y-71453486D01*
X165926829Y-71708996D01*
X165858100Y-71983184D01*
X165844183Y-72265512D01*
X165885613Y-72545130D01*
X165980797Y-72811292D01*
X166047729Y-72936514D01*
X166291698Y-73008097D01*
X167104795Y-72195000D01*
X167090653Y-72180858D01*
X167270258Y-72001253D01*
X167284400Y-72015395D01*
X167298543Y-72001253D01*
X167478148Y-72180858D01*
X167464005Y-72195000D01*
X168277102Y-73008097D01*
X168521071Y-72936514D01*
X168641971Y-72681004D01*
X168710700Y-72406816D01*
X168724617Y-72124488D01*
X168683187Y-71844870D01*
X168588003Y-71578708D01*
X168521071Y-71453486D01*
X168277104Y-71381903D01*
X168393377Y-71265630D01*
X168318272Y-71190525D01*
X168399037Y-71109759D01*
X168556080Y-70874727D01*
X168664253Y-70613574D01*
X168719400Y-70336335D01*
X168719400Y-70053665D01*
X168664253Y-69776426D01*
X168556080Y-69515273D01*
X168399037Y-69280241D01*
X168313796Y-69195000D01*
X168399037Y-69109759D01*
X168556080Y-68874727D01*
X168664253Y-68613574D01*
X168719400Y-68336335D01*
X168719400Y-68053665D01*
X168664253Y-67776426D01*
X168556080Y-67515273D01*
X168399037Y-67280241D01*
X168313796Y-67195000D01*
X168399037Y-67109759D01*
X168556080Y-66874727D01*
X168664253Y-66613574D01*
X168719400Y-66336335D01*
X168719400Y-66053665D01*
X168664253Y-65776426D01*
X168556080Y-65515273D01*
X168399037Y-65280241D01*
X168313796Y-65195000D01*
X168399037Y-65109759D01*
X168556080Y-64874727D01*
X168583907Y-64807546D01*
X174833399Y-71057038D01*
X174833400Y-121597659D01*
X169263760Y-127167300D01*
X169124265Y-127167300D01*
X168847026Y-127222447D01*
X168585873Y-127330620D01*
X168350841Y-127487663D01*
X168150963Y-127687541D01*
X167993920Y-127922573D01*
X167885747Y-128183726D01*
X167830600Y-128460965D01*
X167830600Y-128743635D01*
X167885747Y-129020874D01*
X167885924Y-129021301D01*
X163501441Y-129021301D01*
X163199310Y-128719170D01*
X163199305Y-128719164D01*
X163080600Y-128600459D01*
X163080600Y-128460965D01*
X163025453Y-128183726D01*
X162917280Y-127922573D01*
X162760237Y-127687541D01*
X162560359Y-127487663D01*
X162325327Y-127330620D01*
X162064174Y-127222447D01*
X161786935Y-127167300D01*
X161504265Y-127167300D01*
X161227026Y-127222447D01*
X160965873Y-127330620D01*
X160730841Y-127487663D01*
X160530963Y-127687541D01*
X160373920Y-127922573D01*
X160265747Y-128183726D01*
X160210600Y-128460965D01*
X160210600Y-128743635D01*
X160265747Y-129020874D01*
X160373920Y-129282027D01*
X160530963Y-129517059D01*
X160730841Y-129716937D01*
X160965873Y-129873980D01*
X161227026Y-129982153D01*
X161504265Y-130037300D01*
X161643759Y-130037300D01*
X161762464Y-130156005D01*
X161762470Y-130156010D01*
X162326888Y-130720428D01*
X162358705Y-130759197D01*
X162513411Y-130886161D01*
X162689914Y-130980503D01*
X162823333Y-131020975D01*
X162881429Y-131038599D01*
X162900778Y-131040505D01*
X163030699Y-131053301D01*
X163030706Y-131053301D01*
X163080600Y-131058215D01*
X163130494Y-131053301D01*
X169904499Y-131053301D01*
X169954401Y-131058216D01*
X170004303Y-131053301D01*
X170153572Y-131038599D01*
X170345088Y-130980503D01*
X170521591Y-130886161D01*
X170676297Y-130759197D01*
X170708113Y-130720429D01*
X179340001Y-122088542D01*
X179340001Y-131967711D01*
X179292330Y-132453894D01*
X179160512Y-132890497D01*
X178946399Y-133293186D01*
X178658150Y-133646613D01*
X178306739Y-133937327D01*
X177905564Y-134154240D01*
X177469886Y-134289106D01*
X176983762Y-134340200D01*
X143034319Y-134340200D01*
X142546106Y-134292330D01*
X142109503Y-134160512D01*
X141706814Y-133946399D01*
X141353387Y-133658150D01*
X141062673Y-133306739D01*
X140845760Y-132905564D01*
X140710894Y-132469886D01*
X140660000Y-131985664D01*
X140660000Y-95500200D01*
X141061928Y-95500200D01*
X141074188Y-95624682D01*
X141110498Y-95744380D01*
X141169463Y-95854694D01*
X141248815Y-95951385D01*
X141345506Y-96030737D01*
X141455820Y-96089702D01*
X141575518Y-96126012D01*
X141700000Y-96138272D01*
X142414250Y-96135200D01*
X142573000Y-95976450D01*
X142573000Y-94627200D01*
X141223750Y-94627200D01*
X141065000Y-94785950D01*
X141061928Y-95500200D01*
X140660000Y-95500200D01*
X140660000Y-93500200D01*
X141061928Y-93500200D01*
X141065000Y-94214450D01*
X141223750Y-94373200D01*
X142573000Y-94373200D01*
X142573000Y-93023950D01*
X142414250Y-92865200D01*
X141700000Y-92862128D01*
X141575518Y-92874388D01*
X141455820Y-92910698D01*
X141345506Y-92969663D01*
X141248815Y-93049015D01*
X141169463Y-93145706D01*
X141110498Y-93256020D01*
X141074188Y-93375718D01*
X141061928Y-93500200D01*
X140660000Y-93500200D01*
X140660000Y-63032279D01*
X140707670Y-62546107D01*
X140839489Y-62109502D01*
X141053600Y-61706815D01*
X141341848Y-61353388D01*
X141693261Y-61062673D01*
X142094439Y-60845758D01*
X142530113Y-60710894D01*
X143012441Y-60660200D01*
X176969761Y-60660200D01*
X177453893Y-60707670D01*
G37*
X177453893Y-60707670D02*
X177890498Y-60839489D01*
X178293185Y-61053600D01*
X178646612Y-61341848D01*
X178937327Y-61693261D01*
X179154242Y-62094439D01*
X179289106Y-62530113D01*
X179340000Y-63014344D01*
X179340000Y-71253102D01*
X171290563Y-63203665D01*
X175849400Y-63203665D01*
X175849400Y-63486335D01*
X175904547Y-63763574D01*
X176012720Y-64024727D01*
X176169763Y-64259759D01*
X176369641Y-64459637D01*
X176604673Y-64616680D01*
X176865826Y-64724853D01*
X177143065Y-64780000D01*
X177425735Y-64780000D01*
X177702974Y-64724853D01*
X177964127Y-64616680D01*
X178199159Y-64459637D01*
X178399037Y-64259759D01*
X178556080Y-64024727D01*
X178664253Y-63763574D01*
X178719400Y-63486335D01*
X178719400Y-63203665D01*
X178664253Y-62926426D01*
X178556080Y-62665273D01*
X178399037Y-62430241D01*
X178199159Y-62230363D01*
X177964127Y-62073320D01*
X177702974Y-61965147D01*
X177425735Y-61910000D01*
X177143065Y-61910000D01*
X176865826Y-61965147D01*
X176604673Y-62073320D01*
X176369641Y-62230363D01*
X176169763Y-62430241D01*
X176012720Y-62665273D01*
X175904547Y-62926426D01*
X175849400Y-63203665D01*
X171290563Y-63203665D01*
X169147758Y-61060861D01*
X169115942Y-61022093D01*
X168961236Y-60895129D01*
X168784733Y-60800787D01*
X168593217Y-60742691D01*
X168443948Y-60727989D01*
X168394046Y-60723074D01*
X168344144Y-60727989D01*
X165371304Y-60727989D01*
X165321410Y-60723075D01*
X165271516Y-60727989D01*
X165271509Y-60727989D01*
X165141588Y-60740785D01*
X165122239Y-60742691D01*
X165081890Y-60754931D01*
X164930724Y-60800787D01*
X164754221Y-60895129D01*
X164599515Y-61022093D01*
X164567703Y-61060856D01*
X158123294Y-67505266D01*
X158028141Y-67621211D01*
X157933799Y-67797713D01*
X157875702Y-67989230D01*
X157856085Y-68188400D01*
X157875702Y-68387570D01*
X157933799Y-68579087D01*
X158028141Y-68755589D01*
X158155105Y-68910295D01*
X158309811Y-69037259D01*
X158486313Y-69131601D01*
X158677830Y-69189698D01*
X158877000Y-69209315D01*
X159076170Y-69189698D01*
X159267687Y-69131601D01*
X159444189Y-69037259D01*
X159560134Y-68942106D01*
X160820101Y-67682139D01*
X160820100Y-71020510D01*
X150512959Y-71020510D01*
X150403488Y-70961997D01*
X150211972Y-70903901D01*
X150062703Y-70889199D01*
X150012801Y-70884284D01*
X149962899Y-70889199D01*
X146097101Y-70889199D01*
X146047199Y-70884284D01*
X145997297Y-70889199D01*
X145848028Y-70903901D01*
X145656512Y-70961997D01*
X145480009Y-71056339D01*
X145325303Y-71183303D01*
X145293491Y-71222066D01*
X144591871Y-71923687D01*
X144553103Y-71955503D01*
X144426139Y-72110209D01*
X144331797Y-72286713D01*
X144284496Y-72442643D01*
X144273701Y-72478229D01*
X144254084Y-72677399D01*
X144258999Y-72727301D01*
X144259000Y-93198955D01*
X144230537Y-93145706D01*
X144151185Y-93049015D01*
X144054494Y-92969663D01*
X143944180Y-92910698D01*
X143824482Y-92874388D01*
X143700000Y-92862128D01*
X142985750Y-92865200D01*
X142827000Y-93023950D01*
X142827000Y-94373200D01*
X142847000Y-94373200D01*
X142847000Y-94627200D01*
X142827000Y-94627200D01*
X142827000Y-95976450D01*
X142985750Y-96135200D01*
X143700000Y-96138272D01*
X143824482Y-96126012D01*
X143944180Y-96089702D01*
X144054494Y-96030737D01*
X144151185Y-95951385D01*
X144230537Y-95854694D01*
X144259000Y-95801445D01*
X144259000Y-99198955D01*
X144230537Y-99145706D01*
X144151185Y-99049015D01*
X144054494Y-98969663D01*
X143944180Y-98910698D01*
X143824482Y-98874388D01*
X143700000Y-98862128D01*
X141700000Y-98862128D01*
X141575518Y-98874388D01*
X141455820Y-98910698D01*
X141345506Y-98969663D01*
X141248815Y-99049015D01*
X141169463Y-99145706D01*
X141110498Y-99256020D01*
X141074188Y-99375718D01*
X141061928Y-99500200D01*
X141061928Y-101500200D01*
X141074188Y-101624682D01*
X141110498Y-101744380D01*
X141169463Y-101854694D01*
X141248815Y-101951385D01*
X141345506Y-102030737D01*
X141455820Y-102089702D01*
X141575518Y-102126012D01*
X141700000Y-102138272D01*
X141938000Y-102138272D01*
X141938001Y-114372647D01*
X141934314Y-114410080D01*
X141949027Y-114559458D01*
X141992599Y-114703095D01*
X142063355Y-114835472D01*
X142103339Y-114884192D01*
X142158579Y-114951502D01*
X142187649Y-114975359D01*
X145514132Y-118301843D01*
X145444010Y-118406789D01*
X145332068Y-118677042D01*
X145275000Y-118963940D01*
X145275000Y-119256460D01*
X145332068Y-119543358D01*
X145444010Y-119813611D01*
X145606525Y-120056832D01*
X145813368Y-120263675D01*
X145987760Y-120380200D01*
X145813368Y-120496725D01*
X145606525Y-120703568D01*
X145444010Y-120946789D01*
X145332068Y-121217042D01*
X145275000Y-121503940D01*
X145275000Y-121796460D01*
X145332068Y-122083358D01*
X145444010Y-122353611D01*
X145606525Y-122596832D01*
X145813368Y-122803675D01*
X146056589Y-122966190D01*
X146326842Y-123078132D01*
X146613740Y-123135200D01*
X146906260Y-123135200D01*
X147193158Y-123078132D01*
X147463411Y-122966190D01*
X147706632Y-122803675D01*
X147913475Y-122596832D01*
X148030000Y-122422440D01*
X148146525Y-122596832D01*
X148353368Y-122803675D01*
X148596589Y-122966190D01*
X148866842Y-123078132D01*
X149153740Y-123135200D01*
X149446260Y-123135200D01*
X149733158Y-123078132D01*
X150003411Y-122966190D01*
X150246632Y-122803675D01*
X150453475Y-122596832D01*
X150615990Y-122353611D01*
X150727932Y-122083358D01*
X150785000Y-121796460D01*
X150785000Y-121602040D01*
X151803133Y-120583908D01*
X151841896Y-120552096D01*
X151968860Y-120397390D01*
X152063202Y-120220887D01*
X152121298Y-120029371D01*
X152136000Y-119880102D01*
X152140915Y-119830200D01*
X152136000Y-119780298D01*
X152136000Y-118884307D01*
X152273475Y-118746832D01*
X152395195Y-118564666D01*
X152464822Y-118681555D01*
X152659731Y-118897788D01*
X152893080Y-119071841D01*
X153155901Y-119197025D01*
X153303110Y-119241676D01*
X153533000Y-119120355D01*
X153533000Y-117927200D01*
X153513000Y-117927200D01*
X153513000Y-117673200D01*
X153533000Y-117673200D01*
X153533000Y-116480045D01*
X153303110Y-116358724D01*
X153155901Y-116403375D01*
X152893080Y-116528559D01*
X152659731Y-116702612D01*
X152464822Y-116918845D01*
X152395195Y-117035734D01*
X152273475Y-116853568D01*
X152136000Y-116716093D01*
X152136000Y-115502032D01*
X152228340Y-115520400D01*
X152520860Y-115520400D01*
X152807758Y-115463332D01*
X153078011Y-115351390D01*
X153321232Y-115188875D01*
X153528075Y-114982032D01*
X153644600Y-114807640D01*
X153761125Y-114982032D01*
X153967968Y-115188875D01*
X154211189Y-115351390D01*
X154481442Y-115463332D01*
X154768340Y-115520400D01*
X155060860Y-115520400D01*
X155347758Y-115463332D01*
X155438001Y-115425952D01*
X155438000Y-116523358D01*
X155253368Y-116646725D01*
X155046525Y-116853568D01*
X154924805Y-117035734D01*
X154855178Y-116918845D01*
X154660269Y-116702612D01*
X154426920Y-116528559D01*
X154164099Y-116403375D01*
X154016890Y-116358724D01*
X153787000Y-116480045D01*
X153787000Y-117673200D01*
X153807000Y-117673200D01*
X153807000Y-117927200D01*
X153787000Y-117927200D01*
X153787000Y-119120355D01*
X154016890Y-119241676D01*
X154164099Y-119197025D01*
X154426920Y-119071841D01*
X154660269Y-118897788D01*
X154855178Y-118681555D01*
X154924805Y-118564666D01*
X155046525Y-118746832D01*
X155253368Y-118953675D01*
X155496589Y-119116190D01*
X155766842Y-119228132D01*
X156053740Y-119285200D01*
X156346260Y-119285200D01*
X156633158Y-119228132D01*
X156903411Y-119116190D01*
X157146632Y-118953675D01*
X157353475Y-118746832D01*
X157470000Y-118572440D01*
X157586525Y-118746832D01*
X157793368Y-118953675D01*
X158036589Y-119116190D01*
X158306842Y-119228132D01*
X158593740Y-119285200D01*
X158886260Y-119285200D01*
X159173158Y-119228132D01*
X159443411Y-119116190D01*
X159686632Y-118953675D01*
X159893475Y-118746832D01*
X160010000Y-118572440D01*
X160126525Y-118746832D01*
X160333368Y-118953675D01*
X160576589Y-119116190D01*
X160846842Y-119228132D01*
X161133740Y-119285200D01*
X161426260Y-119285200D01*
X161713158Y-119228132D01*
X161983411Y-119116190D01*
X162226632Y-118953675D01*
X162433475Y-118746832D01*
X162550000Y-118572440D01*
X162666525Y-118746832D01*
X162873368Y-118953675D01*
X163116589Y-119116190D01*
X163386842Y-119228132D01*
X163673740Y-119285200D01*
X163966260Y-119285200D01*
X164253158Y-119228132D01*
X164523411Y-119116190D01*
X164766632Y-118953675D01*
X164973475Y-118746832D01*
X165090000Y-118572440D01*
X165206525Y-118746832D01*
X165413368Y-118953675D01*
X165656589Y-119116190D01*
X165926842Y-119228132D01*
X166213740Y-119285200D01*
X166506260Y-119285200D01*
X166793158Y-119228132D01*
X167063411Y-119116190D01*
X167306632Y-118953675D01*
X167513475Y-118746832D01*
X167630000Y-118572440D01*
X167746525Y-118746832D01*
X167953368Y-118953675D01*
X168196589Y-119116190D01*
X168289696Y-119154756D01*
X166932052Y-120512400D01*
X154627581Y-120512400D01*
X154521562Y-120441560D01*
X154350529Y-120370716D01*
X154168962Y-120334600D01*
X153983838Y-120334600D01*
X153802271Y-120370716D01*
X153631238Y-120441560D01*
X153477313Y-120544410D01*
X153346410Y-120675313D01*
X153243560Y-120829238D01*
X153172716Y-121000271D01*
X153136600Y-121181838D01*
X153136600Y-121366962D01*
X153172716Y-121548529D01*
X153243560Y-121719562D01*
X153346410Y-121873487D01*
X153477313Y-122004390D01*
X153631238Y-122107240D01*
X153802271Y-122178084D01*
X153983838Y-122214200D01*
X154168962Y-122214200D01*
X154350529Y-122178084D01*
X154521562Y-122107240D01*
X154627581Y-122036400D01*
X167210259Y-122036400D01*
X167247682Y-122040086D01*
X167285105Y-122036400D01*
X167285108Y-122036400D01*
X167397060Y-122025374D01*
X167540697Y-121981802D01*
X167673074Y-121911045D01*
X167789104Y-121815822D01*
X167812966Y-121786746D01*
X170643353Y-118956360D01*
X170672423Y-118932503D01*
X170709768Y-118886998D01*
X170767646Y-118816474D01*
X170806703Y-118743402D01*
X170838403Y-118684096D01*
X170881975Y-118540459D01*
X170893001Y-118428507D01*
X170893001Y-118428504D01*
X170896687Y-118391081D01*
X170893001Y-118353658D01*
X170893001Y-92032142D01*
X170896687Y-91994719D01*
X170886041Y-91886628D01*
X170881975Y-91845341D01*
X170838403Y-91701704D01*
X170767647Y-91569328D01*
X170767646Y-91569326D01*
X170696280Y-91482367D01*
X170672423Y-91453297D01*
X170643354Y-91429441D01*
X164873265Y-85659353D01*
X164849403Y-85630277D01*
X164733373Y-85535054D01*
X164600996Y-85464297D01*
X164457359Y-85420725D01*
X164345407Y-85409699D01*
X164345404Y-85409699D01*
X164325310Y-85407720D01*
X167275952Y-82457079D01*
X167493740Y-82500400D01*
X167786260Y-82500400D01*
X168073158Y-82443332D01*
X168343411Y-82331390D01*
X168586632Y-82168875D01*
X168793475Y-81962032D01*
X168955990Y-81718811D01*
X169067932Y-81448558D01*
X169125000Y-81161660D01*
X169125000Y-80869140D01*
X169067932Y-80582242D01*
X168955990Y-80311989D01*
X168793475Y-80068768D01*
X168586632Y-79861925D01*
X168343411Y-79699410D01*
X168073158Y-79587468D01*
X167876765Y-79548403D01*
X167941389Y-79513861D01*
X168096095Y-79386897D01*
X168127912Y-79348128D01*
X168811040Y-78665000D01*
X169005460Y-78665000D01*
X169292358Y-78607932D01*
X169562611Y-78495990D01*
X169805832Y-78333475D01*
X170012675Y-78126632D01*
X170175190Y-77883411D01*
X170287132Y-77613158D01*
X170344200Y-77326260D01*
X170344200Y-77033740D01*
X170287132Y-76746842D01*
X170175190Y-76476589D01*
X170012675Y-76233368D01*
X169805832Y-76026525D01*
X169562611Y-75864010D01*
X169292358Y-75752068D01*
X169005460Y-75695000D01*
X168712940Y-75695000D01*
X168426042Y-75752068D01*
X168155789Y-75864010D01*
X167912568Y-76026525D01*
X167705725Y-76233368D01*
X167584005Y-76415534D01*
X167514378Y-76298645D01*
X167319469Y-76082412D01*
X167086120Y-75908359D01*
X166823299Y-75783175D01*
X166676090Y-75738524D01*
X166446200Y-75859845D01*
X166446200Y-77053000D01*
X166466200Y-77053000D01*
X166466200Y-77307000D01*
X166446200Y-77307000D01*
X166446200Y-77327000D01*
X166192200Y-77327000D01*
X166192200Y-77307000D01*
X166172200Y-77307000D01*
X166172200Y-77053000D01*
X166192200Y-77053000D01*
X166192200Y-75859845D01*
X165962310Y-75738524D01*
X165815101Y-75783175D01*
X165552280Y-75908359D01*
X165318931Y-76082412D01*
X165124022Y-76298645D01*
X165054395Y-76415534D01*
X164932675Y-76233368D01*
X164725832Y-76026525D01*
X164482611Y-75864010D01*
X164212358Y-75752068D01*
X163925460Y-75695000D01*
X163632940Y-75695000D01*
X163346042Y-75752068D01*
X163075789Y-75864010D01*
X162832568Y-76026525D01*
X162625725Y-76233368D01*
X162509200Y-76407760D01*
X162392675Y-76233368D01*
X162185832Y-76026525D01*
X161942611Y-75864010D01*
X161672358Y-75752068D01*
X161385460Y-75695000D01*
X161092940Y-75695000D01*
X160806042Y-75752068D01*
X160535789Y-75864010D01*
X160292568Y-76026525D01*
X160085725Y-76233368D01*
X159969200Y-76407760D01*
X159852675Y-76233368D01*
X159645832Y-76026525D01*
X159402611Y-75864010D01*
X159132358Y-75752068D01*
X158845460Y-75695000D01*
X158552940Y-75695000D01*
X158266042Y-75752068D01*
X157995789Y-75864010D01*
X157752568Y-76026525D01*
X157545725Y-76233368D01*
X157429200Y-76407760D01*
X157312675Y-76233368D01*
X157105832Y-76026525D01*
X156862611Y-75864010D01*
X156592358Y-75752068D01*
X156305460Y-75695000D01*
X156012940Y-75695000D01*
X155726042Y-75752068D01*
X155455789Y-75864010D01*
X155212568Y-76026525D01*
X155005725Y-76233368D01*
X154889200Y-76407760D01*
X154772675Y-76233368D01*
X154565832Y-76026525D01*
X154322611Y-75864010D01*
X154052358Y-75752068D01*
X153765460Y-75695000D01*
X153472940Y-75695000D01*
X153186042Y-75752068D01*
X152915789Y-75864010D01*
X152672568Y-76026525D01*
X152465725Y-76233368D01*
X152349200Y-76407760D01*
X152232675Y-76233368D01*
X152025832Y-76026525D01*
X151782611Y-75864010D01*
X151512358Y-75752068D01*
X151225460Y-75695000D01*
X150932940Y-75695000D01*
X150773613Y-75726692D01*
X150727932Y-75497042D01*
X150615990Y-75226789D01*
X150453475Y-74983568D01*
X150246632Y-74776725D01*
X150064466Y-74655005D01*
X150181355Y-74585378D01*
X150397588Y-74390469D01*
X150571641Y-74157120D01*
X150696825Y-73894299D01*
X150741476Y-73747090D01*
X150620155Y-73517200D01*
X149427000Y-73517200D01*
X149427000Y-73537200D01*
X149173000Y-73537200D01*
X149173000Y-73517200D01*
X149153000Y-73517200D01*
X149153000Y-73263200D01*
X149173000Y-73263200D01*
X149173000Y-73243200D01*
X149427000Y-73243200D01*
X149427000Y-73263200D01*
X150620155Y-73263200D01*
X150659997Y-73187702D01*
X166471303Y-73187702D01*
X166542886Y-73431671D01*
X166798396Y-73552571D01*
X167072584Y-73621300D01*
X167354912Y-73635217D01*
X167634530Y-73593787D01*
X167900692Y-73498603D01*
X168025914Y-73431671D01*
X168097497Y-73187702D01*
X167284400Y-72374605D01*
X166471303Y-73187702D01*
X150659997Y-73187702D01*
X150731343Y-73052510D01*
X162207043Y-73052510D01*
X162256945Y-73057425D01*
X162306847Y-73052510D01*
X162456116Y-73037808D01*
X162647632Y-72979712D01*
X162824135Y-72885370D01*
X162978841Y-72758406D01*
X163010658Y-72719637D01*
X163535237Y-72195058D01*
X163574006Y-72163241D01*
X163700970Y-72008535D01*
X163795312Y-71832032D01*
X163853408Y-71640516D01*
X163868110Y-71491247D01*
X163868110Y-71491240D01*
X163873024Y-71441346D01*
X163868110Y-71391452D01*
X163868110Y-68761630D01*
X165937240Y-66692501D01*
X166012720Y-66874727D01*
X166169763Y-67109759D01*
X166255004Y-67195000D01*
X166169763Y-67280241D01*
X166012720Y-67515273D01*
X165904547Y-67776426D01*
X165849400Y-68053665D01*
X165849400Y-68336335D01*
X165904547Y-68613574D01*
X166012720Y-68874727D01*
X166169763Y-69109759D01*
X166255004Y-69195000D01*
X166169763Y-69280241D01*
X166012720Y-69515273D01*
X165904547Y-69776426D01*
X165849400Y-70053665D01*
X165849400Y-70336335D01*
X165904547Y-70613574D01*
X166012720Y-70874727D01*
X166169763Y-71109759D01*
X166250529Y-71190525D01*
X166175423Y-71265630D01*
X166291696Y-71381903D01*
X166047729Y-71453486D01*
X165926829Y-71708996D01*
X165858100Y-71983184D01*
X165844183Y-72265512D01*
X165885613Y-72545130D01*
X165980797Y-72811292D01*
X166047729Y-72936514D01*
X166291698Y-73008097D01*
X167104795Y-72195000D01*
X167090653Y-72180858D01*
X167270258Y-72001253D01*
X167284400Y-72015395D01*
X167298543Y-72001253D01*
X167478148Y-72180858D01*
X167464005Y-72195000D01*
X168277102Y-73008097D01*
X168521071Y-72936514D01*
X168641971Y-72681004D01*
X168710700Y-72406816D01*
X168724617Y-72124488D01*
X168683187Y-71844870D01*
X168588003Y-71578708D01*
X168521071Y-71453486D01*
X168277104Y-71381903D01*
X168393377Y-71265630D01*
X168318272Y-71190525D01*
X168399037Y-71109759D01*
X168556080Y-70874727D01*
X168664253Y-70613574D01*
X168719400Y-70336335D01*
X168719400Y-70053665D01*
X168664253Y-69776426D01*
X168556080Y-69515273D01*
X168399037Y-69280241D01*
X168313796Y-69195000D01*
X168399037Y-69109759D01*
X168556080Y-68874727D01*
X168664253Y-68613574D01*
X168719400Y-68336335D01*
X168719400Y-68053665D01*
X168664253Y-67776426D01*
X168556080Y-67515273D01*
X168399037Y-67280241D01*
X168313796Y-67195000D01*
X168399037Y-67109759D01*
X168556080Y-66874727D01*
X168664253Y-66613574D01*
X168719400Y-66336335D01*
X168719400Y-66053665D01*
X168664253Y-65776426D01*
X168556080Y-65515273D01*
X168399037Y-65280241D01*
X168313796Y-65195000D01*
X168399037Y-65109759D01*
X168556080Y-64874727D01*
X168583907Y-64807546D01*
X174833399Y-71057038D01*
X174833400Y-121597659D01*
X169263760Y-127167300D01*
X169124265Y-127167300D01*
X168847026Y-127222447D01*
X168585873Y-127330620D01*
X168350841Y-127487663D01*
X168150963Y-127687541D01*
X167993920Y-127922573D01*
X167885747Y-128183726D01*
X167830600Y-128460965D01*
X167830600Y-128743635D01*
X167885747Y-129020874D01*
X167885924Y-129021301D01*
X163501441Y-129021301D01*
X163199310Y-128719170D01*
X163199305Y-128719164D01*
X163080600Y-128600459D01*
X163080600Y-128460965D01*
X163025453Y-128183726D01*
X162917280Y-127922573D01*
X162760237Y-127687541D01*
X162560359Y-127487663D01*
X162325327Y-127330620D01*
X162064174Y-127222447D01*
X161786935Y-127167300D01*
X161504265Y-127167300D01*
X161227026Y-127222447D01*
X160965873Y-127330620D01*
X160730841Y-127487663D01*
X160530963Y-127687541D01*
X160373920Y-127922573D01*
X160265747Y-128183726D01*
X160210600Y-128460965D01*
X160210600Y-128743635D01*
X160265747Y-129020874D01*
X160373920Y-129282027D01*
X160530963Y-129517059D01*
X160730841Y-129716937D01*
X160965873Y-129873980D01*
X161227026Y-129982153D01*
X161504265Y-130037300D01*
X161643759Y-130037300D01*
X161762464Y-130156005D01*
X161762470Y-130156010D01*
X162326888Y-130720428D01*
X162358705Y-130759197D01*
X162513411Y-130886161D01*
X162689914Y-130980503D01*
X162823333Y-131020975D01*
X162881429Y-131038599D01*
X162900778Y-131040505D01*
X163030699Y-131053301D01*
X163030706Y-131053301D01*
X163080600Y-131058215D01*
X163130494Y-131053301D01*
X169904499Y-131053301D01*
X169954401Y-131058216D01*
X170004303Y-131053301D01*
X170153572Y-131038599D01*
X170345088Y-130980503D01*
X170521591Y-130886161D01*
X170676297Y-130759197D01*
X170708113Y-130720429D01*
X179340001Y-122088542D01*
X179340001Y-131967711D01*
X179292330Y-132453894D01*
X179160512Y-132890497D01*
X178946399Y-133293186D01*
X178658150Y-133646613D01*
X178306739Y-133937327D01*
X177905564Y-134154240D01*
X177469886Y-134289106D01*
X176983762Y-134340200D01*
X143034319Y-134340200D01*
X142546106Y-134292330D01*
X142109503Y-134160512D01*
X141706814Y-133946399D01*
X141353387Y-133658150D01*
X141062673Y-133306739D01*
X140845760Y-132905564D01*
X140710894Y-132469886D01*
X140660000Y-131985664D01*
X140660000Y-95500200D01*
X141061928Y-95500200D01*
X141074188Y-95624682D01*
X141110498Y-95744380D01*
X141169463Y-95854694D01*
X141248815Y-95951385D01*
X141345506Y-96030737D01*
X141455820Y-96089702D01*
X141575518Y-96126012D01*
X141700000Y-96138272D01*
X142414250Y-96135200D01*
X142573000Y-95976450D01*
X142573000Y-94627200D01*
X141223750Y-94627200D01*
X141065000Y-94785950D01*
X141061928Y-95500200D01*
X140660000Y-95500200D01*
X140660000Y-93500200D01*
X141061928Y-93500200D01*
X141065000Y-94214450D01*
X141223750Y-94373200D01*
X142573000Y-94373200D01*
X142573000Y-93023950D01*
X142414250Y-92865200D01*
X141700000Y-92862128D01*
X141575518Y-92874388D01*
X141455820Y-92910698D01*
X141345506Y-92969663D01*
X141248815Y-93049015D01*
X141169463Y-93145706D01*
X141110498Y-93256020D01*
X141074188Y-93375718D01*
X141061928Y-93500200D01*
X140660000Y-93500200D01*
X140660000Y-63032279D01*
X140707670Y-62546107D01*
X140839489Y-62109502D01*
X141053600Y-61706815D01*
X141341848Y-61353388D01*
X141693261Y-61062673D01*
X142094439Y-60845758D01*
X142530113Y-60710894D01*
X143012441Y-60660200D01*
X176969761Y-60660200D01*
X177453893Y-60707670D01*
G36*
X146887000Y-116443200D02*
G01*
X146907000Y-116443200D01*
X146907000Y-116697200D01*
X146887000Y-116697200D01*
X146887000Y-116717200D01*
X146633000Y-116717200D01*
X146633000Y-116697200D01*
X146613000Y-116697200D01*
X146613000Y-116443200D01*
X146633000Y-116443200D01*
X146633000Y-116423200D01*
X146887000Y-116423200D01*
X146887000Y-116443200D01*
G37*
X146887000Y-116443200D02*
X146907000Y-116443200D01*
X146907000Y-116697200D01*
X146887000Y-116697200D01*
X146887000Y-116717200D01*
X146633000Y-116717200D01*
X146633000Y-116697200D01*
X146613000Y-116697200D01*
X146613000Y-116443200D01*
X146633000Y-116443200D01*
X146633000Y-116423200D01*
X146887000Y-116423200D01*
X146887000Y-116443200D01*
G36*
X144259000Y-107415287D02*
G01*
X144254084Y-107465199D01*
X144273701Y-107664369D01*
X144319149Y-107814189D01*
X144331798Y-107855886D01*
X144426140Y-108032389D01*
X144553104Y-108187095D01*
X144591867Y-108218907D01*
X145275000Y-108902040D01*
X145275000Y-109096460D01*
X145332068Y-109383358D01*
X145444010Y-109653611D01*
X145606525Y-109896832D01*
X145813368Y-110103675D01*
X145987760Y-110220200D01*
X145813368Y-110336725D01*
X145606525Y-110543568D01*
X145444010Y-110786789D01*
X145332068Y-111057042D01*
X145275000Y-111343940D01*
X145275000Y-111636460D01*
X145332068Y-111923358D01*
X145444010Y-112193611D01*
X145606525Y-112436832D01*
X145813368Y-112643675D01*
X145987760Y-112760200D01*
X145813368Y-112876725D01*
X145606525Y-113083568D01*
X145444010Y-113326789D01*
X145332068Y-113597042D01*
X145275000Y-113883940D01*
X145275000Y-114176460D01*
X145332068Y-114463358D01*
X145444010Y-114733611D01*
X145606525Y-114976832D01*
X145813368Y-115183675D01*
X145995534Y-115305395D01*
X145878645Y-115375022D01*
X145662412Y-115569931D01*
X145488359Y-115803280D01*
X145385913Y-116018363D01*
X143462000Y-114094450D01*
X143462000Y-102138272D01*
X143700000Y-102138272D01*
X143824482Y-102126012D01*
X143944180Y-102089702D01*
X144054494Y-102030737D01*
X144151185Y-101951385D01*
X144230537Y-101854694D01*
X144259000Y-101801445D01*
X144259000Y-107415287D01*
G37*
X144259000Y-107415287D02*
X144254084Y-107465199D01*
X144273701Y-107664369D01*
X144319149Y-107814189D01*
X144331798Y-107855886D01*
X144426140Y-108032389D01*
X144553104Y-108187095D01*
X144591867Y-108218907D01*
X145275000Y-108902040D01*
X145275000Y-109096460D01*
X145332068Y-109383358D01*
X145444010Y-109653611D01*
X145606525Y-109896832D01*
X145813368Y-110103675D01*
X145987760Y-110220200D01*
X145813368Y-110336725D01*
X145606525Y-110543568D01*
X145444010Y-110786789D01*
X145332068Y-111057042D01*
X145275000Y-111343940D01*
X145275000Y-111636460D01*
X145332068Y-111923358D01*
X145444010Y-112193611D01*
X145606525Y-112436832D01*
X145813368Y-112643675D01*
X145987760Y-112760200D01*
X145813368Y-112876725D01*
X145606525Y-113083568D01*
X145444010Y-113326789D01*
X145332068Y-113597042D01*
X145275000Y-113883940D01*
X145275000Y-114176460D01*
X145332068Y-114463358D01*
X145444010Y-114733611D01*
X145606525Y-114976832D01*
X145813368Y-115183675D01*
X145995534Y-115305395D01*
X145878645Y-115375022D01*
X145662412Y-115569931D01*
X145488359Y-115803280D01*
X145385913Y-116018363D01*
X143462000Y-114094450D01*
X143462000Y-102138272D01*
X143700000Y-102138272D01*
X143824482Y-102126012D01*
X143944180Y-102089702D01*
X144054494Y-102030737D01*
X144151185Y-101951385D01*
X144230537Y-101854694D01*
X144259000Y-101801445D01*
X144259000Y-107415287D01*
G36*
X167808348Y-114021258D02*
G01*
X167794205Y-114035400D01*
X167808348Y-114049543D01*
X167628743Y-114229148D01*
X167614600Y-114215005D01*
X167600458Y-114229148D01*
X167420853Y-114049543D01*
X167434995Y-114035400D01*
X167420853Y-114021258D01*
X167600458Y-113841653D01*
X167614600Y-113855795D01*
X167628743Y-113841653D01*
X167808348Y-114021258D01*
G37*
X167808348Y-114021258D02*
X167794205Y-114035400D01*
X167808348Y-114049543D01*
X167628743Y-114229148D01*
X167614600Y-114215005D01*
X167600458Y-114229148D01*
X167420853Y-114049543D01*
X167434995Y-114035400D01*
X167420853Y-114021258D01*
X167600458Y-113841653D01*
X167614600Y-113855795D01*
X167628743Y-113841653D01*
X167808348Y-114021258D01*
G36*
X161798099Y-88674275D02*
G01*
X161794413Y-88711699D01*
X161798099Y-88749122D01*
X161798099Y-88749124D01*
X161809125Y-88861076D01*
X161852697Y-89004713D01*
X161852698Y-89004714D01*
X161923454Y-89137091D01*
X161963082Y-89185377D01*
X162018677Y-89253121D01*
X162047753Y-89276983D01*
X162341943Y-89571173D01*
X162306100Y-89751365D01*
X162306100Y-90034035D01*
X162361247Y-90311274D01*
X162469420Y-90572427D01*
X162626463Y-90807459D01*
X162826341Y-91007337D01*
X163058859Y-91162700D01*
X162826341Y-91318063D01*
X162626463Y-91517941D01*
X162469420Y-91752973D01*
X162361247Y-92014126D01*
X162306100Y-92291365D01*
X162306100Y-92574035D01*
X162361247Y-92851274D01*
X162469420Y-93112427D01*
X162626463Y-93347459D01*
X162826341Y-93547337D01*
X163058859Y-93702700D01*
X162826341Y-93858063D01*
X162626463Y-94057941D01*
X162469420Y-94292973D01*
X162361247Y-94554126D01*
X162306100Y-94831365D01*
X162306100Y-95114035D01*
X162361247Y-95391274D01*
X162469420Y-95652427D01*
X162626463Y-95887459D01*
X162826341Y-96087337D01*
X163061373Y-96244380D01*
X163071965Y-96248767D01*
X162885969Y-96360315D01*
X162677581Y-96549286D01*
X162510063Y-96775280D01*
X162389854Y-97029613D01*
X162349196Y-97163661D01*
X162471185Y-97385700D01*
X163614100Y-97385700D01*
X163614100Y-97365700D01*
X163868100Y-97365700D01*
X163868100Y-97385700D01*
X165011015Y-97385700D01*
X165034224Y-97343455D01*
X165176121Y-97485352D01*
X165176121Y-100410091D01*
X165140257Y-100374227D01*
X165176100Y-100194035D01*
X165176100Y-99911365D01*
X165120953Y-99634126D01*
X165012780Y-99372973D01*
X164855737Y-99137941D01*
X164655859Y-98938063D01*
X164420827Y-98781020D01*
X164410235Y-98776633D01*
X164596231Y-98665085D01*
X164804619Y-98476114D01*
X164972137Y-98250120D01*
X165092346Y-97995787D01*
X165133004Y-97861739D01*
X165011015Y-97639700D01*
X163868100Y-97639700D01*
X163868100Y-97659700D01*
X163614100Y-97659700D01*
X163614100Y-97639700D01*
X162471185Y-97639700D01*
X162349196Y-97861739D01*
X162389854Y-97995787D01*
X162510063Y-98250120D01*
X162677581Y-98476114D01*
X162885969Y-98665085D01*
X163071965Y-98776633D01*
X163061373Y-98781020D01*
X162826341Y-98938063D01*
X162626463Y-99137941D01*
X162469420Y-99372973D01*
X162361247Y-99634126D01*
X162306100Y-99911365D01*
X162306100Y-100194035D01*
X162361247Y-100471274D01*
X162469420Y-100732427D01*
X162626463Y-100967459D01*
X162826341Y-101167337D01*
X163058859Y-101322700D01*
X162826341Y-101478063D01*
X162626463Y-101677941D01*
X162469420Y-101912973D01*
X162361247Y-102174126D01*
X162306100Y-102451365D01*
X162306100Y-102734035D01*
X162361247Y-103011274D01*
X162469420Y-103272427D01*
X162626463Y-103507459D01*
X162826341Y-103707337D01*
X163058859Y-103862700D01*
X162826341Y-104018063D01*
X162626463Y-104217941D01*
X162469420Y-104452973D01*
X162361247Y-104714126D01*
X162306100Y-104991365D01*
X162306100Y-105274035D01*
X162361247Y-105551274D01*
X162469420Y-105812427D01*
X162626463Y-106047459D01*
X162826341Y-106247337D01*
X163058859Y-106402700D01*
X162826341Y-106558063D01*
X162626463Y-106757941D01*
X162524393Y-106910700D01*
X162032841Y-106910700D01*
X161995418Y-106907014D01*
X161957995Y-106910700D01*
X161957992Y-106910700D01*
X161846040Y-106921726D01*
X161702403Y-106965298D01*
X161650627Y-106992973D01*
X161570025Y-107036055D01*
X161493445Y-107098903D01*
X161453996Y-107131278D01*
X161430139Y-107160348D01*
X155769714Y-112820774D01*
X155618011Y-112719410D01*
X155347758Y-112607468D01*
X155060860Y-112550400D01*
X154768340Y-112550400D01*
X154481442Y-112607468D01*
X154211189Y-112719410D01*
X153967968Y-112881925D01*
X153761125Y-113088768D01*
X153644600Y-113263160D01*
X153528075Y-113088768D01*
X153321232Y-112881925D01*
X153078011Y-112719410D01*
X152807758Y-112607468D01*
X152520860Y-112550400D01*
X152228340Y-112550400D01*
X151941442Y-112607468D01*
X151905599Y-112622315D01*
X151905599Y-108859085D01*
X154890611Y-105874074D01*
X155006463Y-106047459D01*
X155206341Y-106247337D01*
X155438859Y-106402700D01*
X155206341Y-106558063D01*
X155006463Y-106757941D01*
X154849420Y-106992973D01*
X154741247Y-107254126D01*
X154686100Y-107531365D01*
X154686100Y-107814035D01*
X154741247Y-108091274D01*
X154849420Y-108352427D01*
X155006463Y-108587459D01*
X155206341Y-108787337D01*
X155441373Y-108944380D01*
X155702526Y-109052553D01*
X155979765Y-109107700D01*
X156262435Y-109107700D01*
X156539674Y-109052553D01*
X156800827Y-108944380D01*
X157035859Y-108787337D01*
X157235737Y-108587459D01*
X157392780Y-108352427D01*
X157500953Y-108091274D01*
X157556100Y-107814035D01*
X157556100Y-107531365D01*
X157500953Y-107254126D01*
X157392780Y-106992973D01*
X157235737Y-106757941D01*
X157035859Y-106558063D01*
X156803341Y-106402700D01*
X157035859Y-106247337D01*
X157235737Y-106047459D01*
X157392780Y-105812427D01*
X157500953Y-105551274D01*
X157556100Y-105274035D01*
X157556100Y-104991365D01*
X157500953Y-104714126D01*
X157392780Y-104452973D01*
X157235737Y-104217941D01*
X157035859Y-104018063D01*
X156803341Y-103862700D01*
X157035859Y-103707337D01*
X157235737Y-103507459D01*
X157392780Y-103272427D01*
X157500953Y-103011274D01*
X157556100Y-102734035D01*
X157556100Y-102451365D01*
X157500953Y-102174126D01*
X157392780Y-101912973D01*
X157235737Y-101677941D01*
X157035859Y-101478063D01*
X156803341Y-101322700D01*
X157035859Y-101167337D01*
X157235737Y-100967459D01*
X157392780Y-100732427D01*
X157500953Y-100471274D01*
X157556100Y-100194035D01*
X157556100Y-99911365D01*
X157500953Y-99634126D01*
X157392780Y-99372973D01*
X157235737Y-99137941D01*
X157035859Y-98938063D01*
X156803341Y-98782700D01*
X157035859Y-98627337D01*
X157134496Y-98528700D01*
X157923987Y-98528700D01*
X157974838Y-98590662D01*
X158109413Y-98701105D01*
X158262949Y-98783172D01*
X158429545Y-98833708D01*
X158602799Y-98850772D01*
X159252801Y-98850772D01*
X159426055Y-98833708D01*
X159592651Y-98783172D01*
X159746187Y-98701105D01*
X159880762Y-98590662D01*
X159886142Y-98584106D01*
X159951615Y-98663885D01*
X160048306Y-98743237D01*
X160158620Y-98802202D01*
X160278318Y-98838512D01*
X160402800Y-98850772D01*
X160692050Y-98847700D01*
X160850800Y-98688950D01*
X160850800Y-97639700D01*
X161104800Y-97639700D01*
X161104800Y-98688950D01*
X161263550Y-98847700D01*
X161552800Y-98850772D01*
X161677282Y-98838512D01*
X161796980Y-98802202D01*
X161907294Y-98743237D01*
X162003985Y-98663885D01*
X162083337Y-98567194D01*
X162142302Y-98456880D01*
X162178612Y-98337182D01*
X162190872Y-98212700D01*
X162187800Y-97798450D01*
X162029050Y-97639700D01*
X161104800Y-97639700D01*
X160850800Y-97639700D01*
X160830800Y-97639700D01*
X160830800Y-97385700D01*
X160850800Y-97385700D01*
X160850800Y-96336450D01*
X161104800Y-96336450D01*
X161104800Y-97385700D01*
X162029050Y-97385700D01*
X162187800Y-97226950D01*
X162190872Y-96812700D01*
X162178612Y-96688218D01*
X162142302Y-96568520D01*
X162083337Y-96458206D01*
X162003985Y-96361515D01*
X161907294Y-96282163D01*
X161796980Y-96223198D01*
X161677282Y-96186888D01*
X161552800Y-96174628D01*
X161263550Y-96177700D01*
X161104800Y-96336450D01*
X160850800Y-96336450D01*
X160692050Y-96177700D01*
X160402800Y-96174628D01*
X160278318Y-96186888D01*
X160158620Y-96223198D01*
X160048306Y-96282163D01*
X159951615Y-96361515D01*
X159886142Y-96441294D01*
X159880762Y-96434738D01*
X159746187Y-96324295D01*
X159592651Y-96242228D01*
X159426055Y-96191692D01*
X159252801Y-96174628D01*
X158602799Y-96174628D01*
X158429545Y-96191692D01*
X158262949Y-96242228D01*
X158109413Y-96324295D01*
X157974838Y-96434738D01*
X157923987Y-96496700D01*
X157134496Y-96496700D01*
X157035859Y-96398063D01*
X156803341Y-96242700D01*
X157035859Y-96087337D01*
X157235737Y-95887459D01*
X157392780Y-95652427D01*
X157500953Y-95391274D01*
X157556100Y-95114035D01*
X157556100Y-94831365D01*
X157500953Y-94554126D01*
X157392780Y-94292973D01*
X157235737Y-94057941D01*
X157035859Y-93858063D01*
X156803341Y-93702700D01*
X157035859Y-93547337D01*
X157235737Y-93347459D01*
X157392780Y-93112427D01*
X157500953Y-92851274D01*
X157556100Y-92574035D01*
X157556100Y-92291365D01*
X157500953Y-92014126D01*
X157392780Y-91752973D01*
X157235737Y-91517941D01*
X157035859Y-91318063D01*
X156803341Y-91162700D01*
X157035859Y-91007337D01*
X157235737Y-90807459D01*
X157392780Y-90572427D01*
X157500953Y-90311274D01*
X157556100Y-90034035D01*
X157556100Y-89751365D01*
X157500953Y-89474126D01*
X157392780Y-89212973D01*
X157235737Y-88977941D01*
X157035859Y-88778063D01*
X156803341Y-88622700D01*
X157035859Y-88467337D01*
X157235737Y-88267459D01*
X157392780Y-88032427D01*
X157500953Y-87771274D01*
X157556100Y-87494035D01*
X157556100Y-87211365D01*
X157500953Y-86934126D01*
X157500776Y-86933699D01*
X161798100Y-86933699D01*
X161798099Y-88674275D01*
G37*
X161798099Y-88674275D02*
X161794413Y-88711699D01*
X161798099Y-88749122D01*
X161798099Y-88749124D01*
X161809125Y-88861076D01*
X161852697Y-89004713D01*
X161852698Y-89004714D01*
X161923454Y-89137091D01*
X161963082Y-89185377D01*
X162018677Y-89253121D01*
X162047753Y-89276983D01*
X162341943Y-89571173D01*
X162306100Y-89751365D01*
X162306100Y-90034035D01*
X162361247Y-90311274D01*
X162469420Y-90572427D01*
X162626463Y-90807459D01*
X162826341Y-91007337D01*
X163058859Y-91162700D01*
X162826341Y-91318063D01*
X162626463Y-91517941D01*
X162469420Y-91752973D01*
X162361247Y-92014126D01*
X162306100Y-92291365D01*
X162306100Y-92574035D01*
X162361247Y-92851274D01*
X162469420Y-93112427D01*
X162626463Y-93347459D01*
X162826341Y-93547337D01*
X163058859Y-93702700D01*
X162826341Y-93858063D01*
X162626463Y-94057941D01*
X162469420Y-94292973D01*
X162361247Y-94554126D01*
X162306100Y-94831365D01*
X162306100Y-95114035D01*
X162361247Y-95391274D01*
X162469420Y-95652427D01*
X162626463Y-95887459D01*
X162826341Y-96087337D01*
X163061373Y-96244380D01*
X163071965Y-96248767D01*
X162885969Y-96360315D01*
X162677581Y-96549286D01*
X162510063Y-96775280D01*
X162389854Y-97029613D01*
X162349196Y-97163661D01*
X162471185Y-97385700D01*
X163614100Y-97385700D01*
X163614100Y-97365700D01*
X163868100Y-97365700D01*
X163868100Y-97385700D01*
X165011015Y-97385700D01*
X165034224Y-97343455D01*
X165176121Y-97485352D01*
X165176121Y-100410091D01*
X165140257Y-100374227D01*
X165176100Y-100194035D01*
X165176100Y-99911365D01*
X165120953Y-99634126D01*
X165012780Y-99372973D01*
X164855737Y-99137941D01*
X164655859Y-98938063D01*
X164420827Y-98781020D01*
X164410235Y-98776633D01*
X164596231Y-98665085D01*
X164804619Y-98476114D01*
X164972137Y-98250120D01*
X165092346Y-97995787D01*
X165133004Y-97861739D01*
X165011015Y-97639700D01*
X163868100Y-97639700D01*
X163868100Y-97659700D01*
X163614100Y-97659700D01*
X163614100Y-97639700D01*
X162471185Y-97639700D01*
X162349196Y-97861739D01*
X162389854Y-97995787D01*
X162510063Y-98250120D01*
X162677581Y-98476114D01*
X162885969Y-98665085D01*
X163071965Y-98776633D01*
X163061373Y-98781020D01*
X162826341Y-98938063D01*
X162626463Y-99137941D01*
X162469420Y-99372973D01*
X162361247Y-99634126D01*
X162306100Y-99911365D01*
X162306100Y-100194035D01*
X162361247Y-100471274D01*
X162469420Y-100732427D01*
X162626463Y-100967459D01*
X162826341Y-101167337D01*
X163058859Y-101322700D01*
X162826341Y-101478063D01*
X162626463Y-101677941D01*
X162469420Y-101912973D01*
X162361247Y-102174126D01*
X162306100Y-102451365D01*
X162306100Y-102734035D01*
X162361247Y-103011274D01*
X162469420Y-103272427D01*
X162626463Y-103507459D01*
X162826341Y-103707337D01*
X163058859Y-103862700D01*
X162826341Y-104018063D01*
X162626463Y-104217941D01*
X162469420Y-104452973D01*
X162361247Y-104714126D01*
X162306100Y-104991365D01*
X162306100Y-105274035D01*
X162361247Y-105551274D01*
X162469420Y-105812427D01*
X162626463Y-106047459D01*
X162826341Y-106247337D01*
X163058859Y-106402700D01*
X162826341Y-106558063D01*
X162626463Y-106757941D01*
X162524393Y-106910700D01*
X162032841Y-106910700D01*
X161995418Y-106907014D01*
X161957995Y-106910700D01*
X161957992Y-106910700D01*
X161846040Y-106921726D01*
X161702403Y-106965298D01*
X161650627Y-106992973D01*
X161570025Y-107036055D01*
X161493445Y-107098903D01*
X161453996Y-107131278D01*
X161430139Y-107160348D01*
X155769714Y-112820774D01*
X155618011Y-112719410D01*
X155347758Y-112607468D01*
X155060860Y-112550400D01*
X154768340Y-112550400D01*
X154481442Y-112607468D01*
X154211189Y-112719410D01*
X153967968Y-112881925D01*
X153761125Y-113088768D01*
X153644600Y-113263160D01*
X153528075Y-113088768D01*
X153321232Y-112881925D01*
X153078011Y-112719410D01*
X152807758Y-112607468D01*
X152520860Y-112550400D01*
X152228340Y-112550400D01*
X151941442Y-112607468D01*
X151905599Y-112622315D01*
X151905599Y-108859085D01*
X154890611Y-105874074D01*
X155006463Y-106047459D01*
X155206341Y-106247337D01*
X155438859Y-106402700D01*
X155206341Y-106558063D01*
X155006463Y-106757941D01*
X154849420Y-106992973D01*
X154741247Y-107254126D01*
X154686100Y-107531365D01*
X154686100Y-107814035D01*
X154741247Y-108091274D01*
X154849420Y-108352427D01*
X155006463Y-108587459D01*
X155206341Y-108787337D01*
X155441373Y-108944380D01*
X155702526Y-109052553D01*
X155979765Y-109107700D01*
X156262435Y-109107700D01*
X156539674Y-109052553D01*
X156800827Y-108944380D01*
X157035859Y-108787337D01*
X157235737Y-108587459D01*
X157392780Y-108352427D01*
X157500953Y-108091274D01*
X157556100Y-107814035D01*
X157556100Y-107531365D01*
X157500953Y-107254126D01*
X157392780Y-106992973D01*
X157235737Y-106757941D01*
X157035859Y-106558063D01*
X156803341Y-106402700D01*
X157035859Y-106247337D01*
X157235737Y-106047459D01*
X157392780Y-105812427D01*
X157500953Y-105551274D01*
X157556100Y-105274035D01*
X157556100Y-104991365D01*
X157500953Y-104714126D01*
X157392780Y-104452973D01*
X157235737Y-104217941D01*
X157035859Y-104018063D01*
X156803341Y-103862700D01*
X157035859Y-103707337D01*
X157235737Y-103507459D01*
X157392780Y-103272427D01*
X157500953Y-103011274D01*
X157556100Y-102734035D01*
X157556100Y-102451365D01*
X157500953Y-102174126D01*
X157392780Y-101912973D01*
X157235737Y-101677941D01*
X157035859Y-101478063D01*
X156803341Y-101322700D01*
X157035859Y-101167337D01*
X157235737Y-100967459D01*
X157392780Y-100732427D01*
X157500953Y-100471274D01*
X157556100Y-100194035D01*
X157556100Y-99911365D01*
X157500953Y-99634126D01*
X157392780Y-99372973D01*
X157235737Y-99137941D01*
X157035859Y-98938063D01*
X156803341Y-98782700D01*
X157035859Y-98627337D01*
X157134496Y-98528700D01*
X157923987Y-98528700D01*
X157974838Y-98590662D01*
X158109413Y-98701105D01*
X158262949Y-98783172D01*
X158429545Y-98833708D01*
X158602799Y-98850772D01*
X159252801Y-98850772D01*
X159426055Y-98833708D01*
X159592651Y-98783172D01*
X159746187Y-98701105D01*
X159880762Y-98590662D01*
X159886142Y-98584106D01*
X159951615Y-98663885D01*
X160048306Y-98743237D01*
X160158620Y-98802202D01*
X160278318Y-98838512D01*
X160402800Y-98850772D01*
X160692050Y-98847700D01*
X160850800Y-98688950D01*
X160850800Y-97639700D01*
X161104800Y-97639700D01*
X161104800Y-98688950D01*
X161263550Y-98847700D01*
X161552800Y-98850772D01*
X161677282Y-98838512D01*
X161796980Y-98802202D01*
X161907294Y-98743237D01*
X162003985Y-98663885D01*
X162083337Y-98567194D01*
X162142302Y-98456880D01*
X162178612Y-98337182D01*
X162190872Y-98212700D01*
X162187800Y-97798450D01*
X162029050Y-97639700D01*
X161104800Y-97639700D01*
X160850800Y-97639700D01*
X160830800Y-97639700D01*
X160830800Y-97385700D01*
X160850800Y-97385700D01*
X160850800Y-96336450D01*
X161104800Y-96336450D01*
X161104800Y-97385700D01*
X162029050Y-97385700D01*
X162187800Y-97226950D01*
X162190872Y-96812700D01*
X162178612Y-96688218D01*
X162142302Y-96568520D01*
X162083337Y-96458206D01*
X162003985Y-96361515D01*
X161907294Y-96282163D01*
X161796980Y-96223198D01*
X161677282Y-96186888D01*
X161552800Y-96174628D01*
X161263550Y-96177700D01*
X161104800Y-96336450D01*
X160850800Y-96336450D01*
X160692050Y-96177700D01*
X160402800Y-96174628D01*
X160278318Y-96186888D01*
X160158620Y-96223198D01*
X160048306Y-96282163D01*
X159951615Y-96361515D01*
X159886142Y-96441294D01*
X159880762Y-96434738D01*
X159746187Y-96324295D01*
X159592651Y-96242228D01*
X159426055Y-96191692D01*
X159252801Y-96174628D01*
X158602799Y-96174628D01*
X158429545Y-96191692D01*
X158262949Y-96242228D01*
X158109413Y-96324295D01*
X157974838Y-96434738D01*
X157923987Y-96496700D01*
X157134496Y-96496700D01*
X157035859Y-96398063D01*
X156803341Y-96242700D01*
X157035859Y-96087337D01*
X157235737Y-95887459D01*
X157392780Y-95652427D01*
X157500953Y-95391274D01*
X157556100Y-95114035D01*
X157556100Y-94831365D01*
X157500953Y-94554126D01*
X157392780Y-94292973D01*
X157235737Y-94057941D01*
X157035859Y-93858063D01*
X156803341Y-93702700D01*
X157035859Y-93547337D01*
X157235737Y-93347459D01*
X157392780Y-93112427D01*
X157500953Y-92851274D01*
X157556100Y-92574035D01*
X157556100Y-92291365D01*
X157500953Y-92014126D01*
X157392780Y-91752973D01*
X157235737Y-91517941D01*
X157035859Y-91318063D01*
X156803341Y-91162700D01*
X157035859Y-91007337D01*
X157235737Y-90807459D01*
X157392780Y-90572427D01*
X157500953Y-90311274D01*
X157556100Y-90034035D01*
X157556100Y-89751365D01*
X157500953Y-89474126D01*
X157392780Y-89212973D01*
X157235737Y-88977941D01*
X157035859Y-88778063D01*
X156803341Y-88622700D01*
X157035859Y-88467337D01*
X157235737Y-88267459D01*
X157392780Y-88032427D01*
X157500953Y-87771274D01*
X157556100Y-87494035D01*
X157556100Y-87211365D01*
X157500953Y-86934126D01*
X157500776Y-86933699D01*
X161798100Y-86933699D01*
X161798099Y-88674275D01*
G36*
X146887000Y-106283200D02*
G01*
X146907000Y-106283200D01*
X146907000Y-106537200D01*
X146887000Y-106537200D01*
X146887000Y-106557200D01*
X146633000Y-106557200D01*
X146633000Y-106537200D01*
X146613000Y-106537200D01*
X146613000Y-106283200D01*
X146633000Y-106283200D01*
X146633000Y-106263200D01*
X146887000Y-106263200D01*
X146887000Y-106283200D01*
G37*
X146887000Y-106283200D02*
X146907000Y-106283200D01*
X146907000Y-106537200D01*
X146887000Y-106537200D01*
X146887000Y-106557200D01*
X146633000Y-106557200D01*
X146633000Y-106537200D01*
X146613000Y-106537200D01*
X146613000Y-106283200D01*
X146633000Y-106283200D01*
X146633000Y-106263200D01*
X146887000Y-106263200D01*
X146887000Y-106283200D01*
G36*
X155005725Y-78126632D02*
G01*
X155212568Y-78333475D01*
X155455789Y-78495990D01*
X155726042Y-78607932D01*
X156012940Y-78665000D01*
X156195757Y-78665000D01*
X155289859Y-79570899D01*
X155086260Y-79530400D01*
X154793740Y-79530400D01*
X154506842Y-79587468D01*
X154236589Y-79699410D01*
X153993368Y-79861925D01*
X153786525Y-80068768D01*
X153670689Y-80242129D01*
X153428397Y-80166608D01*
X152579605Y-81015400D01*
X153428397Y-81864192D01*
X153670689Y-81788671D01*
X153786525Y-81962032D01*
X153993368Y-82168875D01*
X154236589Y-82331390D01*
X154506842Y-82443332D01*
X154793740Y-82500400D01*
X155086260Y-82500400D01*
X155320806Y-82453746D01*
X150272229Y-87502322D01*
X150246632Y-87476725D01*
X150072240Y-87360200D01*
X150246632Y-87243675D01*
X150453475Y-87036832D01*
X150615990Y-86793611D01*
X150727932Y-86523358D01*
X150785000Y-86236460D01*
X150785000Y-85943940D01*
X150727932Y-85657042D01*
X150615990Y-85386789D01*
X150453475Y-85143568D01*
X150246632Y-84936725D01*
X150072240Y-84820200D01*
X150246632Y-84703675D01*
X150453475Y-84496832D01*
X150615990Y-84253611D01*
X150727932Y-83983358D01*
X150785000Y-83696460D01*
X150785000Y-83403940D01*
X150727932Y-83117042D01*
X150615990Y-82846789D01*
X150453475Y-82603568D01*
X150246632Y-82396725D01*
X150072240Y-82280200D01*
X150246632Y-82163675D01*
X150366510Y-82043797D01*
X151551208Y-82043797D01*
X151628843Y-82292872D01*
X151892883Y-82418771D01*
X152176411Y-82490739D01*
X152468531Y-82506011D01*
X152758019Y-82463999D01*
X153033747Y-82366319D01*
X153171157Y-82292872D01*
X153248792Y-82043797D01*
X152400000Y-81195005D01*
X151551208Y-82043797D01*
X150366510Y-82043797D01*
X150453475Y-81956832D01*
X150615990Y-81713611D01*
X150727932Y-81443358D01*
X150785000Y-81156460D01*
X150785000Y-81083931D01*
X150909389Y-81083931D01*
X150951401Y-81373419D01*
X151049081Y-81649147D01*
X151122528Y-81786557D01*
X151371603Y-81864192D01*
X152220395Y-81015400D01*
X151371603Y-80166608D01*
X151122528Y-80244243D01*
X150996629Y-80508283D01*
X150924661Y-80791811D01*
X150909389Y-81083931D01*
X150785000Y-81083931D01*
X150785000Y-80863940D01*
X150727932Y-80577042D01*
X150615990Y-80306789D01*
X150453475Y-80063568D01*
X150376910Y-79987003D01*
X151551208Y-79987003D01*
X152400000Y-80835795D01*
X153248792Y-79987003D01*
X153171157Y-79737928D01*
X152907117Y-79612029D01*
X152623589Y-79540061D01*
X152331469Y-79524789D01*
X152041981Y-79566801D01*
X151766253Y-79664481D01*
X151628843Y-79737928D01*
X151551208Y-79987003D01*
X150376910Y-79987003D01*
X150246632Y-79856725D01*
X150072240Y-79740200D01*
X150246632Y-79623675D01*
X150453475Y-79416832D01*
X150615990Y-79173611D01*
X150727932Y-78903358D01*
X150781343Y-78634845D01*
X150932940Y-78665000D01*
X151225460Y-78665000D01*
X151512358Y-78607932D01*
X151782611Y-78495990D01*
X152025832Y-78333475D01*
X152232675Y-78126632D01*
X152349200Y-77952240D01*
X152465725Y-78126632D01*
X152672568Y-78333475D01*
X152915789Y-78495990D01*
X153186042Y-78607932D01*
X153472940Y-78665000D01*
X153765460Y-78665000D01*
X154052358Y-78607932D01*
X154322611Y-78495990D01*
X154565832Y-78333475D01*
X154772675Y-78126632D01*
X154889200Y-77952240D01*
X155005725Y-78126632D01*
G37*
X155005725Y-78126632D02*
X155212568Y-78333475D01*
X155455789Y-78495990D01*
X155726042Y-78607932D01*
X156012940Y-78665000D01*
X156195757Y-78665000D01*
X155289859Y-79570899D01*
X155086260Y-79530400D01*
X154793740Y-79530400D01*
X154506842Y-79587468D01*
X154236589Y-79699410D01*
X153993368Y-79861925D01*
X153786525Y-80068768D01*
X153670689Y-80242129D01*
X153428397Y-80166608D01*
X152579605Y-81015400D01*
X153428397Y-81864192D01*
X153670689Y-81788671D01*
X153786525Y-81962032D01*
X153993368Y-82168875D01*
X154236589Y-82331390D01*
X154506842Y-82443332D01*
X154793740Y-82500400D01*
X155086260Y-82500400D01*
X155320806Y-82453746D01*
X150272229Y-87502322D01*
X150246632Y-87476725D01*
X150072240Y-87360200D01*
X150246632Y-87243675D01*
X150453475Y-87036832D01*
X150615990Y-86793611D01*
X150727932Y-86523358D01*
X150785000Y-86236460D01*
X150785000Y-85943940D01*
X150727932Y-85657042D01*
X150615990Y-85386789D01*
X150453475Y-85143568D01*
X150246632Y-84936725D01*
X150072240Y-84820200D01*
X150246632Y-84703675D01*
X150453475Y-84496832D01*
X150615990Y-84253611D01*
X150727932Y-83983358D01*
X150785000Y-83696460D01*
X150785000Y-83403940D01*
X150727932Y-83117042D01*
X150615990Y-82846789D01*
X150453475Y-82603568D01*
X150246632Y-82396725D01*
X150072240Y-82280200D01*
X150246632Y-82163675D01*
X150366510Y-82043797D01*
X151551208Y-82043797D01*
X151628843Y-82292872D01*
X151892883Y-82418771D01*
X152176411Y-82490739D01*
X152468531Y-82506011D01*
X152758019Y-82463999D01*
X153033747Y-82366319D01*
X153171157Y-82292872D01*
X153248792Y-82043797D01*
X152400000Y-81195005D01*
X151551208Y-82043797D01*
X150366510Y-82043797D01*
X150453475Y-81956832D01*
X150615990Y-81713611D01*
X150727932Y-81443358D01*
X150785000Y-81156460D01*
X150785000Y-81083931D01*
X150909389Y-81083931D01*
X150951401Y-81373419D01*
X151049081Y-81649147D01*
X151122528Y-81786557D01*
X151371603Y-81864192D01*
X152220395Y-81015400D01*
X151371603Y-80166608D01*
X151122528Y-80244243D01*
X150996629Y-80508283D01*
X150924661Y-80791811D01*
X150909389Y-81083931D01*
X150785000Y-81083931D01*
X150785000Y-80863940D01*
X150727932Y-80577042D01*
X150615990Y-80306789D01*
X150453475Y-80063568D01*
X150376910Y-79987003D01*
X151551208Y-79987003D01*
X152400000Y-80835795D01*
X153248792Y-79987003D01*
X153171157Y-79737928D01*
X152907117Y-79612029D01*
X152623589Y-79540061D01*
X152331469Y-79524789D01*
X152041981Y-79566801D01*
X151766253Y-79664481D01*
X151628843Y-79737928D01*
X151551208Y-79987003D01*
X150376910Y-79987003D01*
X150246632Y-79856725D01*
X150072240Y-79740200D01*
X150246632Y-79623675D01*
X150453475Y-79416832D01*
X150615990Y-79173611D01*
X150727932Y-78903358D01*
X150781343Y-78634845D01*
X150932940Y-78665000D01*
X151225460Y-78665000D01*
X151512358Y-78607932D01*
X151782611Y-78495990D01*
X152025832Y-78333475D01*
X152232675Y-78126632D01*
X152349200Y-77952240D01*
X152465725Y-78126632D01*
X152672568Y-78333475D01*
X152915789Y-78495990D01*
X153186042Y-78607932D01*
X153472940Y-78665000D01*
X153765460Y-78665000D01*
X154052358Y-78607932D01*
X154322611Y-78495990D01*
X154565832Y-78333475D01*
X154772675Y-78126632D01*
X154889200Y-77952240D01*
X155005725Y-78126632D01*
M02*
