G04 #@! TF.GenerationSoftware,KiCad,Pcbnew,(5.1.5-0-10_14)*
G04 #@! TF.CreationDate,2019-12-11T22:46:01+09:00*
G04 #@! TF.ProjectId,RPiWD_Controller,52506957-445f-4436-9f6e-74726f6c6c65,rev?*
G04 #@! TF.SameCoordinates,Original*
G04 #@! TF.FileFunction,Soldermask,Top*
G04 #@! TF.FilePolarity,Negative*
%FSLAX46Y46*%
G04 Gerber Fmt 4.6, Leading zero omitted, Abs format (unit mm)*
G04 Created by KiCad (PCBNEW (5.1.5-0-10_14)) date 2019-12-11 22:46:01*
%MOMM*%
%LPD*%
G04 APERTURE LIST*
%ADD10C,0.100000*%
G04 APERTURE END LIST*
D10*
G36*
X153251000Y-78251000D02*
G01*
X151149000Y-78251000D01*
X151149000Y-76949000D01*
X153251000Y-76949000D01*
X153251000Y-78251000D01*
G37*
G36*
X147651000Y-78251000D02*
G01*
X145549000Y-78251000D01*
X145549000Y-76949000D01*
X147651000Y-76949000D01*
X147651000Y-78251000D01*
G37*
G36*
X153251000Y-76451000D02*
G01*
X151149000Y-76451000D01*
X151149000Y-75349000D01*
X153251000Y-75349000D01*
X153251000Y-76451000D01*
G37*
G36*
X147651000Y-76451000D02*
G01*
X145549000Y-76451000D01*
X145549000Y-75349000D01*
X147651000Y-75349000D01*
X147651000Y-76451000D01*
G37*
G36*
X135248228Y-74081703D02*
G01*
X135403100Y-74145853D01*
X135542481Y-74238985D01*
X135661015Y-74357519D01*
X135754147Y-74496900D01*
X135818297Y-74651772D01*
X135851000Y-74816184D01*
X135851000Y-74983816D01*
X135818297Y-75148228D01*
X135754147Y-75303100D01*
X135661015Y-75442481D01*
X135542481Y-75561015D01*
X135403100Y-75654147D01*
X135248228Y-75718297D01*
X135083816Y-75751000D01*
X134916184Y-75751000D01*
X134751772Y-75718297D01*
X134596900Y-75654147D01*
X134457519Y-75561015D01*
X134338985Y-75442481D01*
X134245853Y-75303100D01*
X134181703Y-75148228D01*
X134149000Y-74983816D01*
X134149000Y-74816184D01*
X134181703Y-74651772D01*
X134245853Y-74496900D01*
X134338985Y-74357519D01*
X134457519Y-74238985D01*
X134596900Y-74145853D01*
X134751772Y-74081703D01*
X134916184Y-74049000D01*
X135083816Y-74049000D01*
X135248228Y-74081703D01*
G37*
G36*
X147651000Y-74851000D02*
G01*
X145549000Y-74851000D01*
X145549000Y-73549000D01*
X147651000Y-73549000D01*
X147651000Y-74851000D01*
G37*
G36*
X153251000Y-74851000D02*
G01*
X151149000Y-74851000D01*
X151149000Y-73549000D01*
X153251000Y-73549000D01*
X153251000Y-74851000D01*
G37*
G36*
X158751000Y-72851000D02*
G01*
X157449000Y-72851000D01*
X157449000Y-70749000D01*
X158751000Y-70749000D01*
X158751000Y-72851000D01*
G37*
G36*
X156951000Y-72851000D02*
G01*
X155849000Y-72851000D01*
X155849000Y-70749000D01*
X156951000Y-70749000D01*
X156951000Y-72851000D01*
G37*
G36*
X142951000Y-72851000D02*
G01*
X141849000Y-72851000D01*
X141849000Y-70749000D01*
X142951000Y-70749000D01*
X142951000Y-72851000D01*
G37*
G36*
X144751000Y-72851000D02*
G01*
X143449000Y-72851000D01*
X143449000Y-70749000D01*
X144751000Y-70749000D01*
X144751000Y-72851000D01*
G37*
G36*
X141351000Y-72851000D02*
G01*
X140049000Y-72851000D01*
X140049000Y-70749000D01*
X141351000Y-70749000D01*
X141351000Y-72851000D01*
G37*
G36*
X155351000Y-72851000D02*
G01*
X154049000Y-72851000D01*
X154049000Y-70749000D01*
X155351000Y-70749000D01*
X155351000Y-72851000D01*
G37*
G36*
X138651000Y-71451000D02*
G01*
X136549000Y-71451000D01*
X136549000Y-70349000D01*
X138651000Y-70349000D01*
X138651000Y-71451000D01*
G37*
G36*
X138651000Y-69451000D02*
G01*
X136549000Y-69451000D01*
X136549000Y-68349000D01*
X138651000Y-68349000D01*
X138651000Y-69451000D01*
G37*
G36*
X138651000Y-67451000D02*
G01*
X136549000Y-67451000D01*
X136549000Y-66349000D01*
X138651000Y-66349000D01*
X138651000Y-67451000D01*
G37*
G36*
X158751000Y-67251000D02*
G01*
X157449000Y-67251000D01*
X157449000Y-65149000D01*
X158751000Y-65149000D01*
X158751000Y-67251000D01*
G37*
G36*
X156951000Y-67251000D02*
G01*
X155849000Y-67251000D01*
X155849000Y-65149000D01*
X156951000Y-65149000D01*
X156951000Y-67251000D01*
G37*
G36*
X155351000Y-67251000D02*
G01*
X154049000Y-67251000D01*
X154049000Y-65149000D01*
X155351000Y-65149000D01*
X155351000Y-67251000D01*
G37*
G36*
X144751000Y-67251000D02*
G01*
X143449000Y-67251000D01*
X143449000Y-65149000D01*
X144751000Y-65149000D01*
X144751000Y-67251000D01*
G37*
G36*
X142951000Y-67251000D02*
G01*
X141849000Y-67251000D01*
X141849000Y-65149000D01*
X142951000Y-65149000D01*
X142951000Y-67251000D01*
G37*
G36*
X141351000Y-67251000D02*
G01*
X140049000Y-67251000D01*
X140049000Y-65149000D01*
X141351000Y-65149000D01*
X141351000Y-67251000D01*
G37*
G36*
X153251000Y-64251000D02*
G01*
X151149000Y-64251000D01*
X151149000Y-62949000D01*
X153251000Y-62949000D01*
X153251000Y-64251000D01*
G37*
G36*
X147651000Y-64251000D02*
G01*
X145549000Y-64251000D01*
X145549000Y-62949000D01*
X147651000Y-62949000D01*
X147651000Y-64251000D01*
G37*
G36*
X123248228Y-62081703D02*
G01*
X123403100Y-62145853D01*
X123542481Y-62238985D01*
X123661015Y-62357519D01*
X123754147Y-62496900D01*
X123818297Y-62651772D01*
X123851000Y-62816184D01*
X123851000Y-62983816D01*
X123818297Y-63148228D01*
X123754147Y-63303100D01*
X123661015Y-63442481D01*
X123542481Y-63561015D01*
X123403100Y-63654147D01*
X123248228Y-63718297D01*
X123083816Y-63751000D01*
X122916184Y-63751000D01*
X122751772Y-63718297D01*
X122596900Y-63654147D01*
X122457519Y-63561015D01*
X122338985Y-63442481D01*
X122245853Y-63303100D01*
X122181703Y-63148228D01*
X122149000Y-62983816D01*
X122149000Y-62816184D01*
X122181703Y-62651772D01*
X122245853Y-62496900D01*
X122338985Y-62357519D01*
X122457519Y-62238985D01*
X122596900Y-62145853D01*
X122751772Y-62081703D01*
X122916184Y-62049000D01*
X123083816Y-62049000D01*
X123248228Y-62081703D01*
G37*
G36*
X153251000Y-62451000D02*
G01*
X151149000Y-62451000D01*
X151149000Y-61349000D01*
X153251000Y-61349000D01*
X153251000Y-62451000D01*
G37*
G36*
X147651000Y-62451000D02*
G01*
X145549000Y-62451000D01*
X145549000Y-61349000D01*
X147651000Y-61349000D01*
X147651000Y-62451000D01*
G37*
G36*
X127551000Y-61351000D02*
G01*
X126449000Y-61351000D01*
X126449000Y-59249000D01*
X127551000Y-59249000D01*
X127551000Y-61351000D01*
G37*
G36*
X129551000Y-61351000D02*
G01*
X128449000Y-61351000D01*
X128449000Y-59249000D01*
X129551000Y-59249000D01*
X129551000Y-61351000D01*
G37*
G36*
X131551000Y-61351000D02*
G01*
X130449000Y-61351000D01*
X130449000Y-59249000D01*
X131551000Y-59249000D01*
X131551000Y-61351000D01*
G37*
G36*
X147651000Y-60851000D02*
G01*
X145549000Y-60851000D01*
X145549000Y-59549000D01*
X147651000Y-59549000D01*
X147651000Y-60851000D01*
G37*
G36*
X153251000Y-60851000D02*
G01*
X151149000Y-60851000D01*
X151149000Y-59549000D01*
X153251000Y-59549000D01*
X153251000Y-60851000D01*
G37*
G36*
X131646000Y-57301000D02*
G01*
X130544000Y-57301000D01*
X130544000Y-54399000D01*
X131646000Y-54399000D01*
X131646000Y-57301000D01*
G37*
G36*
X134186000Y-57301000D02*
G01*
X133084000Y-57301000D01*
X133084000Y-54399000D01*
X134186000Y-54399000D01*
X134186000Y-57301000D01*
G37*
G36*
X136726000Y-57301000D02*
G01*
X135624000Y-57301000D01*
X135624000Y-54399000D01*
X136726000Y-54399000D01*
X136726000Y-57301000D01*
G37*
G36*
X139266000Y-57301000D02*
G01*
X138164000Y-57301000D01*
X138164000Y-54399000D01*
X139266000Y-54399000D01*
X139266000Y-57301000D01*
G37*
G36*
X141826000Y-57301000D02*
G01*
X140724000Y-57301000D01*
X140724000Y-54399000D01*
X141826000Y-54399000D01*
X141826000Y-57301000D01*
G37*
G36*
X144346000Y-57301000D02*
G01*
X143244000Y-57301000D01*
X143244000Y-54399000D01*
X144346000Y-54399000D01*
X144346000Y-57301000D01*
G37*
G36*
X149426000Y-57301000D02*
G01*
X148324000Y-57301000D01*
X148324000Y-54399000D01*
X149426000Y-54399000D01*
X149426000Y-57301000D01*
G37*
G36*
X146886000Y-57301000D02*
G01*
X145784000Y-57301000D01*
X145784000Y-54399000D01*
X146886000Y-54399000D01*
X146886000Y-57301000D01*
G37*
M02*
