G04 #@! TF.GenerationSoftware,KiCad,Pcbnew,(5.1.5-0-10_14)*
G04 #@! TF.CreationDate,2019-12-11T22:46:01+09:00*
G04 #@! TF.ProjectId,RPiWD_Controller,52506957-445f-4436-9f6e-74726f6c6c65,rev?*
G04 #@! TF.SameCoordinates,Original*
G04 #@! TF.FileFunction,Copper,L1,Top*
G04 #@! TF.FilePolarity,Positive*
%FSLAX46Y46*%
G04 Gerber Fmt 4.6, Leading zero omitted, Abs format (unit mm)*
G04 Created by KiCad (PCBNEW (5.1.5-0-10_14)) date 2019-12-11 22:46:01*
%MOMM*%
%LPD*%
G04 APERTURE LIST*
%ADD10R,1.000000X2.800000*%
%ADD11R,2.000000X1.000000*%
%ADD12R,1.000000X2.000000*%
%ADD13R,1.200000X2.000000*%
%ADD14R,2.000000X1.200000*%
%ADD15C,0.304800*%
G04 APERTURE END LIST*
D10*
X146335000Y-55850000D03*
X143795000Y-55850000D03*
X141275000Y-55850000D03*
X138715000Y-55850000D03*
X136175000Y-55850000D03*
X133635000Y-55850000D03*
X131095000Y-55850000D03*
X148875000Y-55850000D03*
D11*
X137600000Y-66900000D03*
X137600000Y-68900000D03*
X137600000Y-70900000D03*
D12*
X127000000Y-60300000D03*
X129000000Y-60300000D03*
X131000000Y-60300000D03*
D13*
X158100000Y-71800000D03*
X154700000Y-71800000D03*
X158100000Y-66200000D03*
X154700000Y-66200000D03*
D12*
X156400000Y-66200000D03*
X156400000Y-71800000D03*
D14*
X146600000Y-77600000D03*
X146600000Y-74200000D03*
X152200000Y-77600000D03*
X152200000Y-74200000D03*
D11*
X152200000Y-75900000D03*
X146600000Y-75900000D03*
D13*
X140700000Y-66200000D03*
X144100000Y-66200000D03*
X140700000Y-71800000D03*
X144100000Y-71800000D03*
D12*
X142400000Y-71800000D03*
X142400000Y-66200000D03*
D14*
X152200000Y-60200000D03*
X152200000Y-63600000D03*
X146600000Y-60200000D03*
X146600000Y-63600000D03*
D11*
X146600000Y-61900000D03*
X152200000Y-61900000D03*
D15*
X148875000Y-55850000D02*
X148875000Y-56750000D01*
X156400000Y-66200000D02*
X154700000Y-66200000D01*
X154700000Y-66200000D02*
X154700000Y-71800000D01*
X148875000Y-57554800D02*
X148900000Y-57579800D01*
X148875000Y-55850000D02*
X148875000Y-57554800D01*
X156400000Y-61977038D02*
X156400000Y-64895200D01*
X153565761Y-59142799D02*
X156400000Y-61977038D01*
X156400000Y-64895200D02*
X156400000Y-66200000D01*
X149942799Y-59142799D02*
X153565761Y-59142799D01*
X148875000Y-58075000D02*
X149942799Y-59142799D01*
X148875000Y-57554800D02*
X148875000Y-58075000D01*
X127000000Y-61604800D02*
X127000000Y-60300000D01*
X127000000Y-62622962D02*
X127000000Y-61604800D01*
X136234239Y-71857201D02*
X127000000Y-62622962D01*
X139057201Y-71765761D02*
X138965761Y-71857201D01*
X139057201Y-70034239D02*
X139057201Y-71765761D01*
X138965761Y-69942799D02*
X139057201Y-70034239D01*
X136234239Y-69942799D02*
X138965761Y-69942799D01*
X132352871Y-66061431D02*
X136234239Y-69942799D01*
X138965761Y-71857201D02*
X136234239Y-71857201D01*
X132352871Y-62395091D02*
X132352871Y-66061431D01*
X137132201Y-54084239D02*
X137132201Y-57615761D01*
X137040761Y-53992799D02*
X137132201Y-54084239D01*
X137132201Y-57615761D02*
X132352871Y-62395091D01*
X132769239Y-53992799D02*
X137040761Y-53992799D01*
X131095000Y-55850000D02*
X131095000Y-55667038D01*
X145295200Y-60200000D02*
X146600000Y-60200000D01*
X142837799Y-54689837D02*
X142837799Y-57742599D01*
X142837799Y-57742599D02*
X145295200Y-60200000D01*
X142140761Y-53992799D02*
X142837799Y-54689837D01*
X140317799Y-64512999D02*
X140700000Y-64895200D01*
X139580761Y-53992799D02*
X140317799Y-54729837D01*
X137207201Y-53992799D02*
X139580761Y-53992799D01*
X140317799Y-54729837D02*
X140317799Y-64512999D01*
X137040761Y-53992799D02*
X137207201Y-53992799D01*
X140700000Y-64895200D02*
X140700000Y-66200000D01*
X137207201Y-53992799D02*
X142140761Y-53992799D01*
X142400000Y-66200000D02*
X140700000Y-66200000D01*
X137600000Y-66900000D02*
X138800000Y-66900000D01*
X139500000Y-66200000D02*
X140700000Y-66200000D01*
X138800000Y-66900000D02*
X139500000Y-66200000D01*
X140700000Y-66200000D02*
X140700000Y-71800000D01*
X139057201Y-71062001D02*
X139057201Y-70900000D01*
X139795200Y-71800000D02*
X139057201Y-71062001D01*
X140700000Y-71800000D02*
X139795200Y-71800000D01*
X145295200Y-75900000D02*
X146600000Y-75900000D01*
X143495200Y-75900000D02*
X145295200Y-75900000D01*
X140700000Y-73104800D02*
X143495200Y-75900000D01*
X140700000Y-71800000D02*
X140700000Y-73104800D01*
X146600000Y-75900000D02*
X146600000Y-77600000D01*
X146600000Y-77600000D02*
X152200000Y-77600000D01*
X156400000Y-73104800D02*
X156400000Y-71800000D01*
X156400000Y-74704800D02*
X156400000Y-73104800D01*
X153504800Y-77600000D02*
X156400000Y-74704800D01*
X156400000Y-71800000D02*
X158100000Y-71800000D01*
X158100000Y-71800000D02*
X158100000Y-66200000D01*
X150742799Y-70265761D02*
X150742799Y-62052401D01*
X153657201Y-73180163D02*
X150742799Y-70265761D01*
X153657201Y-77447599D02*
X153657201Y-73180163D01*
X150742799Y-62052401D02*
X150895200Y-61900000D01*
X153504800Y-77600000D02*
X153657201Y-77447599D01*
X150895200Y-61900000D02*
X152200000Y-61900000D01*
X152200000Y-77600000D02*
X153504800Y-77600000D01*
X152200000Y-61900000D02*
X152200000Y-60200000D01*
X131095000Y-55850000D02*
X131095000Y-57500000D01*
X131095000Y-57500000D02*
X131202200Y-57607200D01*
X131202200Y-57607200D02*
X132054600Y-57607200D01*
X132677799Y-54084239D02*
X132769239Y-53992799D01*
X132677799Y-56984001D02*
X132677799Y-54084239D01*
X132054600Y-57607200D02*
X132677799Y-56984001D01*
X128042799Y-62647599D02*
X136295200Y-70900000D01*
X128042799Y-58934239D02*
X128042799Y-62647599D01*
X128134239Y-58842799D02*
X128042799Y-58934239D01*
X132347001Y-58842799D02*
X128134239Y-58842799D01*
X136295200Y-70900000D02*
X137600000Y-70900000D01*
X133635000Y-57554800D02*
X132347001Y-58842799D01*
X133635000Y-55850000D02*
X133635000Y-57554800D01*
X131152401Y-58842799D02*
X132347001Y-58842799D01*
X131000000Y-58995200D02*
X131152401Y-58842799D01*
X131000000Y-60300000D02*
X131000000Y-58995200D01*
X130847599Y-58842799D02*
X128300000Y-58842799D01*
X131000000Y-58995200D02*
X130847599Y-58842799D01*
X129152401Y-61757201D02*
X129000000Y-61604800D01*
X131972599Y-61757201D02*
X129152401Y-61757201D01*
X136175000Y-57554800D02*
X131972599Y-61757201D01*
X129000000Y-61604800D02*
X129000000Y-60300000D01*
X136175000Y-55850000D02*
X136175000Y-57554800D01*
X136295200Y-68900000D02*
X137600000Y-68900000D01*
X136142799Y-68747599D02*
X136295200Y-68900000D01*
X136142799Y-66034239D02*
X136142799Y-68747599D01*
X138715000Y-63462038D02*
X136142799Y-66034239D01*
X138715000Y-55850000D02*
X138715000Y-63462038D01*
X141275000Y-57879800D02*
X145295200Y-61900000D01*
X145295200Y-61900000D02*
X146600000Y-61900000D01*
X141275000Y-55850000D02*
X141275000Y-57879800D01*
X146600000Y-61900000D02*
X146600000Y-63600000D01*
X145004800Y-66200000D02*
X144100000Y-66200000D01*
X148057201Y-64565761D02*
X146422962Y-66200000D01*
X148057201Y-59234239D02*
X148057201Y-64565761D01*
X146422962Y-66200000D02*
X145004800Y-66200000D01*
X147965761Y-59142799D02*
X148057201Y-59234239D01*
X143795000Y-57554800D02*
X145382999Y-59142799D01*
X145382999Y-59142799D02*
X147965761Y-59142799D01*
X143795000Y-55850000D02*
X143795000Y-57554800D01*
X144100000Y-66200000D02*
X144100000Y-71800000D01*
X144100000Y-71800000D02*
X142400000Y-71800000D01*
X148666810Y-73437990D02*
X147904800Y-74200000D01*
X147904800Y-74200000D02*
X146600000Y-74200000D01*
X148666810Y-58981730D02*
X148666810Y-73437990D01*
X146335000Y-55850000D02*
X146335000Y-56649920D01*
X149428820Y-74200000D02*
X148666810Y-73437990D01*
X152200000Y-74200000D02*
X149428820Y-74200000D01*
X152200000Y-75900000D02*
X152200000Y-74200000D01*
X147313389Y-58533189D02*
X148218269Y-58533189D01*
X148218269Y-58533189D02*
X148666810Y-58981730D01*
X146335000Y-57554800D02*
X147313389Y-58533189D01*
X146335000Y-55850000D02*
X146335000Y-57554800D01*
M02*
